<ttFont>
    <TTGlyph name="A" xMin="-5" yMin="0" xMax="700" yMax="715">
      <contour>
        <pt x="114" y="7" on="1"/>
        <pt x="-3" y="0" on="1"/>
        <pt x="-5" y="1" on="0"/>
        <pt x="-5" y="31" on="0"/>
        <pt x="2" y="38" on="1"/>
        <pt x="39" y="38" on="0"/>
        <pt x="54" y="61" on="1"/>
        <pt x="66" y="77" on="0"/>
        <pt x="85" y="125" on="1"/>
        <pt x="312" y="703" on="1"/>
        <pt x="322" y="715" on="0"/>
        <pt x="340" y="715" on="1"/>
        <pt x="343" y="715" on="0"/>
        <pt x="351" y="713" on="1"/>
        <pt x="587" y="125" on="1"/>
        <pt x="605" y="79" on="0"/>
        <pt x="650" y="38" on="0"/>
        <pt x="693" y="38" on="1"/>
        <pt x="700" y="29" on="0"/>
        <pt x="700" y="2" on="0"/>
        <pt x="698" y="0" on="1"/>
        <pt x="561" y="7" on="1"/>
        <pt x="415" y="0" on="1"/>
        <pt x="413" y="1" on="0"/>
        <pt x="413" y="31" on="0"/>
        <pt x="420" y="38" on="1"/>
        <pt x="496" y="38" on="0"/>
        <pt x="496" y="85" on="1"/>
        <pt x="496" y="98" on="0"/>
        <pt x="487" y="125" on="1"/>
        <pt x="448" y="230" on="1"/>
        <pt x="195" y="230" on="1"/>
        <pt x="156" y="125" on="1"/>
        <pt x="145" y="97" on="0"/>
        <pt x="145" y="80" on="1"/>
        <pt x="145" y="38" on="0"/>
        <pt x="231" y="38" on="1"/>
        <pt x="238" y="29" on="0"/>
        <pt x="238" y="2" on="0"/>
        <pt x="236" y="0" on="1"/>
      </contour>
      <contour>
        <pt x="324" y="597" on="1"/>
        <pt x="216" y="286" on="1"/>
        <pt x="427" y="286" on="1"/>
      </contour>
    </TTGlyph>
    <TTGlyph name="AE" xMin="-11" yMin="-10" xMax="904" yMax="713">
      <contour>
        <pt x="444" y="630" on="1"/>
        <pt x="251" y="286" on="1"/>
        <pt x="438" y="286" on="1"/>
      </contour>
      <contour>
        <pt x="89" y="7" on="1"/>
        <pt x="-8" y="0" on="1"/>
        <pt x="-11" y="3" on="0"/>
        <pt x="-11" y="38" on="0"/>
        <pt x="-3" y="38" on="1"/>
        <pt x="40" y="38" on="0"/>
        <pt x="79" y="77" on="0"/>
        <pt x="102" y="118" on="1"/>
        <pt x="115" y="140" on="0"/>
        <pt x="403" y="658" on="1"/>
        <pt x="379" y="665" on="0"/>
        <pt x="337" y="665" on="1"/>
        <pt x="330" y="670" on="0"/>
        <pt x="330" y="701" on="0"/>
        <pt x="332" y="703" on="1"/>
        <pt x="424" y="700" on="0"/>
        <pt x="694" y="700" on="0"/>
        <pt x="834" y="713" on="1"/>
        <pt x="848" y="537" on="1"/>
        <pt x="844" y="533" on="0"/>
        <pt x="812" y="533" on="0"/>
        <pt x="809" y="537" on="1"/>
        <pt x="800" y="600" on="0"/>
        <pt x="752" y="643" on="0"/>
        <pt x="699" y="643" on="1"/>
        <pt x="511" y="643" on="1"/>
        <pt x="519" y="383" on="1"/>
        <pt x="626" y="383" on="1"/>
        <pt x="661" y="383" on="0"/>
        <pt x="693" y="431" on="0"/>
        <pt x="701" y="483" on="1"/>
        <pt x="705" y="487" on="0"/>
        <pt x="733" y="487" on="0"/>
        <pt x="739" y="483" on="1"/>
        <pt x="731" y="419" on="0"/>
        <pt x="731" y="294" on="0"/>
        <pt x="739" y="230" on="1"/>
        <pt x="735" y="226" on="0"/>
        <pt x="704" y="226" on="0"/>
        <pt x="701" y="230" on="1"/>
        <pt x="693" y="280" on="0"/>
        <pt x="661" y="326" on="0"/>
        <pt x="626" y="326" on="1"/>
        <pt x="520" y="326" on="1"/>
        <pt x="526" y="131" on="1"/>
        <pt x="528" y="89" on="0"/>
        <pt x="555" y="56" on="0"/>
        <pt x="592" y="56" on="1"/>
        <pt x="727" y="56" on="1"/>
        <pt x="773" y="56" on="0"/>
        <pt x="836" y="119" on="0"/>
        <pt x="866" y="186" on="1"/>
        <pt x="868" y="188" on="0"/>
        <pt x="895" y="188" on="0"/>
        <pt x="904" y="179" on="1"/>
        <pt x="852" y="-10" on="1"/>
        <pt x="725" y="3" on="0"/>
        <pt x="448" y="3" on="0"/>
        <pt x="365" y="0" on="1"/>
        <pt x="362" y="3" on="0"/>
        <pt x="362" y="32" on="0"/>
        <pt x="368" y="38" on="1"/>
        <pt x="434" y="38" on="0"/>
        <pt x="435" y="90" on="1"/>
        <pt x="437" y="230" on="1"/>
        <pt x="229" y="230" on="1"/>
        <pt x="201" y="174" on="0"/>
        <pt x="188" y="150" on="0"/>
        <pt x="174" y="121" on="0"/>
        <pt x="165" y="104" on="0"/>
        <pt x="156" y="84" on="0"/>
        <pt x="151" y="73" on="0"/>
        <pt x="149" y="67" on="1"/>
        <pt x="145" y="55" on="0"/>
        <pt x="145" y="51" on="1"/>
        <pt x="145" y="38" on="0"/>
        <pt x="182" y="38" on="1"/>
        <pt x="206" y="38" on="1"/>
        <pt x="213" y="29" on="0"/>
        <pt x="213" y="2" on="0"/>
        <pt x="211" y="0" on="1"/>
      </contour>
    </TTGlyph>
    <TTGlyph name="Aacute" xMin="-5" yMin="0" xMax="700" yMax="956">
      <contour>
        <pt x="263" y="820" on="1"/>
        <pt x="263" y="825" on="1"/>
        <pt x="376" y="890" on="0"/>
        <pt x="426" y="956" on="1"/>
        <pt x="448" y="952" on="0"/>
        <pt x="468" y="896" on="0"/>
        <pt x="468" y="878" on="0"/>
        <pt x="467" y="875" on="1"/>
        <pt x="464" y="864" on="0"/>
        <pt x="284" y="785" on="0"/>
        <pt x="277" y="785" on="1"/>
        <pt x="263" y="791" on="0"/>
      </contour>
      <contour>
        <pt x="114" y="7" on="1"/>
        <pt x="-3" y="0" on="1"/>
        <pt x="-5" y="1" on="0"/>
        <pt x="-5" y="31" on="0"/>
        <pt x="2" y="38" on="1"/>
        <pt x="39" y="38" on="0"/>
        <pt x="54" y="61" on="1"/>
        <pt x="66" y="77" on="0"/>
        <pt x="85" y="125" on="1"/>
        <pt x="312" y="703" on="1"/>
        <pt x="322" y="715" on="0"/>
        <pt x="340" y="715" on="1"/>
        <pt x="343" y="715" on="0"/>
        <pt x="351" y="713" on="1"/>
        <pt x="587" y="125" on="1"/>
        <pt x="605" y="79" on="0"/>
        <pt x="650" y="38" on="0"/>
        <pt x="693" y="38" on="1"/>
        <pt x="700" y="29" on="0"/>
        <pt x="700" y="2" on="0"/>
        <pt x="698" y="0" on="1"/>
        <pt x="561" y="7" on="1"/>
        <pt x="415" y="0" on="1"/>
        <pt x="413" y="1" on="0"/>
        <pt x="413" y="31" on="0"/>
        <pt x="420" y="38" on="1"/>
        <pt x="496" y="38" on="0"/>
        <pt x="496" y="85" on="1"/>
        <pt x="496" y="98" on="0"/>
        <pt x="487" y="125" on="1"/>
        <pt x="448" y="230" on="1"/>
        <pt x="195" y="230" on="1"/>
        <pt x="156" y="125" on="1"/>
        <pt x="145" y="97" on="0"/>
        <pt x="145" y="80" on="1"/>
        <pt x="145" y="38" on="0"/>
        <pt x="231" y="38" on="1"/>
        <pt x="238" y="29" on="0"/>
        <pt x="238" y="2" on="0"/>
        <pt x="236" y="0" on="1"/>
      </contour>
      <contour>
        <pt x="324" y="597" on="1"/>
        <pt x="216" y="286" on="1"/>
        <pt x="427" y="286" on="1"/>
      </contour>
    </TTGlyph>
    <TTGlyph name="Acircumflex" xMin="-5" yMin="0" xMax="700" yMax="984">
      <component glyphName="A" x="0" y="0" flags="0x1004"/>
      <component glyphName="circumflex" x="152" y="214" flags="0x1004"/>
    </TTGlyph>
    <TTGlyph name="Adieresis" xMin="-5" yMin="0" xMax="700" yMax="910">
      <component glyphName="A" x="0" y="0" flags="0x1004"/>
      <component glyphName="dieresis" x="156" y="234" flags="0x1004"/>
    </TTGlyph>
    <TTGlyph name="Agrave" xMin="-5" yMin="0" xMax="700" yMax="956">
      <contour>
        <pt x="188" y="875" on="1"/>
        <pt x="187" y="878" on="0"/>
        <pt x="187" y="896" on="0"/>
        <pt x="207" y="952" on="0"/>
        <pt x="229" y="956" on="1"/>
        <pt x="279" y="890" on="0"/>
        <pt x="392" y="825" on="1"/>
        <pt x="393" y="809" on="0"/>
        <pt x="383" y="787" on="0"/>
        <pt x="378" y="785" on="1"/>
        <pt x="371" y="785" on="0"/>
        <pt x="191" y="864" on="0"/>
      </contour>
      <contour>
        <pt x="114" y="7" on="1"/>
        <pt x="-3" y="0" on="1"/>
        <pt x="-5" y="1" on="0"/>
        <pt x="-5" y="31" on="0"/>
        <pt x="2" y="38" on="1"/>
        <pt x="39" y="38" on="0"/>
        <pt x="54" y="61" on="1"/>
        <pt x="66" y="77" on="0"/>
        <pt x="85" y="125" on="1"/>
        <pt x="312" y="703" on="1"/>
        <pt x="322" y="715" on="0"/>
        <pt x="340" y="715" on="1"/>
        <pt x="343" y="715" on="0"/>
        <pt x="351" y="713" on="1"/>
        <pt x="587" y="125" on="1"/>
        <pt x="605" y="79" on="0"/>
        <pt x="650" y="38" on="0"/>
        <pt x="693" y="38" on="1"/>
        <pt x="700" y="29" on="0"/>
        <pt x="700" y="2" on="0"/>
        <pt x="698" y="0" on="1"/>
        <pt x="561" y="7" on="1"/>
        <pt x="415" y="0" on="1"/>
        <pt x="413" y="1" on="0"/>
        <pt x="413" y="31" on="0"/>
        <pt x="420" y="38" on="1"/>
        <pt x="496" y="38" on="0"/>
        <pt x="496" y="85" on="1"/>
        <pt x="496" y="98" on="0"/>
        <pt x="487" y="125" on="1"/>
        <pt x="448" y="230" on="1"/>
        <pt x="195" y="230" on="1"/>
        <pt x="156" y="125" on="1"/>
        <pt x="145" y="97" on="0"/>
        <pt x="145" y="80" on="1"/>
        <pt x="145" y="38" on="0"/>
        <pt x="231" y="38" on="1"/>
        <pt x="238" y="29" on="0"/>
        <pt x="238" y="2" on="0"/>
        <pt x="236" y="0" on="1"/>
      </contour>
      <contour>
        <pt x="324" y="597" on="1"/>
        <pt x="216" y="286" on="1"/>
        <pt x="427" y="286" on="1"/>
      </contour>
    </TTGlyph>
    <TTGlyph name="Aring" xMin="-5" yMin="0" xMax="700" yMax="984">
      <component glyphName="A" x="0" y="0" flags="0x1004"/>
      <component glyphName="ring" x="205" y="214" flags="0x1004"/>
    </TTGlyph>
    <TTGlyph name="Atilde" xMin="-5" yMin="0" xMax="700" yMax="901">
      <contour>
        <pt x="114" y="7" on="1"/>
        <pt x="-3" y="0" on="1"/>
        <pt x="-5" y="1" on="0"/>
        <pt x="-5" y="31" on="0"/>
        <pt x="2" y="38" on="1"/>
        <pt x="39" y="38" on="0"/>
        <pt x="54" y="61" on="1"/>
        <pt x="66" y="77" on="0"/>
        <pt x="85" y="125" on="1"/>
        <pt x="312" y="703" on="1"/>
        <pt x="322" y="715" on="0"/>
        <pt x="340" y="715" on="1"/>
        <pt x="343" y="715" on="0"/>
        <pt x="351" y="713" on="1"/>
        <pt x="587" y="125" on="1"/>
        <pt x="605" y="79" on="0"/>
        <pt x="650" y="38" on="0"/>
        <pt x="693" y="38" on="1"/>
        <pt x="700" y="29" on="0"/>
        <pt x="700" y="2" on="0"/>
        <pt x="698" y="0" on="1"/>
        <pt x="561" y="7" on="1"/>
        <pt x="415" y="0" on="1"/>
        <pt x="413" y="1" on="0"/>
        <pt x="413" y="31" on="0"/>
        <pt x="420" y="38" on="1"/>
        <pt x="496" y="38" on="0"/>
        <pt x="496" y="85" on="1"/>
        <pt x="496" y="98" on="0"/>
        <pt x="487" y="125" on="1"/>
        <pt x="448" y="230" on="1"/>
        <pt x="195" y="230" on="1"/>
        <pt x="156" y="125" on="1"/>
        <pt x="145" y="97" on="0"/>
        <pt x="145" y="80" on="1"/>
        <pt x="145" y="38" on="0"/>
        <pt x="231" y="38" on="1"/>
        <pt x="238" y="29" on="0"/>
        <pt x="238" y="2" on="0"/>
        <pt x="236" y="0" on="1"/>
      </contour>
      <contour>
        <pt x="324" y="597" on="1"/>
        <pt x="216" y="286" on="1"/>
        <pt x="427" y="286" on="1"/>
      </contour>
      <contour>
        <pt x="481" y="837" on="0"/>
        <pt x="417" y="801" on="0"/>
        <pt x="361" y="801" on="0"/>
        <pt x="276" y="845" on="0"/>
        <pt x="259" y="845" on="1"/>
        <pt x="228" y="845" on="0"/>
        <pt x="192" y="809" on="1"/>
        <pt x="177" y="812" on="0"/>
        <pt x="177" y="842" on="1"/>
        <pt x="178" y="848" on="1"/>
        <pt x="193" y="865" on="0"/>
        <pt x="260" y="901" on="0"/>
        <pt x="318" y="901" on="0"/>
        <pt x="398" y="858" on="0"/>
        <pt x="416" y="858" on="1"/>
        <pt x="447" y="858" on="0"/>
        <pt x="483" y="894" on="1"/>
        <pt x="498" y="891" on="0"/>
        <pt x="498" y="862" on="1"/>
        <pt x="497" y="855" on="1"/>
      </contour>
    </TTGlyph>
    <TTGlyph name="B" xMin="42" yMin="0" xMax="542" yMax="703">
      <contour>
        <pt x="146" y="697" on="1"/>
        <pt x="286" y="703" on="1"/>
        <pt x="379" y="703" on="0"/>
        <pt x="496" y="615" on="0"/>
        <pt x="496" y="538" on="1"/>
        <pt x="496" y="424" on="0"/>
        <pt x="349" y="379" on="1"/>
        <pt x="431" y="379" on="0"/>
        <pt x="542" y="277" on="0"/>
        <pt x="542" y="197" on="1"/>
        <pt x="542" y="0" on="0"/>
        <pt x="286" y="0" on="1"/>
        <pt x="165" y="6" on="1"/>
        <pt x="45" y="0" on="1"/>
        <pt x="42" y="3" on="0"/>
        <pt x="42" y="32" on="0"/>
        <pt x="48" y="38" on="1"/>
        <pt x="84" y="38" on="0"/>
        <pt x="115" y="63" on="0"/>
        <pt x="115" y="90" on="1"/>
        <pt x="120" y="614" on="1"/>
        <pt x="120" y="641" on="0"/>
        <pt x="90" y="665" on="0"/>
        <pt x="53" y="665" on="1"/>
        <pt x="47" y="670" on="0"/>
        <pt x="47" y="701" on="0"/>
        <pt x="49" y="703" on="1"/>
      </contour>
      <contour>
        <pt x="238" y="389" on="1"/>
        <pt x="316" y="389" on="0"/>
        <pt x="413" y="460" on="0"/>
        <pt x="413" y="524" on="1"/>
        <pt x="413" y="652" on="0"/>
        <pt x="249" y="652" on="1"/>
        <pt x="217" y="652" on="0"/>
        <pt x="181" y="646" on="1"/>
        <pt x="193" y="389" on="1"/>
      </contour>
      <contour>
        <pt x="289" y="56" on="1"/>
        <pt x="362" y="56" on="0"/>
        <pt x="452" y="128" on="0"/>
        <pt x="452" y="264" on="0"/>
        <pt x="342" y="335" on="0"/>
        <pt x="263" y="335" on="1"/>
        <pt x="232" y="335" on="0"/>
        <pt x="196" y="329" on="1"/>
        <pt x="205" y="131" on="1"/>
        <pt x="207" y="87" on="0"/>
        <pt x="243" y="56" on="0"/>
      </contour>
    </TTGlyph>
    <TTGlyph name="C" xMin="53" yMin="-10" xMax="578" yMax="717">
      <contour>
        <pt x="318" y="-10" on="1"/>
        <pt x="195" y="-10" on="0"/>
        <pt x="53" y="200" on="0"/>
        <pt x="53" y="508" on="0"/>
        <pt x="211" y="713" on="0"/>
        <pt x="347" y="713" on="1"/>
        <pt x="428" y="713" on="0"/>
        <pt x="489" y="680" on="1"/>
        <pt x="493" y="678" on="0"/>
        <pt x="501" y="678" on="0"/>
        <pt x="502" y="689" on="1"/>
        <pt x="504" y="713" on="1"/>
        <pt x="508" y="717" on="0"/>
        <pt x="536" y="717" on="0"/>
        <pt x="542" y="713" on="1"/>
        <pt x="556" y="504" on="1"/>
        <pt x="552" y="500" on="0"/>
        <pt x="521" y="500" on="0"/>
        <pt x="518" y="504" on="1"/>
        <pt x="509" y="573" on="0"/>
        <pt x="407" y="654" on="0"/>
        <pt x="340" y="654" on="1"/>
        <pt x="239" y="654" on="0"/>
        <pt x="142" y="508" on="0"/>
        <pt x="142" y="385" on="1"/>
        <pt x="142" y="204" on="0"/>
        <pt x="234" y="110" on="1"/>
        <pt x="283" y="59" on="0"/>
        <pt x="400" y="59" on="0"/>
        <pt x="524" y="103" on="0"/>
        <pt x="561" y="134" on="1"/>
        <pt x="565" y="130" on="0"/>
        <pt x="578" y="105" on="0"/>
        <pt x="578" y="97" on="0"/>
        <pt x="575" y="94" on="1"/>
        <pt x="471" y="-10" on="0"/>
      </contour>
    </TTGlyph>
    <TTGlyph name="Ccedilla" xMin="53" yMin="-235" xMax="578" yMax="717">
      <contour>
        <pt x="318" y="-10" on="1"/>
        <pt x="195" y="-10" on="0"/>
        <pt x="53" y="200" on="0"/>
        <pt x="53" y="508" on="0"/>
        <pt x="211" y="713" on="0"/>
        <pt x="347" y="713" on="1"/>
        <pt x="428" y="713" on="0"/>
        <pt x="489" y="680" on="1"/>
        <pt x="493" y="678" on="0"/>
        <pt x="501" y="678" on="0"/>
        <pt x="502" y="689" on="1"/>
        <pt x="504" y="713" on="1"/>
        <pt x="508" y="717" on="0"/>
        <pt x="536" y="717" on="0"/>
        <pt x="542" y="713" on="1"/>
        <pt x="556" y="504" on="1"/>
        <pt x="552" y="500" on="0"/>
        <pt x="521" y="500" on="0"/>
        <pt x="518" y="504" on="1"/>
        <pt x="509" y="573" on="0"/>
        <pt x="407" y="654" on="0"/>
        <pt x="340" y="654" on="1"/>
        <pt x="239" y="654" on="0"/>
        <pt x="142" y="508" on="0"/>
        <pt x="142" y="385" on="1"/>
        <pt x="142" y="204" on="0"/>
        <pt x="234" y="110" on="1"/>
        <pt x="283" y="59" on="0"/>
        <pt x="400" y="59" on="0"/>
        <pt x="524" y="103" on="0"/>
        <pt x="561" y="134" on="1"/>
        <pt x="565" y="130" on="0"/>
        <pt x="578" y="105" on="0"/>
        <pt x="578" y="97" on="0"/>
        <pt x="575" y="94" on="1"/>
        <pt x="471" y="-10" on="0"/>
      </contour>
      <contour>
        <pt x="346" y="-206" on="0"/>
        <pt x="373" y="-168" on="0"/>
        <pt x="373" y="-137" on="0"/>
        <pt x="370" y="-124" on="0"/>
        <pt x="367" y="-114" on="0"/>
        <pt x="362" y="-108" on="1"/>
        <pt x="352" y="-96" on="0"/>
        <pt x="336" y="-83" on="0"/>
        <pt x="330" y="-78" on="0"/>
        <pt x="309" y="-63" on="0"/>
        <pt x="300" y="-57" on="0"/>
        <pt x="300" y="-45" on="0"/>
        <pt x="305" y="-35" on="1"/>
        <pt x="336" y="29" on="1"/>
        <pt x="371" y="29" on="1"/>
        <pt x="339" y="-35" on="0"/>
        <pt x="339" y="-42" on="0"/>
        <pt x="344" y="-46" on="1"/>
        <pt x="419" y="-96" on="0"/>
        <pt x="419" y="-149" on="1"/>
        <pt x="419" y="-185" on="0"/>
        <pt x="367" y="-235" on="0"/>
        <pt x="299" y="-235" on="0"/>
        <pt x="250" y="-202" on="0"/>
        <pt x="250" y="-171" on="1"/>
        <pt x="250" y="-159" on="0"/>
        <pt x="263" y="-144" on="0"/>
        <pt x="274" y="-144" on="1"/>
        <pt x="301" y="-144" on="0"/>
        <pt x="301" y="-165" on="1"/>
        <pt x="301" y="-173" on="0"/>
        <pt x="290" y="-187" on="0"/>
        <pt x="290" y="-188" on="1"/>
        <pt x="290" y="-196" on="0"/>
        <pt x="311" y="-206" on="0"/>
      </contour>
    </TTGlyph>
    <TTGlyph name="D" xMin="42" yMin="0" xMax="607" yMax="703">
      <contour>
        <pt x="165" y="697" on="1"/>
        <pt x="286" y="703" on="1"/>
        <pt x="438" y="703" on="0"/>
        <pt x="607" y="511" on="0"/>
        <pt x="607" y="199" on="0"/>
        <pt x="433" y="0" on="0"/>
        <pt x="286" y="0" on="1"/>
        <pt x="165" y="6" on="1"/>
        <pt x="45" y="0" on="1"/>
        <pt x="42" y="3" on="0"/>
        <pt x="42" y="32" on="0"/>
        <pt x="48" y="38" on="1"/>
        <pt x="115" y="38" on="0"/>
        <pt x="115" y="90" on="1"/>
        <pt x="120" y="614" on="1"/>
        <pt x="120" y="641" on="0"/>
        <pt x="90" y="665" on="0"/>
        <pt x="53" y="665" on="1"/>
        <pt x="47" y="670" on="0"/>
        <pt x="47" y="701" on="0"/>
        <pt x="49" y="703" on="1"/>
        <pt x="49" y="703" on="0"/>
      </contour>
      <contour>
        <pt x="289" y="56" on="1"/>
        <pt x="389" y="56" on="0"/>
        <pt x="519" y="218" on="0"/>
        <pt x="519" y="324" on="1"/>
        <pt x="519" y="471" on="0"/>
        <pt x="383" y="652" on="0"/>
        <pt x="249" y="652" on="1"/>
        <pt x="218" y="652" on="0"/>
        <pt x="182" y="646" on="1"/>
        <pt x="205" y="131" on="1"/>
        <pt x="207" y="88" on="0"/>
        <pt x="245" y="56" on="0"/>
      </contour>
    </TTGlyph>
    <TTGlyph name="E" xMin="40" yMin="-10" xMax="582" yMax="713">
      <contour>
        <pt x="309" y="383" on="1"/>
        <pt x="352" y="383" on="0"/>
        <pt x="364" y="422" on="1"/>
        <pt x="368" y="437" on="0"/>
        <pt x="374" y="473" on="1"/>
        <pt x="378" y="477" on="0"/>
        <pt x="406" y="477" on="0"/>
        <pt x="412" y="473" on="1"/>
        <pt x="404" y="412" on="0"/>
        <pt x="404" y="301" on="0"/>
        <pt x="412" y="240" on="1"/>
        <pt x="408" y="236" on="0"/>
        <pt x="377" y="236" on="0"/>
        <pt x="374" y="240" on="1"/>
        <pt x="368" y="274" on="0"/>
        <pt x="359" y="303" on="0"/>
        <pt x="333" y="326" on="0"/>
        <pt x="309" y="326" on="1"/>
        <pt x="198" y="326" on="1"/>
        <pt x="204" y="131" on="1"/>
        <pt x="206" y="89" on="0"/>
        <pt x="233" y="56" on="0"/>
        <pt x="270" y="56" on="1"/>
        <pt x="405" y="56" on="1"/>
        <pt x="451" y="56" on="0"/>
        <pt x="514" y="119" on="0"/>
        <pt x="544" y="186" on="1"/>
        <pt x="546" y="188" on="0"/>
        <pt x="573" y="188" on="0"/>
        <pt x="582" y="179" on="1"/>
        <pt x="530" y="-10" on="1"/>
        <pt x="403" y="3" on="0"/>
        <pt x="126" y="3" on="0"/>
        <pt x="43" y="0" on="1"/>
        <pt x="40" y="3" on="0"/>
        <pt x="40" y="32" on="0"/>
        <pt x="46" y="38" on="1"/>
        <pt x="82" y="38" on="0"/>
        <pt x="112" y="63" on="0"/>
        <pt x="113" y="90" on="1"/>
        <pt x="122" y="613" on="1"/>
        <pt x="122" y="640" on="0"/>
        <pt x="91" y="665" on="0"/>
        <pt x="55" y="665" on="1"/>
        <pt x="48" y="670" on="0"/>
        <pt x="48" y="701" on="0"/>
        <pt x="50" y="703" on="1"/>
        <pt x="134" y="700" on="0"/>
        <pt x="382" y="700" on="0"/>
        <pt x="512" y="713" on="1"/>
        <pt x="526" y="537" on="1"/>
        <pt x="522" y="533" on="0"/>
        <pt x="490" y="533" on="0"/>
        <pt x="487" y="537" on="1"/>
        <pt x="478" y="600" on="0"/>
        <pt x="430" y="643" on="0"/>
        <pt x="377" y="643" on="1"/>
        <pt x="189" y="643" on="1"/>
        <pt x="197" y="383" on="1"/>
      </contour>
    </TTGlyph>
    <TTGlyph name="Eacute" xMin="40" yMin="-10" xMax="582" yMax="956">
      <contour>
        <pt x="224" y="820" on="1"/>
        <pt x="224" y="825" on="1"/>
        <pt x="337" y="890" on="0"/>
        <pt x="387" y="956" on="1"/>
        <pt x="409" y="952" on="0"/>
        <pt x="429" y="896" on="0"/>
        <pt x="429" y="878" on="0"/>
        <pt x="428" y="875" on="1"/>
        <pt x="425" y="864" on="0"/>
        <pt x="245" y="785" on="0"/>
        <pt x="238" y="785" on="1"/>
        <pt x="224" y="791" on="0"/>
      </contour>
      <contour>
        <pt x="309" y="383" on="1"/>
        <pt x="352" y="383" on="0"/>
        <pt x="364" y="422" on="1"/>
        <pt x="368" y="437" on="0"/>
        <pt x="374" y="473" on="1"/>
        <pt x="378" y="477" on="0"/>
        <pt x="406" y="477" on="0"/>
        <pt x="412" y="473" on="1"/>
        <pt x="404" y="412" on="0"/>
        <pt x="404" y="301" on="0"/>
        <pt x="412" y="240" on="1"/>
        <pt x="408" y="236" on="0"/>
        <pt x="377" y="236" on="0"/>
        <pt x="374" y="240" on="1"/>
        <pt x="368" y="274" on="0"/>
        <pt x="359" y="303" on="0"/>
        <pt x="333" y="326" on="0"/>
        <pt x="309" y="326" on="1"/>
        <pt x="198" y="326" on="1"/>
        <pt x="204" y="131" on="1"/>
        <pt x="206" y="89" on="0"/>
        <pt x="233" y="56" on="0"/>
        <pt x="270" y="56" on="1"/>
        <pt x="405" y="56" on="1"/>
        <pt x="451" y="56" on="0"/>
        <pt x="514" y="119" on="0"/>
        <pt x="544" y="186" on="1"/>
        <pt x="546" y="188" on="0"/>
        <pt x="573" y="188" on="0"/>
        <pt x="582" y="179" on="1"/>
        <pt x="530" y="-10" on="1"/>
        <pt x="403" y="3" on="0"/>
        <pt x="126" y="3" on="0"/>
        <pt x="43" y="0" on="1"/>
        <pt x="40" y="3" on="0"/>
        <pt x="40" y="32" on="0"/>
        <pt x="46" y="38" on="1"/>
        <pt x="82" y="38" on="0"/>
        <pt x="112" y="63" on="0"/>
        <pt x="113" y="90" on="1"/>
        <pt x="122" y="613" on="1"/>
        <pt x="122" y="640" on="0"/>
        <pt x="91" y="665" on="0"/>
        <pt x="55" y="665" on="1"/>
        <pt x="48" y="670" on="0"/>
        <pt x="48" y="701" on="0"/>
        <pt x="50" y="703" on="1"/>
        <pt x="134" y="700" on="0"/>
        <pt x="382" y="700" on="0"/>
        <pt x="512" y="713" on="1"/>
        <pt x="526" y="537" on="1"/>
        <pt x="522" y="533" on="0"/>
        <pt x="490" y="533" on="0"/>
        <pt x="487" y="537" on="1"/>
        <pt x="478" y="600" on="0"/>
        <pt x="430" y="643" on="0"/>
        <pt x="377" y="643" on="1"/>
        <pt x="189" y="643" on="1"/>
        <pt x="197" y="383" on="1"/>
      </contour>
    </TTGlyph>
    <TTGlyph name="Ecircumflex" xMin="40" yMin="-10" xMax="582" yMax="984">
      <component glyphName="E" x="0" y="0" flags="0x1004"/>
      <component glyphName="circumflex" x="114" y="214" flags="0x1004"/>
    </TTGlyph>
    <TTGlyph name="Edieresis" xMin="40" yMin="-10" xMax="582" yMax="910">
      <contour>
        <pt x="309" y="383" on="1"/>
        <pt x="352" y="383" on="0"/>
        <pt x="364" y="422" on="1"/>
        <pt x="368" y="437" on="0"/>
        <pt x="374" y="473" on="1"/>
        <pt x="378" y="477" on="0"/>
        <pt x="406" y="477" on="0"/>
        <pt x="412" y="473" on="1"/>
        <pt x="404" y="412" on="0"/>
        <pt x="404" y="301" on="0"/>
        <pt x="412" y="240" on="1"/>
        <pt x="408" y="236" on="0"/>
        <pt x="377" y="236" on="0"/>
        <pt x="374" y="240" on="1"/>
        <pt x="368" y="274" on="0"/>
        <pt x="359" y="303" on="0"/>
        <pt x="333" y="326" on="0"/>
        <pt x="309" y="326" on="1"/>
        <pt x="198" y="326" on="1"/>
        <pt x="204" y="131" on="1"/>
        <pt x="206" y="89" on="0"/>
        <pt x="233" y="56" on="0"/>
        <pt x="270" y="56" on="1"/>
        <pt x="405" y="56" on="1"/>
        <pt x="451" y="56" on="0"/>
        <pt x="514" y="119" on="0"/>
        <pt x="544" y="186" on="1"/>
        <pt x="546" y="188" on="0"/>
        <pt x="573" y="188" on="0"/>
        <pt x="582" y="179" on="1"/>
        <pt x="530" y="-10" on="1"/>
        <pt x="403" y="3" on="0"/>
        <pt x="126" y="3" on="0"/>
        <pt x="43" y="0" on="1"/>
        <pt x="40" y="3" on="0"/>
        <pt x="40" y="32" on="0"/>
        <pt x="46" y="38" on="1"/>
        <pt x="82" y="38" on="0"/>
        <pt x="112" y="63" on="0"/>
        <pt x="113" y="90" on="1"/>
        <pt x="122" y="613" on="1"/>
        <pt x="122" y="640" on="0"/>
        <pt x="91" y="665" on="0"/>
        <pt x="55" y="665" on="1"/>
        <pt x="48" y="670" on="0"/>
        <pt x="48" y="701" on="0"/>
        <pt x="50" y="703" on="1"/>
        <pt x="134" y="700" on="0"/>
        <pt x="382" y="700" on="0"/>
        <pt x="512" y="713" on="1"/>
        <pt x="526" y="537" on="1"/>
        <pt x="522" y="533" on="0"/>
        <pt x="490" y="533" on="0"/>
        <pt x="487" y="537" on="1"/>
        <pt x="478" y="600" on="0"/>
        <pt x="430" y="643" on="0"/>
        <pt x="377" y="643" on="1"/>
        <pt x="189" y="643" on="1"/>
        <pt x="197" y="383" on="1"/>
      </contour>
      <contour>
        <pt x="155" y="833" on="0"/>
        <pt x="155" y="879" on="0"/>
        <pt x="181" y="910" on="0"/>
        <pt x="225" y="910" on="0"/>
        <pt x="258" y="879" on="0"/>
        <pt x="258" y="858" on="1"/>
        <pt x="258" y="807" on="0"/>
        <pt x="206" y="805" on="1"/>
        <pt x="183" y="805" on="0"/>
      </contour>
      <contour>
        <pt x="334" y="833" on="0"/>
        <pt x="334" y="879" on="0"/>
        <pt x="360" y="910" on="0"/>
        <pt x="404" y="910" on="0"/>
        <pt x="437" y="879" on="0"/>
        <pt x="437" y="858" on="1"/>
        <pt x="437" y="807" on="0"/>
        <pt x="385" y="805" on="1"/>
        <pt x="362" y="805" on="0"/>
      </contour>
    </TTGlyph>
    <TTGlyph name="Egrave" xMin="40" yMin="-10" xMax="582" yMax="956">
      <contour>
        <pt x="148" y="875" on="1"/>
        <pt x="147" y="878" on="0"/>
        <pt x="147" y="896" on="0"/>
        <pt x="167" y="952" on="0"/>
        <pt x="189" y="956" on="1"/>
        <pt x="239" y="890" on="0"/>
        <pt x="352" y="825" on="1"/>
        <pt x="353" y="809" on="0"/>
        <pt x="343" y="787" on="0"/>
        <pt x="338" y="785" on="1"/>
        <pt x="331" y="785" on="0"/>
        <pt x="151" y="864" on="0"/>
      </contour>
      <contour>
        <pt x="309" y="383" on="1"/>
        <pt x="352" y="383" on="0"/>
        <pt x="364" y="422" on="1"/>
        <pt x="368" y="437" on="0"/>
        <pt x="374" y="473" on="1"/>
        <pt x="378" y="477" on="0"/>
        <pt x="406" y="477" on="0"/>
        <pt x="412" y="473" on="1"/>
        <pt x="404" y="412" on="0"/>
        <pt x="404" y="301" on="0"/>
        <pt x="412" y="240" on="1"/>
        <pt x="408" y="236" on="0"/>
        <pt x="377" y="236" on="0"/>
        <pt x="374" y="240" on="1"/>
        <pt x="368" y="274" on="0"/>
        <pt x="359" y="303" on="0"/>
        <pt x="333" y="326" on="0"/>
        <pt x="309" y="326" on="1"/>
        <pt x="198" y="326" on="1"/>
        <pt x="204" y="131" on="1"/>
        <pt x="206" y="89" on="0"/>
        <pt x="233" y="56" on="0"/>
        <pt x="270" y="56" on="1"/>
        <pt x="405" y="56" on="1"/>
        <pt x="451" y="56" on="0"/>
        <pt x="514" y="119" on="0"/>
        <pt x="544" y="186" on="1"/>
        <pt x="546" y="188" on="0"/>
        <pt x="573" y="188" on="0"/>
        <pt x="582" y="179" on="1"/>
        <pt x="530" y="-10" on="1"/>
        <pt x="403" y="3" on="0"/>
        <pt x="126" y="3" on="0"/>
        <pt x="43" y="0" on="1"/>
        <pt x="40" y="3" on="0"/>
        <pt x="40" y="32" on="0"/>
        <pt x="46" y="38" on="1"/>
        <pt x="82" y="38" on="0"/>
        <pt x="112" y="63" on="0"/>
        <pt x="113" y="90" on="1"/>
        <pt x="122" y="613" on="1"/>
        <pt x="122" y="640" on="0"/>
        <pt x="91" y="665" on="0"/>
        <pt x="55" y="665" on="1"/>
        <pt x="48" y="670" on="0"/>
        <pt x="48" y="701" on="0"/>
        <pt x="50" y="703" on="1"/>
        <pt x="134" y="700" on="0"/>
        <pt x="382" y="700" on="0"/>
        <pt x="512" y="713" on="1"/>
        <pt x="526" y="537" on="1"/>
        <pt x="522" y="533" on="0"/>
        <pt x="490" y="533" on="0"/>
        <pt x="487" y="537" on="1"/>
        <pt x="478" y="600" on="0"/>
        <pt x="430" y="643" on="0"/>
        <pt x="377" y="643" on="1"/>
        <pt x="189" y="643" on="1"/>
        <pt x="197" y="383" on="1"/>
      </contour>
    </TTGlyph>
    <TTGlyph name="Eth" xMin="14" yMin="0" xMax="616" yMax="703">
      <contour>
        <pt x="174" y="697" on="1"/>
        <pt x="295" y="703" on="1"/>
        <pt x="447" y="703" on="0"/>
        <pt x="616" y="511" on="0"/>
        <pt x="616" y="199" on="0"/>
        <pt x="442" y="0" on="0"/>
        <pt x="295" y="0" on="1"/>
        <pt x="174" y="6" on="1"/>
        <pt x="54" y="0" on="1"/>
        <pt x="51" y="3" on="0"/>
        <pt x="51" y="32" on="0"/>
        <pt x="57" y="38" on="1"/>
        <pt x="124" y="38" on="0"/>
        <pt x="124" y="90" on="1"/>
        <pt x="126" y="335" on="1"/>
        <pt x="30" y="333" on="0"/>
        <pt x="23" y="333" on="1"/>
        <pt x="14" y="355" on="0"/>
        <pt x="14" y="389" on="0"/>
        <pt x="20" y="396" on="1"/>
        <pt x="34" y="394" on="0"/>
        <pt x="127" y="394" on="1"/>
        <pt x="129" y="614" on="1"/>
        <pt x="129" y="641" on="0"/>
        <pt x="99" y="665" on="0"/>
        <pt x="62" y="665" on="1"/>
        <pt x="56" y="670" on="0"/>
        <pt x="56" y="701" on="0"/>
        <pt x="58" y="703" on="1"/>
      </contour>
      <contour>
        <pt x="298" y="56" on="1"/>
        <pt x="398" y="56" on="0"/>
        <pt x="528" y="218" on="0"/>
        <pt x="528" y="324" on="1"/>
        <pt x="528" y="471" on="0"/>
        <pt x="392" y="652" on="0"/>
        <pt x="258" y="652" on="1"/>
        <pt x="227" y="652" on="0"/>
        <pt x="191" y="646" on="1"/>
        <pt x="202" y="394" on="1"/>
        <pt x="347" y="394" on="0"/>
        <pt x="367" y="396" on="1"/>
        <pt x="372" y="378" on="0"/>
        <pt x="372" y="341" on="0"/>
        <pt x="364" y="333" on="1"/>
        <pt x="324" y="335" on="0"/>
        <pt x="205" y="335" on="1"/>
        <pt x="214" y="131" on="1"/>
        <pt x="215" y="89" on="0"/>
        <pt x="254" y="56" on="0"/>
      </contour>
    </TTGlyph>
    <TTGlyph name="Euro" xMin="35" yMin="-10" xMax="569" yMax="714">
      <contour>
        <pt x="117" y="368" on="1"/>
        <pt x="44" y="367" on="1"/>
        <pt x="35" y="389" on="0"/>
        <pt x="35" y="423" on="0"/>
        <pt x="41" y="430" on="1"/>
        <pt x="65" y="428" on="0"/>
        <pt x="122" y="428" on="1"/>
        <pt x="140" y="548" on="0"/>
        <pt x="275" y="713" on="0"/>
        <pt x="383" y="713" on="1"/>
        <pt x="444" y="713" on="0"/>
        <pt x="482" y="687" on="1"/>
        <pt x="486" y="684" on="0"/>
        <pt x="493" y="684" on="0"/>
        <pt x="493" y="689" on="1"/>
        <pt x="495" y="710" on="1"/>
        <pt x="499" y="714" on="0"/>
        <pt x="527" y="714" on="0"/>
        <pt x="533" y="710" on="1"/>
        <pt x="544" y="521" on="1"/>
        <pt x="540" y="517" on="0"/>
        <pt x="509" y="517" on="0"/>
        <pt x="506" y="521" on="1"/>
        <pt x="486" y="655" on="0"/>
        <pt x="368" y="655" on="1"/>
        <pt x="245" y="655" on="0"/>
        <pt x="221" y="428" on="1"/>
        <pt x="254" y="428" on="1"/>
        <pt x="443" y="428" on="0"/>
        <pt x="468" y="430" on="1"/>
        <pt x="473" y="412" on="0"/>
        <pt x="473" y="375" on="0"/>
        <pt x="465" y="367" on="1"/>
        <pt x="415" y="369" on="0"/>
        <pt x="254" y="369" on="1"/>
        <pt x="217" y="369" on="1"/>
        <pt x="216" y="354" on="0"/>
        <pt x="216" y="327" on="1"/>
        <pt x="216" y="299" on="1"/>
        <pt x="254" y="299" on="1"/>
        <pt x="443" y="299" on="0"/>
        <pt x="468" y="301" on="1"/>
        <pt x="473" y="283" on="0"/>
        <pt x="473" y="246" on="0"/>
        <pt x="465" y="238" on="1"/>
        <pt x="415" y="240" on="0"/>
        <pt x="254" y="240" on="1"/>
        <pt x="223" y="240" on="1"/>
        <pt x="238" y="147" on="0"/>
        <pt x="328" y="48" on="0"/>
        <pt x="384" y="48" on="1"/>
        <pt x="419" y="48" on="0"/>
        <pt x="484" y="70" on="0"/>
        <pt x="521" y="93" on="0"/>
        <pt x="553" y="117" on="1"/>
        <pt x="569" y="109" on="0"/>
        <pt x="569" y="79" on="1"/>
        <pt x="482" y="-10" on="0"/>
        <pt x="282" y="-10" on="0"/>
        <pt x="148" y="117" on="0"/>
        <pt x="126" y="239" on="1"/>
        <pt x="44" y="238" on="1"/>
        <pt x="35" y="260" on="0"/>
        <pt x="35" y="294" on="0"/>
        <pt x="41" y="301" on="1"/>
        <pt x="65" y="299" on="0"/>
        <pt x="119" y="299" on="1"/>
        <pt x="117" y="316" on="0"/>
        <pt x="117" y="354" on="1"/>
      </contour>
    </TTGlyph>
    <TTGlyph name="F" xMin="42" yMin="0" xMax="517" yMax="713">
      <contour>
        <pt x="165" y="4" on="1"/>
        <pt x="45" y="0" on="1"/>
        <pt x="42" y="3" on="0"/>
        <pt x="42" y="32" on="0"/>
        <pt x="48" y="38" on="1"/>
        <pt x="115" y="38" on="0"/>
        <pt x="115" y="90" on="1"/>
        <pt x="120" y="613" on="1"/>
        <pt x="120" y="640" on="0"/>
        <pt x="90" y="665" on="0"/>
        <pt x="53" y="665" on="1"/>
        <pt x="45" y="673" on="0"/>
        <pt x="45" y="701" on="0"/>
        <pt x="47" y="703" on="1"/>
        <pt x="131" y="700" on="0"/>
        <pt x="364" y="700" on="0"/>
        <pt x="494" y="713" on="1"/>
        <pt x="517" y="528" on="1"/>
        <pt x="513" y="524" on="0"/>
        <pt x="482" y="524" on="0"/>
        <pt x="479" y="528" on="1"/>
        <pt x="470" y="590" on="0"/>
        <pt x="412" y="643" on="0"/>
        <pt x="359" y="643" on="1"/>
        <pt x="186" y="643" on="1"/>
        <pt x="194" y="383" on="1"/>
        <pt x="308" y="383" on="1"/>
        <pt x="351" y="383" on="0"/>
        <pt x="362" y="422" on="1"/>
        <pt x="367" y="437" on="0"/>
        <pt x="373" y="473" on="1"/>
        <pt x="377" y="477" on="0"/>
        <pt x="405" y="477" on="0"/>
        <pt x="411" y="473" on="1"/>
        <pt x="403" y="409" on="0"/>
        <pt x="403" y="304" on="0"/>
        <pt x="411" y="240" on="1"/>
        <pt x="407" y="236" on="0"/>
        <pt x="376" y="236" on="0"/>
        <pt x="373" y="240" on="1"/>
        <pt x="367" y="274" on="0"/>
        <pt x="358" y="303" on="0"/>
        <pt x="332" y="326" on="0"/>
        <pt x="308" y="326" on="1"/>
        <pt x="195" y="326" on="1"/>
        <pt x="206" y="90" on="1"/>
        <pt x="208" y="62" on="0"/>
        <pt x="235" y="38" on="0"/>
        <pt x="272" y="38" on="1"/>
        <pt x="277" y="33" on="0"/>
        <pt x="277" y="2" on="0"/>
        <pt x="275" y="0" on="1"/>
      </contour>
    </TTGlyph>
    <TTGlyph name="G" xMin="52" yMin="-10" xMax="676" yMax="713">
      <contour>
        <pt x="505" y="120" on="1"/>
        <pt x="506" y="197" on="1"/>
        <pt x="506" y="247" on="0"/>
        <pt x="461" y="278" on="0"/>
        <pt x="371" y="285" on="1"/>
        <pt x="367" y="288" on="0"/>
        <pt x="367" y="320" on="0"/>
        <pt x="371" y="324" on="1"/>
        <pt x="427" y="320" on="0"/>
        <pt x="615" y="320" on="0"/>
        <pt x="672" y="324" on="1"/>
        <pt x="676" y="318" on="0"/>
        <pt x="676" y="289" on="0"/>
        <pt x="672" y="285" on="1"/>
        <pt x="618" y="279" on="0"/>
        <pt x="594" y="251" on="0"/>
        <pt x="594" y="211" on="1"/>
        <pt x="594" y="68" on="1"/>
        <pt x="534" y="28" on="0"/>
        <pt x="429" y="-10" on="0"/>
        <pt x="349" y="-10" on="1"/>
        <pt x="205" y="-10" on="0"/>
        <pt x="52" y="195" on="0"/>
        <pt x="52" y="505" on="0"/>
        <pt x="228" y="713" on="0"/>
        <pt x="378" y="713" on="1"/>
        <pt x="465" y="713" on="0"/>
        <pt x="529" y="680" on="1"/>
        <pt x="533" y="678" on="0"/>
        <pt x="540" y="678" on="0"/>
        <pt x="541" y="687" on="1"/>
        <pt x="544" y="709" on="1"/>
        <pt x="548" y="713" on="0"/>
        <pt x="576" y="713" on="0"/>
        <pt x="582" y="709" on="1"/>
        <pt x="596" y="513" on="1"/>
        <pt x="592" y="509" on="0"/>
        <pt x="561" y="509" on="0"/>
        <pt x="558" y="513" on="1"/>
        <pt x="549" y="582" on="0"/>
        <pt x="449" y="654" on="0"/>
        <pt x="380" y="654" on="1"/>
        <pt x="142" y="654" on="0"/>
        <pt x="142" y="385" on="1"/>
        <pt x="142" y="309" on="0"/>
        <pt x="193" y="163" on="0"/>
        <pt x="300" y="59" on="0"/>
        <pt x="440" y="59" on="0"/>
        <pt x="504" y="85" on="1"/>
        <pt x="505" y="87" on="0"/>
      </contour>
    </TTGlyph>
    <TTGlyph name="H" xMin="39" yMin="0" xMax="706" yMax="703">
      <contour>
        <pt x="588" y="697" on="1"/>
        <pt x="684" y="703" on="1"/>
        <pt x="687" y="700" on="0"/>
        <pt x="687" y="670" on="0"/>
        <pt x="682" y="665" on="1"/>
        <pt x="614" y="665" on="0"/>
        <pt x="616" y="618" on="1"/>
        <pt x="635" y="90" on="1"/>
        <pt x="636" y="63" on="0"/>
        <pt x="665" y="38" on="0"/>
        <pt x="701" y="38" on="1"/>
        <pt x="706" y="33" on="0"/>
        <pt x="706" y="2" on="0"/>
        <pt x="704" y="0" on="1"/>
        <pt x="592" y="6" on="1"/>
        <pt x="474" y="0" on="1"/>
        <pt x="471" y="3" on="0"/>
        <pt x="471" y="32" on="0"/>
        <pt x="477" y="38" on="1"/>
        <pt x="513" y="38" on="0"/>
        <pt x="544" y="63" on="0"/>
        <pt x="544" y="90" on="1"/>
        <pt x="546" y="337" on="1"/>
        <pt x="196" y="337" on="1"/>
        <pt x="203" y="90" on="1"/>
        <pt x="204" y="63" on="0"/>
        <pt x="233" y="38" on="0"/>
        <pt x="269" y="38" on="1"/>
        <pt x="274" y="33" on="0"/>
        <pt x="274" y="2" on="0"/>
        <pt x="272" y="0" on="1"/>
        <pt x="161" y="6" on="1"/>
        <pt x="42" y="0" on="1"/>
        <pt x="39" y="3" on="0"/>
        <pt x="39" y="32" on="0"/>
        <pt x="45" y="38" on="1"/>
        <pt x="81" y="38" on="0"/>
        <pt x="111" y="63" on="0"/>
        <pt x="112" y="90" on="1"/>
        <pt x="123" y="613" on="1"/>
        <pt x="124" y="640" on="0"/>
        <pt x="92" y="665" on="0"/>
        <pt x="56" y="665" on="1"/>
        <pt x="49" y="670" on="0"/>
        <pt x="49" y="701" on="0"/>
        <pt x="51" y="703" on="1"/>
        <pt x="163" y="697" on="1"/>
        <pt x="259" y="703" on="1"/>
        <pt x="262" y="700" on="0"/>
        <pt x="262" y="670" on="0"/>
        <pt x="257" y="665" on="1"/>
        <pt x="220" y="665" on="0"/>
        <pt x="190" y="640" on="0"/>
        <pt x="191" y="613" on="1"/>
        <pt x="195" y="395" on="1"/>
        <pt x="546" y="395" on="1"/>
        <pt x="548" y="613" on="1"/>
        <pt x="548" y="640" on="0"/>
        <pt x="517" y="665" on="0"/>
        <pt x="481" y="665" on="1"/>
        <pt x="474" y="670" on="0"/>
        <pt x="474" y="701" on="0"/>
        <pt x="476" y="703" on="1"/>
      </contour>
    </TTGlyph>
    <TTGlyph name="I" xMin="42" yMin="0" xMax="277" yMax="703">
      <contour>
        <pt x="161" y="697" on="1"/>
        <pt x="258" y="703" on="1"/>
        <pt x="260" y="701" on="0"/>
        <pt x="260" y="670" on="0"/>
        <pt x="255" y="665" on="1"/>
        <pt x="219" y="665" on="0"/>
        <pt x="191" y="640" on="0"/>
        <pt x="191" y="613" on="1"/>
        <pt x="206" y="90" on="1"/>
        <pt x="207" y="63" on="0"/>
        <pt x="236" y="38" on="0"/>
        <pt x="272" y="38" on="1"/>
        <pt x="277" y="33" on="0"/>
        <pt x="277" y="2" on="0"/>
        <pt x="275" y="0" on="1"/>
        <pt x="164" y="6" on="1"/>
        <pt x="45" y="0" on="1"/>
        <pt x="42" y="3" on="0"/>
        <pt x="42" y="32" on="0"/>
        <pt x="48" y="38" on="1"/>
        <pt x="84" y="38" on="0"/>
        <pt x="115" y="63" on="0"/>
        <pt x="115" y="90" on="1"/>
        <pt x="119" y="613" on="1"/>
        <pt x="119" y="640" on="0"/>
        <pt x="90" y="665" on="0"/>
        <pt x="54" y="665" on="1"/>
        <pt x="48" y="670" on="0"/>
        <pt x="48" y="701" on="0"/>
        <pt x="50" y="703" on="1"/>
        <pt x="50" y="703" on="0"/>
      </contour>
    </TTGlyph>
    <TTGlyph name="IJ" xMin="42" yMin="-156" xMax="566" yMax="703">
      <contour>
        <pt x="161" y="697" on="1"/>
        <pt x="258" y="703" on="1"/>
        <pt x="260" y="701" on="0"/>
        <pt x="260" y="670" on="0"/>
        <pt x="255" y="665" on="1"/>
        <pt x="219" y="665" on="0"/>
        <pt x="191" y="640" on="0"/>
        <pt x="191" y="613" on="1"/>
        <pt x="206" y="90" on="1"/>
        <pt x="207" y="63" on="0"/>
        <pt x="236" y="38" on="0"/>
        <pt x="272" y="38" on="1"/>
        <pt x="277" y="33" on="0"/>
        <pt x="277" y="2" on="0"/>
        <pt x="275" y="0" on="1"/>
        <pt x="164" y="6" on="1"/>
        <pt x="45" y="0" on="1"/>
        <pt x="42" y="3" on="0"/>
        <pt x="42" y="32" on="0"/>
        <pt x="48" y="38" on="1"/>
        <pt x="84" y="38" on="0"/>
        <pt x="115" y="63" on="0"/>
        <pt x="115" y="90" on="1"/>
        <pt x="119" y="613" on="1"/>
        <pt x="119" y="640" on="0"/>
        <pt x="90" y="665" on="0"/>
        <pt x="54" y="665" on="1"/>
        <pt x="48" y="670" on="0"/>
        <pt x="48" y="701" on="0"/>
        <pt x="50" y="703" on="1"/>
        <pt x="50" y="703" on="0"/>
      </contour>
      <contour>
        <pt x="463" y="697" on="1"/>
        <pt x="564" y="703" on="1"/>
        <pt x="566" y="701" on="0"/>
        <pt x="566" y="670" on="0"/>
        <pt x="561" y="665" on="1"/>
        <pt x="525" y="665" on="0"/>
        <pt x="493" y="640" on="0"/>
        <pt x="494" y="613" on="1"/>
        <pt x="506" y="50" on="1"/>
        <pt x="506" y="21" on="1"/>
        <pt x="506" y="-60" on="0"/>
        <pt x="415" y="-156" on="0"/>
        <pt x="340" y="-156" on="1"/>
        <pt x="303" y="-156" on="0"/>
        <pt x="246" y="-112" on="0"/>
        <pt x="246" y="-52" on="0"/>
        <pt x="274" y="-20" on="0"/>
        <pt x="313" y="-20" on="0"/>
        <pt x="337" y="-37" on="0"/>
        <pt x="337" y="-63" on="0"/>
        <pt x="327" y="-76" on="0"/>
        <pt x="327" y="-80" on="1"/>
        <pt x="327" y="-96" on="0"/>
        <pt x="357" y="-96" on="1"/>
        <pt x="430" y="-96" on="0"/>
        <pt x="430" y="41" on="1"/>
        <pt x="430" y="70" on="1"/>
        <pt x="426" y="613" on="1"/>
        <pt x="426" y="665" on="0"/>
        <pt x="359" y="665" on="1"/>
        <pt x="352" y="670" on="0"/>
        <pt x="352" y="701" on="0"/>
        <pt x="354" y="703" on="1"/>
      </contour>
    </TTGlyph>
    <TTGlyph name="Iacute" xMin="42" yMin="0" xMax="301" yMax="956">
      <contour>
        <pt x="96" y="820" on="1"/>
        <pt x="96" y="825" on="1"/>
        <pt x="209" y="890" on="0"/>
        <pt x="259" y="956" on="1"/>
        <pt x="281" y="952" on="0"/>
        <pt x="301" y="896" on="0"/>
        <pt x="301" y="878" on="0"/>
        <pt x="300" y="875" on="1"/>
        <pt x="297" y="864" on="0"/>
        <pt x="117" y="785" on="0"/>
        <pt x="110" y="785" on="1"/>
        <pt x="96" y="791" on="0"/>
      </contour>
      <contour>
        <pt x="161" y="697" on="1"/>
        <pt x="258" y="703" on="1"/>
        <pt x="260" y="701" on="0"/>
        <pt x="260" y="670" on="0"/>
        <pt x="255" y="665" on="1"/>
        <pt x="219" y="665" on="0"/>
        <pt x="191" y="640" on="0"/>
        <pt x="191" y="613" on="1"/>
        <pt x="206" y="90" on="1"/>
        <pt x="207" y="63" on="0"/>
        <pt x="236" y="38" on="0"/>
        <pt x="272" y="38" on="1"/>
        <pt x="277" y="33" on="0"/>
        <pt x="277" y="2" on="0"/>
        <pt x="275" y="0" on="1"/>
        <pt x="164" y="6" on="1"/>
        <pt x="45" y="0" on="1"/>
        <pt x="42" y="3" on="0"/>
        <pt x="42" y="32" on="0"/>
        <pt x="48" y="38" on="1"/>
        <pt x="84" y="38" on="0"/>
        <pt x="115" y="63" on="0"/>
        <pt x="115" y="90" on="1"/>
        <pt x="119" y="613" on="1"/>
        <pt x="119" y="640" on="0"/>
        <pt x="90" y="665" on="0"/>
        <pt x="54" y="665" on="1"/>
        <pt x="48" y="670" on="0"/>
        <pt x="48" y="701" on="0"/>
        <pt x="50" y="703" on="1"/>
      </contour>
    </TTGlyph>
    <TTGlyph name="Icircumflex" xMin="-2" yMin="0" xMax="314" yMax="984">
      <contour>
        <pt x="161" y="697" on="1"/>
        <pt x="258" y="703" on="1"/>
        <pt x="260" y="701" on="0"/>
        <pt x="260" y="670" on="0"/>
        <pt x="255" y="665" on="1"/>
        <pt x="219" y="665" on="0"/>
        <pt x="191" y="640" on="0"/>
        <pt x="191" y="613" on="1"/>
        <pt x="206" y="90" on="1"/>
        <pt x="207" y="63" on="0"/>
        <pt x="236" y="38" on="0"/>
        <pt x="272" y="38" on="1"/>
        <pt x="277" y="33" on="0"/>
        <pt x="277" y="2" on="0"/>
        <pt x="275" y="0" on="1"/>
        <pt x="164" y="6" on="1"/>
        <pt x="45" y="0" on="1"/>
        <pt x="42" y="3" on="0"/>
        <pt x="42" y="32" on="0"/>
        <pt x="48" y="38" on="1"/>
        <pt x="84" y="38" on="0"/>
        <pt x="115" y="63" on="0"/>
        <pt x="115" y="90" on="1"/>
        <pt x="119" y="613" on="1"/>
        <pt x="119" y="640" on="0"/>
        <pt x="90" y="665" on="0"/>
        <pt x="54" y="665" on="1"/>
        <pt x="48" y="670" on="0"/>
        <pt x="48" y="701" on="0"/>
        <pt x="50" y="703" on="1"/>
        <pt x="50" y="703" on="0"/>
      </contour>
      <contour>
        <pt x="138" y="980" on="1"/>
        <pt x="142" y="984" on="0"/>
        <pt x="168" y="984" on="0"/>
        <pt x="174" y="980" on="1"/>
        <pt x="196" y="938" on="0"/>
        <pt x="235" y="898" on="1"/>
        <pt x="248" y="884" on="0"/>
        <pt x="276" y="857" on="1"/>
        <pt x="313" y="821" on="0"/>
        <pt x="313" y="813" on="0"/>
        <pt x="305" y="799" on="0"/>
        <pt x="302" y="795" on="1"/>
        <pt x="294" y="786" on="0"/>
        <pt x="289" y="786" on="0"/>
        <pt x="266" y="802" on="1"/>
        <pt x="203" y="849" on="0"/>
        <pt x="156" y="892" on="1"/>
        <pt x="118" y="855" on="0"/>
        <pt x="23" y="786" on="0"/>
        <pt x="20" y="786" on="0"/>
        <pt x="17" y="788" on="1"/>
        <pt x="10" y="794" on="0"/>
        <pt x="-1" y="813" on="0"/>
        <pt x="-1" y="821" on="0"/>
        <pt x="0" y="822" on="1"/>
        <pt x="101" y="908" on="0"/>
      </contour>
    </TTGlyph>
    <TTGlyph name="Idieresis" xMin="10" yMin="0" xMax="292" yMax="910">
      <contour>
        <pt x="161" y="697" on="1"/>
        <pt x="258" y="703" on="1"/>
        <pt x="260" y="701" on="0"/>
        <pt x="260" y="670" on="0"/>
        <pt x="255" y="665" on="1"/>
        <pt x="219" y="665" on="0"/>
        <pt x="191" y="640" on="0"/>
        <pt x="191" y="613" on="1"/>
        <pt x="206" y="90" on="1"/>
        <pt x="207" y="63" on="0"/>
        <pt x="236" y="38" on="0"/>
        <pt x="272" y="38" on="1"/>
        <pt x="277" y="33" on="0"/>
        <pt x="277" y="2" on="0"/>
        <pt x="275" y="0" on="1"/>
        <pt x="164" y="6" on="1"/>
        <pt x="45" y="0" on="1"/>
        <pt x="42" y="3" on="0"/>
        <pt x="42" y="32" on="0"/>
        <pt x="48" y="38" on="1"/>
        <pt x="84" y="38" on="0"/>
        <pt x="115" y="63" on="0"/>
        <pt x="115" y="90" on="1"/>
        <pt x="119" y="613" on="1"/>
        <pt x="119" y="640" on="0"/>
        <pt x="90" y="665" on="0"/>
        <pt x="54" y="665" on="1"/>
        <pt x="48" y="670" on="0"/>
        <pt x="48" y="701" on="0"/>
        <pt x="50" y="703" on="1"/>
        <pt x="50" y="703" on="0"/>
      </contour>
      <contour>
        <pt x="10" y="833" on="0"/>
        <pt x="10" y="879" on="0"/>
        <pt x="36" y="910" on="0"/>
        <pt x="80" y="910" on="0"/>
        <pt x="113" y="879" on="0"/>
        <pt x="113" y="858" on="1"/>
        <pt x="113" y="807" on="0"/>
        <pt x="61" y="805" on="1"/>
        <pt x="38" y="805" on="0"/>
      </contour>
      <contour>
        <pt x="189" y="833" on="0"/>
        <pt x="189" y="879" on="0"/>
        <pt x="215" y="910" on="0"/>
        <pt x="259" y="910" on="0"/>
        <pt x="292" y="879" on="0"/>
        <pt x="292" y="858" on="1"/>
        <pt x="292" y="807" on="0"/>
        <pt x="240" y="805" on="1"/>
        <pt x="217" y="805" on="0"/>
      </contour>
    </TTGlyph>
    <TTGlyph name="Igrave" xMin="-11" yMin="0" xMax="277" yMax="956">
      <contour>
        <pt x="-10" y="875" on="1"/>
        <pt x="-11" y="878" on="0"/>
        <pt x="-11" y="896" on="0"/>
        <pt x="9" y="952" on="0"/>
        <pt x="31" y="956" on="1"/>
        <pt x="81" y="890" on="0"/>
        <pt x="194" y="825" on="1"/>
        <pt x="195" y="809" on="0"/>
        <pt x="185" y="787" on="0"/>
        <pt x="180" y="785" on="1"/>
        <pt x="173" y="785" on="0"/>
        <pt x="-7" y="864" on="0"/>
      </contour>
      <contour>
        <pt x="161" y="697" on="1"/>
        <pt x="258" y="703" on="1"/>
        <pt x="260" y="701" on="0"/>
        <pt x="260" y="670" on="0"/>
        <pt x="255" y="665" on="1"/>
        <pt x="219" y="665" on="0"/>
        <pt x="191" y="640" on="0"/>
        <pt x="191" y="613" on="1"/>
        <pt x="206" y="90" on="1"/>
        <pt x="207" y="63" on="0"/>
        <pt x="236" y="38" on="0"/>
        <pt x="272" y="38" on="1"/>
        <pt x="277" y="33" on="0"/>
        <pt x="277" y="2" on="0"/>
        <pt x="275" y="0" on="1"/>
        <pt x="164" y="6" on="1"/>
        <pt x="45" y="0" on="1"/>
        <pt x="42" y="3" on="0"/>
        <pt x="42" y="32" on="0"/>
        <pt x="48" y="38" on="1"/>
        <pt x="84" y="38" on="0"/>
        <pt x="115" y="63" on="0"/>
        <pt x="115" y="90" on="1"/>
        <pt x="119" y="613" on="1"/>
        <pt x="119" y="640" on="0"/>
        <pt x="90" y="665" on="0"/>
        <pt x="54" y="665" on="1"/>
        <pt x="48" y="670" on="0"/>
        <pt x="48" y="701" on="0"/>
        <pt x="50" y="703" on="1"/>
        <pt x="50" y="703" on="0"/>
      </contour>
    </TTGlyph>
    <TTGlyph name="Itilde" xMin="-4" yMin="0" xMax="317" yMax="901">
      <component glyphName="I" x="0" y="0" flags="0x1004"/>
      <component glyphName="tilde" x="-50" y="234" flags="0x1004"/>
    </TTGlyph>
    <TTGlyph name="J" xMin="-70" yMin="-156" xMax="250" yMax="703">
      <contour>
        <pt x="147" y="697" on="1"/>
        <pt x="248" y="703" on="1"/>
        <pt x="250" y="701" on="0"/>
        <pt x="250" y="670" on="0"/>
        <pt x="245" y="665" on="1"/>
        <pt x="209" y="665" on="0"/>
        <pt x="177" y="640" on="0"/>
        <pt x="178" y="613" on="1"/>
        <pt x="190" y="50" on="1"/>
        <pt x="190" y="21" on="1"/>
        <pt x="190" y="-60" on="0"/>
        <pt x="99" y="-156" on="0"/>
        <pt x="24" y="-156" on="1"/>
        <pt x="-13" y="-156" on="0"/>
        <pt x="-70" y="-112" on="0"/>
        <pt x="-70" y="-52" on="0"/>
        <pt x="-42" y="-20" on="0"/>
        <pt x="-3" y="-20" on="0"/>
        <pt x="21" y="-37" on="0"/>
        <pt x="21" y="-63" on="0"/>
        <pt x="11" y="-76" on="0"/>
        <pt x="11" y="-80" on="1"/>
        <pt x="11" y="-96" on="0"/>
        <pt x="41" y="-96" on="1"/>
        <pt x="114" y="-96" on="0"/>
        <pt x="114" y="41" on="1"/>
        <pt x="114" y="70" on="1"/>
        <pt x="110" y="613" on="1"/>
        <pt x="110" y="665" on="0"/>
        <pt x="43" y="665" on="1"/>
        <pt x="36" y="670" on="0"/>
        <pt x="36" y="701" on="0"/>
        <pt x="38" y="703" on="1"/>
      </contour>
    </TTGlyph>
    <TTGlyph name="Jcircumflex" xMin="-70" yMin="-156" xMax="298" yMax="984">
      <component glyphName="J" x="0" y="0" flags="0x1004"/>
      <component glyphName="circumflex" x="-36" y="214" flags="0x1004"/>
    </TTGlyph>
    <TTGlyph name="K" xMin="42" yMin="0" xMax="673" yMax="703">
      <contour>
        <pt x="159" y="696" on="1"/>
        <pt x="256" y="703" on="1"/>
        <pt x="258" y="701" on="0"/>
        <pt x="258" y="670" on="0"/>
        <pt x="253" y="665" on="1"/>
        <pt x="217" y="665" on="0"/>
        <pt x="187" y="640" on="0"/>
        <pt x="187" y="613" on="1"/>
        <pt x="195" y="387" on="1"/>
        <pt x="213" y="388" on="0"/>
        <pt x="237" y="401" on="0"/>
        <pt x="261" y="426" on="1"/>
        <pt x="311" y="478" on="0"/>
        <pt x="405" y="604" on="1"/>
        <pt x="419" y="621" on="0"/>
        <pt x="419" y="636" on="1"/>
        <pt x="419" y="665" on="0"/>
        <pt x="362" y="665" on="1"/>
        <pt x="355" y="670" on="0"/>
        <pt x="355" y="701" on="0"/>
        <pt x="357" y="703" on="1"/>
        <pt x="489" y="695" on="1"/>
        <pt x="517" y="695" on="0"/>
        <pt x="590" y="703" on="0"/>
        <pt x="607" y="703" on="1"/>
        <pt x="609" y="699" on="0"/>
        <pt x="609" y="671" on="0"/>
        <pt x="603" y="665" on="1"/>
        <pt x="549" y="665" on="0"/>
        <pt x="519" y="638" on="1"/>
        <pt x="508" y="628" on="0"/>
        <pt x="487" y="603" on="1"/>
        <pt x="291" y="369" on="1"/>
        <pt x="507" y="133" on="0"/>
        <pt x="535" y="105" on="1"/>
        <pt x="604" y="38" on="0"/>
        <pt x="666" y="38" on="1"/>
        <pt x="673" y="29" on="0"/>
        <pt x="673" y="2" on="0"/>
        <pt x="671" y="0" on="1"/>
        <pt x="535" y="7" on="1"/>
        <pt x="393" y="0" on="1"/>
        <pt x="391" y="1" on="0"/>
        <pt x="391" y="32" on="0"/>
        <pt x="397" y="38" on="1"/>
        <pt x="445" y="38" on="0"/>
        <pt x="445" y="75" on="0"/>
        <pt x="326" y="235" on="0"/>
        <pt x="263" y="302" on="1"/>
        <pt x="246" y="321" on="0"/>
        <pt x="220" y="332" on="0"/>
        <pt x="196" y="333" on="1"/>
        <pt x="206" y="90" on="1"/>
        <pt x="207" y="63" on="0"/>
        <pt x="236" y="38" on="0"/>
        <pt x="272" y="38" on="1"/>
        <pt x="277" y="33" on="0"/>
        <pt x="277" y="2" on="0"/>
        <pt x="275" y="0" on="1"/>
        <pt x="164" y="6" on="1"/>
        <pt x="45" y="0" on="1"/>
        <pt x="42" y="3" on="0"/>
        <pt x="42" y="32" on="0"/>
        <pt x="48" y="38" on="1"/>
        <pt x="83" y="38" on="0"/>
        <pt x="116" y="63" on="0"/>
        <pt x="119" y="90" on="1"/>
        <pt x="119" y="613" on="1"/>
        <pt x="119" y="640" on="0"/>
        <pt x="89" y="665" on="0"/>
        <pt x="52" y="665" on="1"/>
        <pt x="46" y="670" on="0"/>
        <pt x="46" y="701" on="0"/>
        <pt x="48" y="703" on="1"/>
      </contour>
    </TTGlyph>
    <TTGlyph name="L" xMin="42" yMin="-10" xMax="532" yMax="703">
      <contour>
        <pt x="159" y="697" on="1"/>
        <pt x="259" y="703" on="1"/>
        <pt x="261" y="701" on="0"/>
        <pt x="261" y="670" on="0"/>
        <pt x="256" y="665" on="1"/>
        <pt x="220" y="665" on="0"/>
        <pt x="190" y="640" on="0"/>
        <pt x="190" y="613" on="1"/>
        <pt x="206" y="131" on="1"/>
        <pt x="208" y="89" on="0"/>
        <pt x="235" y="56" on="0"/>
        <pt x="272" y="56" on="1"/>
        <pt x="354" y="56" on="1"/>
        <pt x="401" y="56" on="0"/>
        <pt x="464" y="118" on="0"/>
        <pt x="494" y="186" on="1"/>
        <pt x="496" y="188" on="0"/>
        <pt x="523" y="188" on="0"/>
        <pt x="532" y="179" on="1"/>
        <pt x="480" y="-10" on="1"/>
        <pt x="355" y="3" on="0"/>
        <pt x="126" y="3" on="0"/>
        <pt x="45" y="0" on="1"/>
        <pt x="42" y="3" on="0"/>
        <pt x="42" y="32" on="0"/>
        <pt x="48" y="38" on="1"/>
        <pt x="115" y="38" on="0"/>
        <pt x="115" y="90" on="1"/>
        <pt x="121" y="613" on="1"/>
        <pt x="121" y="640" on="0"/>
        <pt x="90" y="665" on="0"/>
        <pt x="54" y="665" on="1"/>
        <pt x="47" y="670" on="0"/>
        <pt x="47" y="701" on="0"/>
        <pt x="49" y="703" on="1"/>
      </contour>
    </TTGlyph>
    <TTGlyph name="Ldotaccent" xMin="42" yMin="-10" xMax="532" yMax="703">
      <contour>
        <pt x="159" y="697" on="1"/>
        <pt x="259" y="703" on="1"/>
        <pt x="261" y="701" on="0"/>
        <pt x="261" y="670" on="0"/>
        <pt x="256" y="665" on="1"/>
        <pt x="220" y="665" on="0"/>
        <pt x="190" y="640" on="0"/>
        <pt x="190" y="613" on="1"/>
        <pt x="206" y="131" on="1"/>
        <pt x="208" y="89" on="0"/>
        <pt x="235" y="56" on="0"/>
        <pt x="272" y="56" on="1"/>
        <pt x="354" y="56" on="1"/>
        <pt x="401" y="56" on="0"/>
        <pt x="464" y="118" on="0"/>
        <pt x="494" y="186" on="1"/>
        <pt x="496" y="188" on="0"/>
        <pt x="523" y="188" on="0"/>
        <pt x="532" y="179" on="1"/>
        <pt x="480" y="-10" on="1"/>
        <pt x="355" y="3" on="0"/>
        <pt x="126" y="3" on="0"/>
        <pt x="45" y="0" on="1"/>
        <pt x="42" y="3" on="0"/>
        <pt x="42" y="32" on="0"/>
        <pt x="48" y="38" on="1"/>
        <pt x="115" y="38" on="0"/>
        <pt x="115" y="90" on="1"/>
        <pt x="121" y="613" on="1"/>
        <pt x="121" y="640" on="0"/>
        <pt x="90" y="665" on="0"/>
        <pt x="54" y="665" on="1"/>
        <pt x="47" y="670" on="0"/>
        <pt x="47" y="701" on="0"/>
        <pt x="49" y="703" on="1"/>
      </contour>
      <contour>
        <pt x="422" y="362" on="0"/>
        <pt x="390" y="333" on="0"/>
        <pt x="339" y="333" on="0"/>
        <pt x="309" y="365" on="0"/>
        <pt x="309" y="414" on="0"/>
        <pt x="339" y="447" on="0"/>
        <pt x="387" y="447" on="0"/>
        <pt x="422" y="413" on="0"/>
      </contour>
    </TTGlyph>
    <TTGlyph name="Lslash" xMin="12" yMin="-10" xMax="551" yMax="703">
      <contour>
        <pt x="163" y="697" on="1"/>
        <pt x="263" y="703" on="1"/>
        <pt x="265" y="701" on="0"/>
        <pt x="265" y="670" on="0"/>
        <pt x="260" y="665" on="1"/>
        <pt x="224" y="665" on="0"/>
        <pt x="194" y="640" on="0"/>
        <pt x="194" y="613" on="1"/>
        <pt x="200" y="410" on="1"/>
        <pt x="303" y="468" on="0"/>
        <pt x="353" y="502" on="1"/>
        <pt x="382" y="472" on="0"/>
        <pt x="382" y="450" on="1"/>
        <pt x="382" y="443" on="0"/>
        <pt x="225" y="357" on="0"/>
        <pt x="203" y="344" on="1"/>
        <pt x="210" y="131" on="1"/>
        <pt x="212" y="89" on="0"/>
        <pt x="239" y="56" on="0"/>
        <pt x="276" y="56" on="1"/>
        <pt x="373" y="56" on="1"/>
        <pt x="420" y="56" on="0"/>
        <pt x="483" y="118" on="0"/>
        <pt x="513" y="186" on="1"/>
        <pt x="515" y="188" on="0"/>
        <pt x="542" y="188" on="0"/>
        <pt x="551" y="179" on="1"/>
        <pt x="499" y="-10" on="1"/>
        <pt x="369" y="3" on="0"/>
        <pt x="133" y="3" on="0"/>
        <pt x="49" y="0" on="1"/>
        <pt x="46" y="3" on="0"/>
        <pt x="46" y="32" on="0"/>
        <pt x="52" y="38" on="1"/>
        <pt x="119" y="38" on="0"/>
        <pt x="119" y="90" on="1"/>
        <pt x="121" y="295" on="1"/>
        <pt x="62" y="260" on="0"/>
        <pt x="47" y="250" on="1"/>
        <pt x="12" y="278" on="0"/>
        <pt x="12" y="300" on="1"/>
        <pt x="12" y="304" on="0"/>
        <pt x="109" y="356" on="0"/>
        <pt x="122" y="364" on="1"/>
        <pt x="125" y="613" on="1"/>
        <pt x="125" y="640" on="0"/>
        <pt x="94" y="665" on="0"/>
        <pt x="58" y="665" on="1"/>
        <pt x="51" y="670" on="0"/>
        <pt x="51" y="701" on="0"/>
        <pt x="53" y="703" on="1"/>
      </contour>
    </TTGlyph>
    <TTGlyph name="M" xMin="26" yMin="-4" xMax="846" yMax="703">
      <contour>
        <pt x="733" y="6" on="1"/>
        <pt x="614" y="0" on="1"/>
        <pt x="611" y="3" on="0"/>
        <pt x="611" y="32" on="0"/>
        <pt x="617" y="38" on="1"/>
        <pt x="647" y="38" on="0"/>
        <pt x="685" y="60" on="0"/>
        <pt x="684" y="90" on="1"/>
        <pt x="663" y="530" on="1"/>
        <pt x="450" y="0" on="1"/>
        <pt x="446" y="-4" on="0"/>
        <pt x="410" y="-4" on="0"/>
        <pt x="407" y="0" on="1"/>
        <pt x="198" y="530" on="1"/>
        <pt x="171" y="86" on="0"/>
        <pt x="171" y="84" on="1"/>
        <pt x="171" y="38" on="0"/>
        <pt x="238" y="38" on="1"/>
        <pt x="245" y="29" on="0"/>
        <pt x="245" y="2" on="0"/>
        <pt x="243" y="0" on="1"/>
        <pt x="129" y="6" on="1"/>
        <pt x="29" y="0" on="1"/>
        <pt x="26" y="3" on="0"/>
        <pt x="26" y="32" on="0"/>
        <pt x="32" y="38" on="1"/>
        <pt x="67" y="38" on="0"/>
        <pt x="96" y="62" on="0"/>
        <pt x="98" y="90" on="1"/>
        <pt x="142" y="613" on="1"/>
        <pt x="142" y="647" on="0"/>
        <pt x="122" y="664" on="0"/>
        <pt x="82" y="665" on="1"/>
        <pt x="76" y="670" on="0"/>
        <pt x="76" y="701" on="0"/>
        <pt x="78" y="703" on="1"/>
        <pt x="120" y="697" on="0"/>
        <pt x="178" y="697" on="0"/>
        <pt x="226" y="703" on="1"/>
        <pt x="437" y="128" on="1"/>
        <pt x="662" y="703" on="1"/>
        <pt x="710" y="697" on="0"/>
        <pt x="755" y="697" on="0"/>
        <pt x="797" y="703" on="1"/>
        <pt x="800" y="700" on="0"/>
        <pt x="800" y="670" on="0"/>
        <pt x="795" y="665" on="1"/>
        <pt x="757" y="665" on="0"/>
        <pt x="729" y="641" on="0"/>
        <pt x="729" y="619" on="1"/>
        <pt x="729" y="616" on="0"/>
        <pt x="775" y="90" on="1"/>
        <pt x="777" y="62" on="0"/>
        <pt x="806" y="38" on="0"/>
        <pt x="841" y="38" on="1"/>
        <pt x="846" y="33" on="0"/>
        <pt x="846" y="2" on="0"/>
        <pt x="844" y="0" on="1"/>
      </contour>
    </TTGlyph>
    <TTGlyph name="N" xMin="40" yMin="-4" xMax="704" yMax="703">
      <contour>
        <pt x="599" y="697" on="1"/>
        <pt x="702" y="703" on="1"/>
        <pt x="704" y="699" on="0"/>
        <pt x="704" y="672" on="0"/>
        <pt x="697" y="665" on="1"/>
        <pt x="660" y="665" on="0"/>
        <pt x="631" y="641" on="0"/>
        <pt x="631" y="613" on="1"/>
        <pt x="623" y="0" on="1"/>
        <pt x="619" y="-4" on="0"/>
        <pt x="578" y="-4" on="0"/>
        <pt x="575" y="0" on="1"/>
        <pt x="181" y="597" on="1"/>
        <pt x="199" y="90" on="1"/>
        <pt x="200" y="62" on="0"/>
        <pt x="229" y="38" on="0"/>
        <pt x="266" y="38" on="1"/>
        <pt x="273" y="29" on="0"/>
        <pt x="273" y="2" on="0"/>
        <pt x="271" y="0" on="1"/>
        <pt x="147" y="6" on="1"/>
        <pt x="43" y="0" on="1"/>
        <pt x="40" y="3" on="0"/>
        <pt x="40" y="32" on="0"/>
        <pt x="46" y="38" on="1"/>
        <pt x="82" y="38" on="0"/>
        <pt x="111" y="63" on="0"/>
        <pt x="112" y="90" on="1"/>
        <pt x="123" y="613" on="1"/>
        <pt x="124" y="640" on="0"/>
        <pt x="92" y="665" on="0"/>
        <pt x="56" y="665" on="1"/>
        <pt x="49" y="670" on="0"/>
        <pt x="49" y="701" on="0"/>
        <pt x="51" y="703" on="1"/>
        <pt x="93" y="697" on="0"/>
        <pt x="173" y="697" on="0"/>
        <pt x="215" y="703" on="1"/>
        <pt x="571" y="135" on="1"/>
        <pt x="554" y="613" on="1"/>
        <pt x="553" y="640" on="0"/>
        <pt x="523" y="665" on="0"/>
        <pt x="488" y="665" on="1"/>
        <pt x="482" y="671" on="0"/>
        <pt x="482" y="700" on="0"/>
        <pt x="485" y="703" on="1"/>
      </contour>
    </TTGlyph>
    <TTGlyph name="Nacute" xMin="40" yMin="-4" xMax="704" yMax="956">
      <contour>
        <pt x="290" y="820" on="1"/>
        <pt x="290" y="825" on="1"/>
        <pt x="403" y="890" on="0"/>
        <pt x="453" y="956" on="1"/>
        <pt x="475" y="952" on="0"/>
        <pt x="495" y="896" on="0"/>
        <pt x="495" y="878" on="0"/>
        <pt x="494" y="875" on="1"/>
        <pt x="491" y="864" on="0"/>
        <pt x="311" y="785" on="0"/>
        <pt x="304" y="785" on="1"/>
        <pt x="290" y="791" on="0"/>
      </contour>
      <contour>
        <pt x="599" y="697" on="1"/>
        <pt x="702" y="703" on="1"/>
        <pt x="704" y="699" on="0"/>
        <pt x="704" y="672" on="0"/>
        <pt x="697" y="665" on="1"/>
        <pt x="660" y="665" on="0"/>
        <pt x="631" y="641" on="0"/>
        <pt x="631" y="613" on="1"/>
        <pt x="623" y="0" on="1"/>
        <pt x="619" y="-4" on="0"/>
        <pt x="578" y="-4" on="0"/>
        <pt x="575" y="0" on="1"/>
        <pt x="181" y="597" on="1"/>
        <pt x="199" y="90" on="1"/>
        <pt x="200" y="62" on="0"/>
        <pt x="229" y="38" on="0"/>
        <pt x="266" y="38" on="1"/>
        <pt x="273" y="29" on="0"/>
        <pt x="273" y="2" on="0"/>
        <pt x="271" y="0" on="1"/>
        <pt x="147" y="6" on="1"/>
        <pt x="43" y="0" on="1"/>
        <pt x="40" y="3" on="0"/>
        <pt x="40" y="32" on="0"/>
        <pt x="46" y="38" on="1"/>
        <pt x="82" y="38" on="0"/>
        <pt x="111" y="63" on="0"/>
        <pt x="112" y="90" on="1"/>
        <pt x="123" y="613" on="1"/>
        <pt x="124" y="640" on="0"/>
        <pt x="92" y="665" on="0"/>
        <pt x="56" y="665" on="1"/>
        <pt x="49" y="670" on="0"/>
        <pt x="49" y="701" on="0"/>
        <pt x="51" y="703" on="1"/>
        <pt x="93" y="697" on="0"/>
        <pt x="173" y="697" on="0"/>
        <pt x="215" y="703" on="1"/>
        <pt x="571" y="135" on="1"/>
        <pt x="554" y="613" on="1"/>
        <pt x="553" y="640" on="0"/>
        <pt x="523" y="665" on="0"/>
        <pt x="488" y="665" on="1"/>
        <pt x="482" y="671" on="0"/>
        <pt x="482" y="700" on="0"/>
        <pt x="485" y="703" on="1"/>
      </contour>
    </TTGlyph>
    <TTGlyph name="Ntilde" xMin="40" yMin="-4" xMax="704" yMax="881">
      <component glyphName="N" x="0" y="0" flags="0x1004"/>
      <component glyphName="tilde" x="166" y="214" flags="0x1004"/>
    </TTGlyph>
    <TTGlyph name="O" xMin="53" yMin="-10" xMax="651" yMax="713">
      <contour>
        <pt x="53" y="352" on="1"/>
        <pt x="53" y="568" on="0"/>
        <pt x="182" y="663" on="1"/>
        <pt x="249" y="713" on="0"/>
        <pt x="344" y="713" on="1"/>
        <pt x="490" y="713" on="0"/>
        <pt x="651" y="508" on="0"/>
        <pt x="651" y="197" on="0"/>
        <pt x="490" y="-10" on="0"/>
        <pt x="203" y="-10" on="0"/>
        <pt x="53" y="196" on="0"/>
      </contour>
      <contour>
        <pt x="361" y="49" on="1"/>
        <pt x="564" y="49" on="0"/>
        <pt x="564" y="321" on="1"/>
        <pt x="564" y="458" on="0"/>
        <pt x="517" y="550" on="1"/>
        <pt x="492" y="599" on="0"/>
        <pt x="401" y="654" on="0"/>
        <pt x="338" y="654" on="1"/>
        <pt x="234" y="654" on="0"/>
        <pt x="140" y="506" on="0"/>
        <pt x="140" y="388" on="1"/>
        <pt x="140" y="215" on="0"/>
        <pt x="212" y="120" on="1"/>
        <pt x="236" y="88" on="0"/>
        <pt x="313" y="49" on="0"/>
      </contour>
    </TTGlyph>
    <TTGlyph name="OE" xMin="53" yMin="-10" xMax="966" yMax="713">
      <contour>
        <pt x="671" y="1" on="1"/>
        <pt x="507" y="0" on="1"/>
        <pt x="465" y="0" on="0"/>
        <pt x="350" y="-10" on="0"/>
        <pt x="339" y="-10" on="1"/>
        <pt x="200" y="-10" on="0"/>
        <pt x="53" y="196" on="0"/>
        <pt x="53" y="509" on="0"/>
        <pt x="200" y="713" on="0"/>
        <pt x="339" y="713" on="1"/>
        <pt x="371" y="713" on="0"/>
        <pt x="477" y="699" on="0"/>
        <pt x="518" y="699" on="1"/>
        <pt x="577" y="699" on="1"/>
        <pt x="746" y="699" on="0"/>
        <pt x="896" y="713" on="1"/>
        <pt x="910" y="537" on="1"/>
        <pt x="906" y="533" on="0"/>
        <pt x="874" y="533" on="0"/>
        <pt x="871" y="537" on="1"/>
        <pt x="862" y="600" on="0"/>
        <pt x="814" y="643" on="0"/>
        <pt x="761" y="643" on="1"/>
        <pt x="573" y="643" on="1"/>
        <pt x="581" y="383" on="1"/>
        <pt x="688" y="383" on="1"/>
        <pt x="723" y="383" on="0"/>
        <pt x="755" y="431" on="0"/>
        <pt x="763" y="483" on="1"/>
        <pt x="767" y="487" on="0"/>
        <pt x="795" y="487" on="0"/>
        <pt x="801" y="483" on="1"/>
        <pt x="793" y="419" on="0"/>
        <pt x="793" y="294" on="0"/>
        <pt x="801" y="230" on="1"/>
        <pt x="797" y="226" on="0"/>
        <pt x="766" y="226" on="0"/>
        <pt x="763" y="230" on="1"/>
        <pt x="755" y="280" on="0"/>
        <pt x="723" y="326" on="0"/>
        <pt x="688" y="326" on="1"/>
        <pt x="582" y="326" on="1"/>
        <pt x="588" y="131" on="1"/>
        <pt x="590" y="89" on="0"/>
        <pt x="617" y="56" on="0"/>
        <pt x="654" y="56" on="1"/>
        <pt x="789" y="56" on="1"/>
        <pt x="835" y="56" on="0"/>
        <pt x="898" y="119" on="0"/>
        <pt x="928" y="186" on="1"/>
        <pt x="930" y="188" on="0"/>
        <pt x="957" y="188" on="0"/>
        <pt x="966" y="179" on="1"/>
        <pt x="914" y="-10" on="1"/>
        <pt x="802" y="1" on="0"/>
      </contour>
      <contour>
        <pt x="211" y="108" on="0"/>
        <pt x="298" y="49" on="0"/>
        <pt x="420" y="49" on="0"/>
        <pt x="507" y="91" on="0"/>
        <pt x="507" y="140" on="1"/>
        <pt x="507" y="544" on="1"/>
        <pt x="507" y="579" on="0"/>
        <pt x="471" y="627" on="0"/>
        <pt x="442" y="637" on="1"/>
        <pt x="393" y="654" on="0"/>
        <pt x="343" y="654" on="1"/>
        <pt x="140" y="654" on="0"/>
        <pt x="140" y="389" on="1"/>
        <pt x="140" y="256" on="0"/>
        <pt x="187" y="158" on="1"/>
      </contour>
    </TTGlyph>
    <TTGlyph name="Oacute" xMin="53" yMin="-10" xMax="651" yMax="956">
      <contour>
        <pt x="301" y="820" on="1"/>
        <pt x="301" y="825" on="1"/>
        <pt x="414" y="890" on="0"/>
        <pt x="464" y="956" on="1"/>
        <pt x="486" y="952" on="0"/>
        <pt x="506" y="896" on="0"/>
        <pt x="506" y="878" on="0"/>
        <pt x="505" y="875" on="1"/>
        <pt x="502" y="864" on="0"/>
        <pt x="322" y="785" on="0"/>
        <pt x="315" y="785" on="1"/>
        <pt x="301" y="791" on="0"/>
      </contour>
      <contour>
        <pt x="53" y="352" on="1"/>
        <pt x="53" y="568" on="0"/>
        <pt x="182" y="663" on="1"/>
        <pt x="249" y="713" on="0"/>
        <pt x="344" y="713" on="1"/>
        <pt x="490" y="713" on="0"/>
        <pt x="651" y="508" on="0"/>
        <pt x="651" y="197" on="0"/>
        <pt x="490" y="-10" on="0"/>
        <pt x="203" y="-10" on="0"/>
        <pt x="53" y="196" on="0"/>
      </contour>
      <contour>
        <pt x="361" y="49" on="1"/>
        <pt x="564" y="49" on="0"/>
        <pt x="564" y="321" on="1"/>
        <pt x="564" y="458" on="0"/>
        <pt x="517" y="550" on="1"/>
        <pt x="492" y="599" on="0"/>
        <pt x="401" y="654" on="0"/>
        <pt x="338" y="654" on="1"/>
        <pt x="234" y="654" on="0"/>
        <pt x="140" y="506" on="0"/>
        <pt x="140" y="388" on="1"/>
        <pt x="140" y="215" on="0"/>
        <pt x="212" y="120" on="1"/>
        <pt x="236" y="88" on="0"/>
        <pt x="313" y="49" on="0"/>
      </contour>
    </TTGlyph>
    <TTGlyph name="Ocircumflex" xMin="53" yMin="-10" xMax="651" yMax="984">
      <component glyphName="O" x="0" y="0" flags="0x1004"/>
      <component glyphName="circumflex" x="167" y="214" flags="0x1004"/>
    </TTGlyph>
    <TTGlyph name="Odieresis" xMin="53" yMin="-10" xMax="651" yMax="910">
      <component glyphName="O" x="0" y="0" flags="0x1004"/>
      <component glyphName="dieresis" x="168" y="234" flags="0x1004"/>
    </TTGlyph>
    <TTGlyph name="Ograve" xMin="53" yMin="-10" xMax="651" yMax="956">
      <contour>
        <pt x="192" y="875" on="1"/>
        <pt x="191" y="878" on="0"/>
        <pt x="191" y="896" on="0"/>
        <pt x="211" y="952" on="0"/>
        <pt x="233" y="956" on="1"/>
        <pt x="283" y="890" on="0"/>
        <pt x="396" y="825" on="1"/>
        <pt x="397" y="809" on="0"/>
        <pt x="387" y="787" on="0"/>
        <pt x="382" y="785" on="1"/>
        <pt x="375" y="785" on="0"/>
        <pt x="195" y="864" on="0"/>
      </contour>
      <contour>
        <pt x="53" y="352" on="1"/>
        <pt x="53" y="568" on="0"/>
        <pt x="182" y="663" on="1"/>
        <pt x="249" y="713" on="0"/>
        <pt x="344" y="713" on="1"/>
        <pt x="490" y="713" on="0"/>
        <pt x="651" y="508" on="0"/>
        <pt x="651" y="197" on="0"/>
        <pt x="490" y="-10" on="0"/>
        <pt x="203" y="-10" on="0"/>
        <pt x="53" y="196" on="0"/>
      </contour>
      <contour>
        <pt x="361" y="49" on="1"/>
        <pt x="564" y="49" on="0"/>
        <pt x="564" y="321" on="1"/>
        <pt x="564" y="458" on="0"/>
        <pt x="517" y="550" on="1"/>
        <pt x="492" y="599" on="0"/>
        <pt x="401" y="654" on="0"/>
        <pt x="338" y="654" on="1"/>
        <pt x="234" y="654" on="0"/>
        <pt x="140" y="506" on="0"/>
        <pt x="140" y="388" on="1"/>
        <pt x="140" y="215" on="0"/>
        <pt x="212" y="120" on="1"/>
        <pt x="236" y="88" on="0"/>
        <pt x="313" y="49" on="0"/>
      </contour>
    </TTGlyph>
    <TTGlyph name="Oslash" xMin="53" yMin="-85" xMax="651" yMax="787">
      <contour>
        <pt x="53" y="352" on="1"/>
        <pt x="53" y="568" on="0"/>
        <pt x="182" y="663" on="1"/>
        <pt x="249" y="713" on="0"/>
        <pt x="344" y="713" on="1"/>
        <pt x="490" y="713" on="0"/>
        <pt x="651" y="508" on="0"/>
        <pt x="651" y="197" on="0"/>
        <pt x="490" y="-10" on="0"/>
        <pt x="203" y="-10" on="0"/>
        <pt x="53" y="196" on="0"/>
      </contour>
      <contour>
        <pt x="361" y="49" on="1"/>
        <pt x="564" y="49" on="0"/>
        <pt x="564" y="321" on="1"/>
        <pt x="564" y="458" on="0"/>
        <pt x="517" y="550" on="1"/>
        <pt x="492" y="599" on="0"/>
        <pt x="401" y="654" on="0"/>
        <pt x="338" y="654" on="1"/>
        <pt x="234" y="654" on="0"/>
        <pt x="140" y="506" on="0"/>
        <pt x="140" y="388" on="1"/>
        <pt x="140" y="215" on="0"/>
        <pt x="212" y="120" on="1"/>
        <pt x="236" y="88" on="0"/>
        <pt x="313" y="49" on="0"/>
      </contour>
      <contour>
        <pt x="517" y="762" on="1"/>
        <pt x="473" y="648" on="0"/>
        <pt x="268" y="31" on="0"/>
        <pt x="235" y="-85" on="1"/>
        <pt x="176" y="-85" on="0"/>
        <pt x="162" y="-65" on="1"/>
        <pt x="206" y="50" on="0"/>
        <pt x="413" y="673" on="0"/>
        <pt x="445" y="787" on="1"/>
        <pt x="504" y="787" on="0"/>
      </contour>
    </TTGlyph>
    <TTGlyph name="Otilde" xMin="53" yMin="-10" xMax="651" yMax="901">
      <contour>
        <pt x="53" y="352" on="1"/>
        <pt x="53" y="568" on="0"/>
        <pt x="182" y="663" on="1"/>
        <pt x="249" y="713" on="0"/>
        <pt x="344" y="713" on="1"/>
        <pt x="490" y="713" on="0"/>
        <pt x="651" y="508" on="0"/>
        <pt x="651" y="197" on="0"/>
        <pt x="490" y="-10" on="0"/>
        <pt x="203" y="-10" on="0"/>
        <pt x="53" y="196" on="0"/>
      </contour>
      <contour>
        <pt x="361" y="49" on="1"/>
        <pt x="564" y="49" on="0"/>
        <pt x="564" y="321" on="1"/>
        <pt x="564" y="458" on="0"/>
        <pt x="517" y="550" on="1"/>
        <pt x="492" y="599" on="0"/>
        <pt x="401" y="654" on="0"/>
        <pt x="338" y="654" on="1"/>
        <pt x="234" y="654" on="0"/>
        <pt x="140" y="506" on="0"/>
        <pt x="140" y="388" on="1"/>
        <pt x="140" y="215" on="0"/>
        <pt x="212" y="120" on="1"/>
        <pt x="236" y="88" on="0"/>
        <pt x="313" y="49" on="0"/>
      </contour>
      <contour>
        <pt x="488" y="837" on="0"/>
        <pt x="424" y="801" on="0"/>
        <pt x="368" y="801" on="0"/>
        <pt x="283" y="845" on="0"/>
        <pt x="266" y="845" on="1"/>
        <pt x="235" y="845" on="0"/>
        <pt x="199" y="809" on="1"/>
        <pt x="184" y="812" on="0"/>
        <pt x="184" y="842" on="1"/>
        <pt x="185" y="848" on="1"/>
        <pt x="200" y="865" on="0"/>
        <pt x="267" y="901" on="0"/>
        <pt x="326" y="901" on="0"/>
        <pt x="406" y="858" on="0"/>
        <pt x="423" y="858" on="1"/>
        <pt x="454" y="858" on="0"/>
        <pt x="490" y="894" on="1"/>
        <pt x="505" y="891" on="0"/>
        <pt x="505" y="862" on="1"/>
        <pt x="504" y="855" on="1"/>
      </contour>
    </TTGlyph>
    <TTGlyph name="P" xMin="42" yMin="0" xMax="517" yMax="703">
      <contour>
        <pt x="145" y="697" on="1"/>
        <pt x="294" y="703" on="1"/>
        <pt x="389" y="703" on="0"/>
        <pt x="517" y="602" on="0"/>
        <pt x="517" y="514" on="1"/>
        <pt x="517" y="411" on="0"/>
        <pt x="362" y="291" on="0"/>
        <pt x="249" y="289" on="1"/>
        <pt x="245" y="293" on="0"/>
        <pt x="231" y="318" on="0"/>
        <pt x="231" y="326" on="0"/>
        <pt x="232" y="327" on="1"/>
        <pt x="427" y="327" on="0"/>
        <pt x="427" y="500" on="1"/>
        <pt x="427" y="580" on="0"/>
        <pt x="340" y="652" on="0"/>
        <pt x="255" y="652" on="1"/>
        <pt x="214" y="652" on="0"/>
        <pt x="180" y="645" on="1"/>
        <pt x="206" y="90" on="1"/>
        <pt x="208" y="62" on="0"/>
        <pt x="236" y="38" on="0"/>
        <pt x="272" y="38" on="1"/>
        <pt x="277" y="33" on="0"/>
        <pt x="277" y="2" on="0"/>
        <pt x="275" y="0" on="1"/>
        <pt x="165" y="6" on="1"/>
        <pt x="45" y="0" on="1"/>
        <pt x="42" y="3" on="0"/>
        <pt x="42" y="32" on="0"/>
        <pt x="48" y="38" on="1"/>
        <pt x="115" y="38" on="0"/>
        <pt x="115" y="90" on="1"/>
        <pt x="119" y="614" on="1"/>
        <pt x="119" y="641" on="0"/>
        <pt x="89" y="665" on="0"/>
        <pt x="52" y="665" on="1"/>
        <pt x="46" y="670" on="0"/>
        <pt x="46" y="701" on="0"/>
        <pt x="48" y="703" on="1"/>
      </contour>
    </TTGlyph>
    <TTGlyph name="Q" xMin="53" yMin="-155" xMax="830" yMax="713">
      <contour>
        <pt x="418" y="0" on="1"/>
        <pt x="585" y="-91" on="0"/>
        <pt x="649" y="-91" on="1"/>
        <pt x="691" y="-91" on="0"/>
        <pt x="783" y="-53" on="0"/>
        <pt x="816" y="-27" on="1"/>
        <pt x="824" y="-29" on="0"/>
        <pt x="830" y="-64" on="1"/>
        <pt x="794" y="-95" on="0"/>
        <pt x="664" y="-155" on="0"/>
        <pt x="546" y="-155" on="0"/>
        <pt x="342" y="-60" on="0"/>
        <pt x="296" y="-60" on="0"/>
        <pt x="267" y="-70" on="0"/>
        <pt x="250" y="-82" on="0"/>
        <pt x="230" y="-98" on="1"/>
        <pt x="226" y="-94" on="0"/>
        <pt x="214" y="-70" on="0"/>
        <pt x="214" y="-64" on="1"/>
        <pt x="214" y="-54" on="0"/>
        <pt x="285" y="-8" on="0"/>
        <pt x="313" y="-6" on="1"/>
        <pt x="228" y="2" on="0"/>
        <pt x="168" y="54" on="1"/>
        <pt x="53" y="152" on="0"/>
        <pt x="53" y="354" on="1"/>
        <pt x="53" y="512" on="0"/>
        <pt x="202" y="713" on="0"/>
        <pt x="491" y="713" on="0"/>
        <pt x="651" y="511" on="0"/>
        <pt x="651" y="354" on="1"/>
        <pt x="651" y="221" on="0"/>
        <pt x="530" y="26" on="0"/>
      </contour>
      <contour>
        <pt x="361" y="51" on="1"/>
        <pt x="469" y="51" on="0"/>
        <pt x="564" y="199" on="0"/>
        <pt x="564" y="319" on="1"/>
        <pt x="564" y="458" on="0"/>
        <pt x="518" y="551" on="1"/>
        <pt x="493" y="600" on="0"/>
        <pt x="401" y="654" on="0"/>
        <pt x="267" y="654" on="0"/>
        <pt x="175" y="580" on="0"/>
        <pt x="140" y="467" on="0"/>
        <pt x="140" y="325" on="0"/>
        <pt x="163" y="210" on="0"/>
        <pt x="212" y="110" on="0"/>
        <pt x="301" y="51" on="0"/>
      </contour>
    </TTGlyph>
    <TTGlyph name="R" xMin="42" yMin="0" xMax="656" yMax="703">
      <contour>
        <pt x="255" y="652" on="1"/>
        <pt x="214" y="652" on="0"/>
        <pt x="180" y="645" on="1"/>
        <pt x="190" y="365" on="1"/>
        <pt x="244" y="365" on="1"/>
        <pt x="319" y="365" on="0"/>
        <pt x="415" y="441" on="0"/>
        <pt x="415" y="578" on="0"/>
        <pt x="331" y="652" on="0"/>
      </contour>
      <contour>
        <pt x="145" y="697" on="1"/>
        <pt x="294" y="703" on="1"/>
        <pt x="379" y="703" on="0"/>
        <pt x="504" y="598" on="0"/>
        <pt x="504" y="449" on="0"/>
        <pt x="419" y="341" on="0"/>
        <pt x="344" y="321" on="1"/>
        <pt x="445" y="204" on="1"/>
        <pt x="531" y="104" on="0"/>
        <pt x="609" y="38" on="0"/>
        <pt x="650" y="38" on="1"/>
        <pt x="656" y="30" on="0"/>
        <pt x="656" y="2" on="0"/>
        <pt x="654" y="0" on="1"/>
        <pt x="639" y="0" on="0"/>
        <pt x="564" y="9" on="0"/>
        <pt x="510" y="9" on="0"/>
        <pt x="414" y="0" on="0"/>
        <pt x="396" y="0" on="1"/>
        <pt x="394" y="1" on="0"/>
        <pt x="394" y="31" on="0"/>
        <pt x="401" y="38" on="1"/>
        <pt x="448" y="38" on="0"/>
        <pt x="448" y="58" on="1"/>
        <pt x="448" y="82" on="0"/>
        <pt x="289" y="273" on="0"/>
        <pt x="240" y="311" on="0"/>
        <pt x="196" y="311" on="1"/>
        <pt x="206" y="90" on="1"/>
        <pt x="207" y="63" on="0"/>
        <pt x="236" y="38" on="0"/>
        <pt x="272" y="38" on="1"/>
        <pt x="277" y="33" on="0"/>
        <pt x="277" y="2" on="0"/>
        <pt x="275" y="0" on="1"/>
        <pt x="165" y="6" on="1"/>
        <pt x="45" y="0" on="1"/>
        <pt x="42" y="3" on="0"/>
        <pt x="42" y="32" on="0"/>
        <pt x="48" y="38" on="1"/>
        <pt x="115" y="38" on="0"/>
        <pt x="115" y="90" on="1"/>
        <pt x="119" y="614" on="1"/>
        <pt x="119" y="641" on="0"/>
        <pt x="89" y="665" on="0"/>
        <pt x="52" y="665" on="1"/>
        <pt x="46" y="670" on="0"/>
        <pt x="46" y="701" on="0"/>
        <pt x="48" y="703" on="1"/>
      </contour>
    </TTGlyph>
    <TTGlyph name="Racute" xMin="42" yMin="0" xMax="656" yMax="956">
      <contour>
        <pt x="188" y="820" on="1"/>
        <pt x="188" y="825" on="1"/>
        <pt x="301" y="890" on="0"/>
        <pt x="351" y="956" on="1"/>
        <pt x="373" y="952" on="0"/>
        <pt x="393" y="896" on="0"/>
        <pt x="393" y="878" on="0"/>
        <pt x="392" y="875" on="1"/>
        <pt x="389" y="864" on="0"/>
        <pt x="209" y="785" on="0"/>
        <pt x="202" y="785" on="1"/>
        <pt x="188" y="791" on="0"/>
      </contour>
      <contour>
        <pt x="255" y="652" on="1"/>
        <pt x="214" y="652" on="0"/>
        <pt x="180" y="645" on="1"/>
        <pt x="190" y="365" on="1"/>
        <pt x="244" y="365" on="1"/>
        <pt x="319" y="365" on="0"/>
        <pt x="415" y="441" on="0"/>
        <pt x="415" y="578" on="0"/>
        <pt x="331" y="652" on="0"/>
      </contour>
      <contour>
        <pt x="145" y="697" on="1"/>
        <pt x="294" y="703" on="1"/>
        <pt x="379" y="703" on="0"/>
        <pt x="504" y="598" on="0"/>
        <pt x="504" y="449" on="0"/>
        <pt x="419" y="341" on="0"/>
        <pt x="344" y="321" on="1"/>
        <pt x="445" y="204" on="1"/>
        <pt x="531" y="104" on="0"/>
        <pt x="609" y="38" on="0"/>
        <pt x="650" y="38" on="1"/>
        <pt x="656" y="30" on="0"/>
        <pt x="656" y="2" on="0"/>
        <pt x="654" y="0" on="1"/>
        <pt x="639" y="0" on="0"/>
        <pt x="564" y="9" on="0"/>
        <pt x="510" y="9" on="0"/>
        <pt x="414" y="0" on="0"/>
        <pt x="396" y="0" on="1"/>
        <pt x="394" y="1" on="0"/>
        <pt x="394" y="31" on="0"/>
        <pt x="401" y="38" on="1"/>
        <pt x="448" y="38" on="0"/>
        <pt x="448" y="58" on="1"/>
        <pt x="448" y="82" on="0"/>
        <pt x="289" y="273" on="0"/>
        <pt x="240" y="311" on="0"/>
        <pt x="196" y="311" on="1"/>
        <pt x="206" y="90" on="1"/>
        <pt x="207" y="63" on="0"/>
        <pt x="236" y="38" on="0"/>
        <pt x="272" y="38" on="1"/>
        <pt x="277" y="33" on="0"/>
        <pt x="277" y="2" on="0"/>
        <pt x="275" y="0" on="1"/>
        <pt x="165" y="6" on="1"/>
        <pt x="45" y="0" on="1"/>
        <pt x="42" y="3" on="0"/>
        <pt x="42" y="32" on="0"/>
        <pt x="48" y="38" on="1"/>
        <pt x="115" y="38" on="0"/>
        <pt x="115" y="90" on="1"/>
        <pt x="119" y="614" on="1"/>
        <pt x="119" y="641" on="0"/>
        <pt x="89" y="665" on="0"/>
        <pt x="52" y="665" on="1"/>
        <pt x="46" y="670" on="0"/>
        <pt x="46" y="701" on="0"/>
        <pt x="48" y="703" on="1"/>
      </contour>
    </TTGlyph>
    <TTGlyph name="Rcaron" xMin="42" yMin="0" xMax="656" yMax="984">
      <component glyphName="R" x="0" y="0" flags="0x1004"/>
      <component glyphName="caron" x="89" y="214" flags="0x1004"/>
    </TTGlyph>
    <TTGlyph name="Rcommaaccent" xMin="42" yMin="-223" xMax="656" yMax="703">
      <contour>
        <pt x="353" y="-37" on="0"/>
        <pt x="381" y="-66" on="0"/>
        <pt x="381" y="-130" on="0"/>
        <pt x="355" y="-191" on="0"/>
        <pt x="314" y="-223" on="1"/>
        <pt x="312" y="-223" on="0"/>
        <pt x="296" y="-211" on="0"/>
        <pt x="293" y="-204" on="1"/>
        <pt x="289" y="-197" on="0"/>
        <pt x="301" y="-185" on="0"/>
        <pt x="323" y="-165" on="0"/>
        <pt x="328" y="-160" on="1"/>
        <pt x="340" y="-148" on="0"/>
        <pt x="340" y="-126" on="0"/>
        <pt x="316" y="-116" on="0"/>
        <pt x="292" y="-98" on="0"/>
        <pt x="292" y="-61" on="0"/>
        <pt x="314" y="-37" on="0"/>
      </contour>
      <contour>
        <pt x="255" y="652" on="1"/>
        <pt x="214" y="652" on="0"/>
        <pt x="180" y="645" on="1"/>
        <pt x="190" y="365" on="1"/>
        <pt x="244" y="365" on="1"/>
        <pt x="319" y="365" on="0"/>
        <pt x="415" y="441" on="0"/>
        <pt x="415" y="578" on="0"/>
        <pt x="331" y="652" on="0"/>
      </contour>
      <contour>
        <pt x="145" y="697" on="1"/>
        <pt x="294" y="703" on="1"/>
        <pt x="379" y="703" on="0"/>
        <pt x="504" y="598" on="0"/>
        <pt x="504" y="449" on="0"/>
        <pt x="419" y="341" on="0"/>
        <pt x="344" y="321" on="1"/>
        <pt x="445" y="204" on="1"/>
        <pt x="531" y="104" on="0"/>
        <pt x="609" y="38" on="0"/>
        <pt x="650" y="38" on="1"/>
        <pt x="656" y="30" on="0"/>
        <pt x="656" y="2" on="0"/>
        <pt x="654" y="0" on="1"/>
        <pt x="639" y="0" on="0"/>
        <pt x="564" y="9" on="0"/>
        <pt x="510" y="9" on="0"/>
        <pt x="414" y="0" on="0"/>
        <pt x="396" y="0" on="1"/>
        <pt x="394" y="1" on="0"/>
        <pt x="394" y="31" on="0"/>
        <pt x="401" y="38" on="1"/>
        <pt x="448" y="38" on="0"/>
        <pt x="448" y="58" on="1"/>
        <pt x="448" y="82" on="0"/>
        <pt x="289" y="273" on="0"/>
        <pt x="240" y="311" on="0"/>
        <pt x="196" y="311" on="1"/>
        <pt x="206" y="90" on="1"/>
        <pt x="207" y="63" on="0"/>
        <pt x="236" y="38" on="0"/>
        <pt x="272" y="38" on="1"/>
        <pt x="277" y="33" on="0"/>
        <pt x="277" y="2" on="0"/>
        <pt x="275" y="0" on="1"/>
        <pt x="165" y="6" on="1"/>
        <pt x="45" y="0" on="1"/>
        <pt x="42" y="3" on="0"/>
        <pt x="42" y="32" on="0"/>
        <pt x="48" y="38" on="1"/>
        <pt x="115" y="38" on="0"/>
        <pt x="115" y="90" on="1"/>
        <pt x="119" y="614" on="1"/>
        <pt x="119" y="641" on="0"/>
        <pt x="89" y="665" on="0"/>
        <pt x="52" y="665" on="1"/>
        <pt x="46" y="670" on="0"/>
        <pt x="46" y="701" on="0"/>
        <pt x="48" y="703" on="1"/>
      </contour>
    </TTGlyph>
    <TTGlyph name="S" xMin="53" yMin="-10" xMax="490" yMax="714">
      <contour>
        <pt x="398" y="709" on="1"/>
        <pt x="402" y="713" on="0"/>
        <pt x="430" y="713" on="0"/>
        <pt x="436" y="709" on="1"/>
        <pt x="450" y="504" on="1"/>
        <pt x="446" y="500" on="0"/>
        <pt x="415" y="500" on="0"/>
        <pt x="412" y="504" on="1"/>
        <pt x="404" y="570" on="0"/>
        <pt x="382" y="609" on="1"/>
        <pt x="355" y="654" on="0"/>
        <pt x="282" y="654" on="1"/>
        <pt x="227" y="654" on="0"/>
        <pt x="160" y="585" on="0"/>
        <pt x="160" y="499" on="0"/>
        <pt x="228" y="433" on="0"/>
        <pt x="325" y="380" on="0"/>
        <pt x="422" y="322" on="0"/>
        <pt x="490" y="232" on="0"/>
        <pt x="490" y="114" on="0"/>
        <pt x="452" y="70" on="1"/>
        <pt x="383" y="-10" on="0"/>
        <pt x="268" y="-10" on="1"/>
        <pt x="185" y="-10" on="0"/>
        <pt x="120" y="23" on="1"/>
        <pt x="116" y="25" on="0"/>
        <pt x="109" y="25" on="0"/>
        <pt x="108" y="16" on="1"/>
        <pt x="105" y="-6" on="1"/>
        <pt x="101" y="-10" on="0"/>
        <pt x="70" y="-10" on="0"/>
        <pt x="67" y="-6" on="1"/>
        <pt x="53" y="199" on="1"/>
        <pt x="57" y="203" on="0"/>
        <pt x="85" y="203" on="0"/>
        <pt x="91" y="199" on="1"/>
        <pt x="100" y="130" on="0"/>
        <pt x="208" y="49" on="0"/>
        <pt x="279" y="49" on="1"/>
        <pt x="326" y="49" on="0"/>
        <pt x="401" y="110" on="0"/>
        <pt x="401" y="164" on="1"/>
        <pt x="401" y="199" on="0"/>
        <pt x="333" y="258" on="0"/>
        <pt x="237" y="307" on="0"/>
        <pt x="141" y="363" on="0"/>
        <pt x="73" y="457" on="0"/>
        <pt x="73" y="518" on="1"/>
        <pt x="73" y="607" on="0"/>
        <pt x="186" y="714" on="0"/>
        <pt x="332" y="714" on="0"/>
        <pt x="382" y="681" on="1"/>
        <pt x="386" y="678" on="0"/>
        <pt x="394" y="678" on="0"/>
        <pt x="395" y="687" on="1"/>
      </contour>
    </TTGlyph>
    <TTGlyph name="Scaron" xMin="53" yMin="-10" xMax="490" yMax="984">
      <contour>
        <pt x="398" y="709" on="1"/>
        <pt x="402" y="713" on="0"/>
        <pt x="430" y="713" on="0"/>
        <pt x="436" y="709" on="1"/>
        <pt x="450" y="504" on="1"/>
        <pt x="446" y="500" on="0"/>
        <pt x="415" y="500" on="0"/>
        <pt x="412" y="504" on="1"/>
        <pt x="404" y="570" on="0"/>
        <pt x="382" y="609" on="1"/>
        <pt x="355" y="654" on="0"/>
        <pt x="282" y="654" on="1"/>
        <pt x="227" y="654" on="0"/>
        <pt x="160" y="585" on="0"/>
        <pt x="160" y="499" on="0"/>
        <pt x="228" y="433" on="0"/>
        <pt x="325" y="380" on="0"/>
        <pt x="422" y="322" on="0"/>
        <pt x="490" y="232" on="0"/>
        <pt x="490" y="114" on="0"/>
        <pt x="452" y="70" on="1"/>
        <pt x="383" y="-10" on="0"/>
        <pt x="268" y="-10" on="1"/>
        <pt x="185" y="-10" on="0"/>
        <pt x="120" y="23" on="1"/>
        <pt x="116" y="25" on="0"/>
        <pt x="109" y="25" on="0"/>
        <pt x="108" y="16" on="1"/>
        <pt x="105" y="-6" on="1"/>
        <pt x="101" y="-10" on="0"/>
        <pt x="70" y="-10" on="0"/>
        <pt x="67" y="-6" on="1"/>
        <pt x="53" y="199" on="1"/>
        <pt x="57" y="203" on="0"/>
        <pt x="85" y="203" on="0"/>
        <pt x="91" y="199" on="1"/>
        <pt x="100" y="130" on="0"/>
        <pt x="208" y="49" on="0"/>
        <pt x="279" y="49" on="1"/>
        <pt x="326" y="49" on="0"/>
        <pt x="401" y="110" on="0"/>
        <pt x="401" y="164" on="1"/>
        <pt x="401" y="199" on="0"/>
        <pt x="333" y="258" on="0"/>
        <pt x="237" y="307" on="0"/>
        <pt x="141" y="363" on="0"/>
        <pt x="73" y="457" on="0"/>
        <pt x="73" y="518" on="1"/>
        <pt x="73" y="607" on="0"/>
        <pt x="186" y="714" on="0"/>
        <pt x="332" y="714" on="0"/>
        <pt x="382" y="681" on="1"/>
        <pt x="386" y="678" on="0"/>
        <pt x="394" y="678" on="0"/>
        <pt x="395" y="687" on="1"/>
      </contour>
      <contour>
        <pt x="169" y="886" on="0"/>
        <pt x="113" y="940" on="0"/>
        <pt x="104" y="949" on="0"/>
        <pt x="104" y="957" on="0"/>
        <pt x="112" y="971" on="0"/>
        <pt x="116" y="975" on="1"/>
        <pt x="123" y="984" on="0"/>
        <pt x="128" y="984" on="0"/>
        <pt x="150" y="968" on="1"/>
        <pt x="208" y="925" on="0"/>
        <pt x="261" y="877" on="1"/>
        <pt x="314" y="925" on="0"/>
        <pt x="394" y="984" on="0"/>
        <pt x="397" y="984" on="0"/>
        <pt x="400" y="982" on="1"/>
        <pt x="407" y="976" on="0"/>
        <pt x="418" y="957" on="0"/>
        <pt x="418" y="949" on="0"/>
        <pt x="409" y="940" on="0"/>
        <pt x="353" y="886" on="0"/>
        <pt x="340" y="872" on="1"/>
        <pt x="301" y="832" on="0"/>
        <pt x="279" y="790" on="1"/>
        <pt x="275" y="786" on="0"/>
        <pt x="247" y="786" on="0"/>
        <pt x="243" y="790" on="1"/>
        <pt x="221" y="832" on="0"/>
        <pt x="182" y="872" on="1"/>
      </contour>
    </TTGlyph>
    <TTGlyph name="T" xMin="16" yMin="0" xMax="554" yMax="713">
      <contour>
        <pt x="296" y="6" on="1"/>
        <pt x="177" y="0" on="1"/>
        <pt x="174" y="3" on="0"/>
        <pt x="174" y="33" on="0"/>
        <pt x="179" y="38" on="1"/>
        <pt x="215" y="38" on="0"/>
        <pt x="246" y="63" on="0"/>
        <pt x="246" y="90" on="1"/>
        <pt x="250" y="650" on="1"/>
        <pt x="169" y="650" on="1"/>
        <pt x="109" y="650" on="0"/>
        <pt x="64" y="600" on="0"/>
        <pt x="54" y="543" on="1"/>
        <pt x="50" y="539" on="0"/>
        <pt x="19" y="539" on="0"/>
        <pt x="16" y="543" on="1"/>
        <pt x="33" y="713" on="1"/>
        <pt x="144" y="702" on="0"/>
        <pt x="426" y="702" on="0"/>
        <pt x="539" y="713" on="1"/>
        <pt x="554" y="543" on="1"/>
        <pt x="550" y="539" on="0"/>
        <pt x="519" y="539" on="0"/>
        <pt x="516" y="543" on="1"/>
        <pt x="506" y="600" on="0"/>
        <pt x="463" y="650" on="0"/>
        <pt x="403" y="650" on="1"/>
        <pt x="320" y="650" on="1"/>
        <pt x="338" y="90" on="1"/>
        <pt x="339" y="63" on="0"/>
        <pt x="368" y="38" on="0"/>
        <pt x="404" y="38" on="1"/>
        <pt x="409" y="33" on="0"/>
        <pt x="409" y="3" on="0"/>
        <pt x="406" y="0" on="1"/>
      </contour>
    </TTGlyph>
    <TTGlyph name="Thorn" xMin="42" yMin="0" xMax="524" yMax="703">
      <contour>
        <pt x="188" y="568" on="1"/>
        <pt x="293" y="573" on="0"/>
        <pt x="301" y="573" on="1"/>
        <pt x="396" y="573" on="0"/>
        <pt x="524" y="472" on="0"/>
        <pt x="524" y="288" on="0"/>
        <pt x="372" y="176" on="0"/>
        <pt x="261" y="174" on="1"/>
        <pt x="257" y="178" on="0"/>
        <pt x="243" y="200" on="0"/>
        <pt x="243" y="211" on="0"/>
        <pt x="244" y="212" on="1"/>
        <pt x="434" y="212" on="0"/>
        <pt x="434" y="370" on="1"/>
        <pt x="434" y="450" on="0"/>
        <pt x="347" y="522" on="0"/>
        <pt x="262" y="522" on="1"/>
        <pt x="226" y="522" on="0"/>
        <pt x="190" y="516" on="1"/>
        <pt x="206" y="90" on="1"/>
        <pt x="207" y="63" on="0"/>
        <pt x="236" y="38" on="0"/>
        <pt x="272" y="38" on="1"/>
        <pt x="277" y="33" on="0"/>
        <pt x="277" y="2" on="0"/>
        <pt x="275" y="0" on="1"/>
        <pt x="165" y="6" on="1"/>
        <pt x="45" y="0" on="1"/>
        <pt x="42" y="3" on="0"/>
        <pt x="42" y="32" on="0"/>
        <pt x="48" y="38" on="1"/>
        <pt x="84" y="38" on="0"/>
        <pt x="115" y="63" on="0"/>
        <pt x="115" y="90" on="1"/>
        <pt x="119" y="614" on="1"/>
        <pt x="119" y="641" on="0"/>
        <pt x="89" y="665" on="0"/>
        <pt x="52" y="665" on="1"/>
        <pt x="46" y="670" on="0"/>
        <pt x="46" y="701" on="0"/>
        <pt x="48" y="703" on="1"/>
        <pt x="159" y="697" on="1"/>
        <pt x="256" y="703" on="1"/>
        <pt x="258" y="701" on="0"/>
        <pt x="258" y="670" on="0"/>
        <pt x="253" y="665" on="1"/>
        <pt x="217" y="665" on="0"/>
        <pt x="186" y="640" on="0"/>
        <pt x="187" y="613" on="1"/>
      </contour>
    </TTGlyph>
    <TTGlyph name="U" xMin="12" yMin="-10" xMax="701" yMax="703">
      <contour>
        <pt x="570" y="697" on="1"/>
        <pt x="699" y="703" on="1"/>
        <pt x="701" y="699" on="0"/>
        <pt x="701" y="671" on="0"/>
        <pt x="695" y="665" on="1"/>
        <pt x="651" y="665" on="0"/>
        <pt x="613" y="640" on="0"/>
        <pt x="613" y="613" on="1"/>
        <pt x="611" y="248" on="1"/>
        <pt x="610" y="127" on="0"/>
        <pt x="466" y="-10" on="0"/>
        <pt x="226" y="-10" on="0"/>
        <pt x="101" y="126" on="0"/>
        <pt x="102" y="248" on="1"/>
        <pt x="103" y="613" on="1"/>
        <pt x="103" y="641" on="0"/>
        <pt x="68" y="665" on="0"/>
        <pt x="18" y="665" on="1"/>
        <pt x="12" y="671" on="0"/>
        <pt x="12" y="700" on="0"/>
        <pt x="15" y="703" on="1"/>
        <pt x="152" y="697" on="1"/>
        <pt x="282" y="703" on="1"/>
        <pt x="284" y="701" on="0"/>
        <pt x="284" y="670" on="0"/>
        <pt x="279" y="665" on="1"/>
        <pt x="230" y="665" on="0"/>
        <pt x="191" y="640" on="0"/>
        <pt x="192" y="613" on="1"/>
        <pt x="201" y="259" on="1"/>
        <pt x="204" y="156" on="0"/>
        <pt x="271" y="49" on="0"/>
        <pt x="451" y="49" on="0"/>
        <pt x="544" y="161" on="0"/>
        <pt x="543" y="259" on="1"/>
        <pt x="539" y="613" on="1"/>
        <pt x="539" y="638" on="0"/>
        <pt x="488" y="665" on="0"/>
        <pt x="448" y="665" on="1"/>
        <pt x="442" y="671" on="0"/>
        <pt x="442" y="700" on="0"/>
        <pt x="445" y="703" on="1"/>
      </contour>
    </TTGlyph>
    <TTGlyph name="Uacute" xMin="12" yMin="-10" xMax="701" yMax="956">
      <contour>
        <pt x="309" y="820" on="1"/>
        <pt x="309" y="825" on="1"/>
        <pt x="422" y="890" on="0"/>
        <pt x="472" y="956" on="1"/>
        <pt x="494" y="952" on="0"/>
        <pt x="514" y="896" on="0"/>
        <pt x="514" y="878" on="0"/>
        <pt x="513" y="875" on="1"/>
        <pt x="510" y="864" on="0"/>
        <pt x="330" y="785" on="0"/>
        <pt x="323" y="785" on="1"/>
        <pt x="309" y="791" on="0"/>
      </contour>
      <contour>
        <pt x="570" y="697" on="1"/>
        <pt x="699" y="703" on="1"/>
        <pt x="701" y="699" on="0"/>
        <pt x="701" y="671" on="0"/>
        <pt x="695" y="665" on="1"/>
        <pt x="651" y="665" on="0"/>
        <pt x="613" y="640" on="0"/>
        <pt x="613" y="613" on="1"/>
        <pt x="611" y="248" on="1"/>
        <pt x="610" y="127" on="0"/>
        <pt x="466" y="-10" on="0"/>
        <pt x="226" y="-10" on="0"/>
        <pt x="101" y="126" on="0"/>
        <pt x="102" y="248" on="1"/>
        <pt x="103" y="613" on="1"/>
        <pt x="103" y="641" on="0"/>
        <pt x="68" y="665" on="0"/>
        <pt x="18" y="665" on="1"/>
        <pt x="12" y="671" on="0"/>
        <pt x="12" y="700" on="0"/>
        <pt x="15" y="703" on="1"/>
        <pt x="152" y="697" on="1"/>
        <pt x="282" y="703" on="1"/>
        <pt x="284" y="701" on="0"/>
        <pt x="284" y="670" on="0"/>
        <pt x="279" y="665" on="1"/>
        <pt x="230" y="665" on="0"/>
        <pt x="191" y="640" on="0"/>
        <pt x="192" y="613" on="1"/>
        <pt x="201" y="259" on="1"/>
        <pt x="204" y="156" on="0"/>
        <pt x="271" y="49" on="0"/>
        <pt x="451" y="49" on="0"/>
        <pt x="544" y="161" on="0"/>
        <pt x="543" y="259" on="1"/>
        <pt x="539" y="613" on="1"/>
        <pt x="539" y="638" on="0"/>
        <pt x="488" y="665" on="0"/>
        <pt x="448" y="665" on="1"/>
        <pt x="442" y="671" on="0"/>
        <pt x="442" y="700" on="0"/>
        <pt x="445" y="703" on="1"/>
      </contour>
    </TTGlyph>
    <TTGlyph name="Ucircumflex" xMin="12" yMin="-10" xMax="701" yMax="984">
      <component glyphName="U" x="0" y="0" flags="0x1004"/>
      <component glyphName="circumflex" x="183" y="214" flags="0x1004"/>
    </TTGlyph>
    <TTGlyph name="Udieresis" xMin="12" yMin="-10" xMax="701" yMax="890">
      <contour>
        <pt x="570" y="697" on="1"/>
        <pt x="699" y="703" on="1"/>
        <pt x="701" y="699" on="0"/>
        <pt x="701" y="671" on="0"/>
        <pt x="695" y="665" on="1"/>
        <pt x="651" y="665" on="0"/>
        <pt x="613" y="640" on="0"/>
        <pt x="613" y="613" on="1"/>
        <pt x="611" y="248" on="1"/>
        <pt x="610" y="127" on="0"/>
        <pt x="466" y="-10" on="0"/>
        <pt x="226" y="-10" on="0"/>
        <pt x="101" y="126" on="0"/>
        <pt x="102" y="248" on="1"/>
        <pt x="103" y="613" on="1"/>
        <pt x="103" y="641" on="0"/>
        <pt x="68" y="665" on="0"/>
        <pt x="18" y="665" on="1"/>
        <pt x="12" y="671" on="0"/>
        <pt x="12" y="700" on="0"/>
        <pt x="15" y="703" on="1"/>
        <pt x="152" y="697" on="1"/>
        <pt x="282" y="703" on="1"/>
        <pt x="284" y="701" on="0"/>
        <pt x="284" y="670" on="0"/>
        <pt x="279" y="665" on="1"/>
        <pt x="230" y="665" on="0"/>
        <pt x="191" y="640" on="0"/>
        <pt x="192" y="613" on="1"/>
        <pt x="201" y="259" on="1"/>
        <pt x="204" y="156" on="0"/>
        <pt x="271" y="49" on="0"/>
        <pt x="451" y="49" on="0"/>
        <pt x="544" y="161" on="0"/>
        <pt x="543" y="259" on="1"/>
        <pt x="539" y="613" on="1"/>
        <pt x="539" y="638" on="0"/>
        <pt x="488" y="665" on="0"/>
        <pt x="448" y="665" on="1"/>
        <pt x="442" y="671" on="0"/>
        <pt x="442" y="700" on="0"/>
        <pt x="445" y="703" on="1"/>
      </contour>
      <contour>
        <pt x="215" y="813" on="0"/>
        <pt x="215" y="859" on="0"/>
        <pt x="241" y="890" on="0"/>
        <pt x="285" y="890" on="0"/>
        <pt x="318" y="859" on="0"/>
        <pt x="318" y="838" on="1"/>
        <pt x="318" y="787" on="0"/>
        <pt x="266" y="785" on="1"/>
        <pt x="243" y="785" on="0"/>
      </contour>
      <contour>
        <pt x="394" y="813" on="0"/>
        <pt x="394" y="859" on="0"/>
        <pt x="420" y="890" on="0"/>
        <pt x="464" y="890" on="0"/>
        <pt x="497" y="859" on="0"/>
        <pt x="497" y="838" on="1"/>
        <pt x="497" y="787" on="0"/>
        <pt x="445" y="785" on="1"/>
        <pt x="422" y="785" on="0"/>
      </contour>
    </TTGlyph>
    <TTGlyph name="Ugrave" xMin="12" yMin="-10" xMax="701" yMax="956">
      <contour>
        <pt x="188" y="875" on="1"/>
        <pt x="187" y="878" on="0"/>
        <pt x="187" y="896" on="0"/>
        <pt x="207" y="952" on="0"/>
        <pt x="229" y="956" on="1"/>
        <pt x="279" y="890" on="0"/>
        <pt x="392" y="825" on="1"/>
        <pt x="393" y="809" on="0"/>
        <pt x="383" y="787" on="0"/>
        <pt x="378" y="785" on="1"/>
        <pt x="371" y="785" on="0"/>
        <pt x="191" y="864" on="0"/>
      </contour>
      <contour>
        <pt x="570" y="697" on="1"/>
        <pt x="699" y="703" on="1"/>
        <pt x="701" y="699" on="0"/>
        <pt x="701" y="671" on="0"/>
        <pt x="695" y="665" on="1"/>
        <pt x="651" y="665" on="0"/>
        <pt x="613" y="640" on="0"/>
        <pt x="613" y="613" on="1"/>
        <pt x="611" y="248" on="1"/>
        <pt x="610" y="127" on="0"/>
        <pt x="466" y="-10" on="0"/>
        <pt x="226" y="-10" on="0"/>
        <pt x="101" y="126" on="0"/>
        <pt x="102" y="248" on="1"/>
        <pt x="103" y="613" on="1"/>
        <pt x="103" y="641" on="0"/>
        <pt x="68" y="665" on="0"/>
        <pt x="18" y="665" on="1"/>
        <pt x="12" y="671" on="0"/>
        <pt x="12" y="700" on="0"/>
        <pt x="15" y="703" on="1"/>
        <pt x="152" y="697" on="1"/>
        <pt x="282" y="703" on="1"/>
        <pt x="284" y="701" on="0"/>
        <pt x="284" y="670" on="0"/>
        <pt x="279" y="665" on="1"/>
        <pt x="230" y="665" on="0"/>
        <pt x="191" y="640" on="0"/>
        <pt x="192" y="613" on="1"/>
        <pt x="201" y="259" on="1"/>
        <pt x="204" y="156" on="0"/>
        <pt x="271" y="49" on="0"/>
        <pt x="451" y="49" on="0"/>
        <pt x="544" y="161" on="0"/>
        <pt x="543" y="259" on="1"/>
        <pt x="539" y="613" on="1"/>
        <pt x="539" y="638" on="0"/>
        <pt x="488" y="665" on="0"/>
        <pt x="448" y="665" on="1"/>
        <pt x="442" y="671" on="0"/>
        <pt x="442" y="700" on="0"/>
        <pt x="445" y="703" on="1"/>
      </contour>
    </TTGlyph>
    <TTGlyph name="V" xMin="-23" yMin="-4" xMax="704" yMax="703">
      <contour>
        <pt x="564" y="694" on="1"/>
        <pt x="702" y="703" on="1"/>
        <pt x="704" y="699" on="0"/>
        <pt x="704" y="672" on="0"/>
        <pt x="697" y="665" on="1"/>
        <pt x="663" y="665" on="0"/>
        <pt x="621" y="623" on="0"/>
        <pt x="603" y="578" on="1"/>
        <pt x="373" y="0" on="1"/>
        <pt x="369" y="-4" on="0"/>
        <pt x="333" y="-4" on="0"/>
        <pt x="330" y="0" on="1"/>
        <pt x="88" y="578" on="1"/>
        <pt x="66" y="631" on="0"/>
        <pt x="53" y="644" on="1"/>
        <pt x="31" y="665" on="0"/>
        <pt x="-16" y="665" on="1"/>
        <pt x="-23" y="670" on="0"/>
        <pt x="-23" y="701" on="0"/>
        <pt x="-21" y="703" on="1"/>
        <pt x="127" y="694" on="1"/>
        <pt x="271" y="703" on="1"/>
        <pt x="273" y="699" on="0"/>
        <pt x="273" y="672" on="0"/>
        <pt x="266" y="665" on="1"/>
        <pt x="180" y="665" on="0"/>
        <pt x="180" y="615" on="1"/>
        <pt x="180" y="599" on="0"/>
        <pt x="188" y="578" on="1"/>
        <pt x="361" y="127" on="1"/>
        <pt x="531" y="578" on="1"/>
        <pt x="538" y="599" on="0"/>
        <pt x="538" y="612" on="1"/>
        <pt x="538" y="665" on="0"/>
        <pt x="452" y="665" on="1"/>
        <pt x="445" y="670" on="0"/>
        <pt x="445" y="701" on="0"/>
        <pt x="447" y="703" on="1"/>
      </contour>
    </TTGlyph>
    <TTGlyph name="W" xMin="-22" yMin="-4" xMax="987" yMax="703">
      <contour>
        <pt x="856" y="694" on="1"/>
        <pt x="985" y="703" on="1"/>
        <pt x="987" y="699" on="0"/>
        <pt x="987" y="672" on="0"/>
        <pt x="980" y="665" on="1"/>
        <pt x="947" y="665" on="0"/>
        <pt x="907" y="623" on="0"/>
        <pt x="891" y="578" on="1"/>
        <pt x="679" y="0" on="1"/>
        <pt x="675" y="-4" on="0"/>
        <pt x="644" y="-4" on="0"/>
        <pt x="641" y="0" on="1"/>
        <pt x="490" y="392" on="1"/>
        <pt x="347" y="0" on="1"/>
        <pt x="343" y="-4" on="0"/>
        <pt x="312" y="-4" on="0"/>
        <pt x="309" y="0" on="1"/>
        <pt x="74" y="609" on="0"/>
        <pt x="65" y="627" on="0"/>
        <pt x="54" y="641" on="1"/>
        <pt x="34" y="665" on="0"/>
        <pt x="-16" y="665" on="1"/>
        <pt x="-22" y="670" on="0"/>
        <pt x="-22" y="701" on="0"/>
        <pt x="-20" y="703" on="1"/>
        <pt x="121" y="694" on="1"/>
        <pt x="148" y="694" on="0"/>
        <pt x="216" y="703" on="0"/>
        <pt x="233" y="703" on="1"/>
        <pt x="235" y="699" on="0"/>
        <pt x="235" y="672" on="0"/>
        <pt x="228" y="665" on="1"/>
        <pt x="166" y="665" on="0"/>
        <pt x="166" y="624" on="1"/>
        <pt x="166" y="606" on="0"/>
        <pt x="177" y="578" on="1"/>
        <pt x="337" y="127" on="1"/>
        <pt x="458" y="476" on="1"/>
        <pt x="400" y="626" on="0"/>
        <pt x="389" y="647" on="0"/>
        <pt x="380" y="652" on="0"/>
        <pt x="373" y="657" on="1"/>
        <pt x="362" y="665" on="0"/>
        <pt x="335" y="665" on="1"/>
        <pt x="328" y="670" on="0"/>
        <pt x="328" y="701" on="0"/>
        <pt x="330" y="703" on="1"/>
        <pt x="346" y="703" on="0"/>
        <pt x="430" y="694" on="0"/>
        <pt x="484" y="694" on="0"/>
        <pt x="576" y="703" on="0"/>
        <pt x="592" y="703" on="1"/>
        <pt x="594" y="699" on="0"/>
        <pt x="594" y="671" on="0"/>
        <pt x="588" y="665" on="1"/>
        <pt x="500" y="665" on="0"/>
        <pt x="500" y="617" on="1"/>
        <pt x="500" y="600" on="0"/>
        <pt x="509" y="578" on="1"/>
        <pt x="669" y="127" on="1"/>
        <pt x="827" y="578" on="1"/>
        <pt x="833" y="596" on="0"/>
        <pt x="833" y="610" on="1"/>
        <pt x="833" y="665" on="0"/>
        <pt x="751" y="665" on="1"/>
        <pt x="744" y="670" on="0"/>
        <pt x="744" y="701" on="0"/>
        <pt x="746" y="703" on="1"/>
        <pt x="746" y="703" on="0"/>
      </contour>
    </TTGlyph>
    <TTGlyph name="X" xMin="4" yMin="0" xMax="717" yMax="703">
      <contour>
        <pt x="142" y="694" on="1"/>
        <pt x="284" y="703" on="1"/>
        <pt x="286" y="699" on="0"/>
        <pt x="286" y="672" on="0"/>
        <pt x="279" y="665" on="1"/>
        <pt x="226" y="665" on="0"/>
        <pt x="226" y="639" on="1"/>
        <pt x="226" y="616" on="0"/>
        <pt x="268" y="557" on="1"/>
        <pt x="365" y="421" on="1"/>
        <pt x="503" y="604" on="1"/>
        <pt x="516" y="621" on="0"/>
        <pt x="516" y="634" on="1"/>
        <pt x="516" y="665" on="0"/>
        <pt x="447" y="665" on="1"/>
        <pt x="441" y="669" on="0"/>
        <pt x="441" y="701" on="0"/>
        <pt x="443" y="703" on="1"/>
        <pt x="460" y="703" on="0"/>
        <pt x="549" y="694" on="0"/>
        <pt x="604" y="694" on="0"/>
        <pt x="692" y="703" on="0"/>
        <pt x="709" y="703" on="1"/>
        <pt x="711" y="701" on="0"/>
        <pt x="711" y="673" on="0"/>
        <pt x="703" y="665" on="1"/>
        <pt x="655" y="665" on="0"/>
        <pt x="621" y="647" on="0"/>
        <pt x="585" y="599" on="1"/>
        <pt x="407" y="361" on="1"/>
        <pt x="578" y="119" on="0"/>
        <pt x="597" y="98" on="0"/>
        <pt x="620" y="72" on="0"/>
        <pt x="635" y="62" on="0"/>
        <pt x="656" y="47" on="0"/>
        <pt x="666" y="44" on="1"/>
        <pt x="690" y="38" on="0"/>
        <pt x="710" y="38" on="1"/>
        <pt x="717" y="29" on="0"/>
        <pt x="717" y="2" on="0"/>
        <pt x="715" y="0" on="1"/>
        <pt x="698" y="0" on="0"/>
        <pt x="620" y="8" on="0"/>
        <pt x="591" y="8" on="1"/>
        <pt x="436" y="0" on="1"/>
        <pt x="434" y="1" on="0"/>
        <pt x="434" y="31" on="0"/>
        <pt x="441" y="38" on="1"/>
        <pt x="491" y="38" on="0"/>
        <pt x="491" y="63" on="1"/>
        <pt x="491" y="85" on="0"/>
        <pt x="447" y="149" on="1"/>
        <pt x="352" y="286" on="1"/>
        <pt x="213" y="97" on="1"/>
        <pt x="194" y="71" on="0"/>
        <pt x="194" y="58" on="1"/>
        <pt x="194" y="38" on="0"/>
        <pt x="254" y="38" on="1"/>
        <pt x="261" y="31" on="0"/>
        <pt x="261" y="2" on="0"/>
        <pt x="259" y="0" on="1"/>
        <pt x="242" y="0" on="0"/>
        <pt x="166" y="8" on="0"/>
        <pt x="138" y="8" on="1"/>
        <pt x="6" y="0" on="1"/>
        <pt x="4" y="2" on="0"/>
        <pt x="4" y="30" on="0"/>
        <pt x="12" y="38" on="1"/>
        <pt x="50" y="38" on="0"/>
        <pt x="100" y="62" on="0"/>
        <pt x="131" y="104" on="1"/>
        <pt x="311" y="347" on="1"/>
        <pt x="224" y="469" on="0"/>
        <pt x="169" y="547" on="0"/>
        <pt x="152" y="571" on="0"/>
        <pt x="121" y="611" on="0"/>
        <pt x="105" y="627" on="0"/>
        <pt x="78" y="650" on="0"/>
        <pt x="68" y="654" on="1"/>
        <pt x="39" y="665" on="0"/>
        <pt x="13" y="665" on="1"/>
        <pt x="7" y="670" on="0"/>
        <pt x="7" y="701" on="0"/>
        <pt x="9" y="703" on="1"/>
        <pt x="25" y="703" on="0"/>
        <pt x="114" y="694" on="0"/>
      </contour>
    </TTGlyph>
    <TTGlyph name="Y" xMin="-32" yMin="0" xMax="649" yMax="703">
      <contour>
        <pt x="332" y="6" on="1"/>
        <pt x="213" y="0" on="1"/>
        <pt x="210" y="3" on="0"/>
        <pt x="210" y="32" on="0"/>
        <pt x="216" y="38" on="1"/>
        <pt x="252" y="38" on="0"/>
        <pt x="282" y="63" on="0"/>
        <pt x="283" y="90" on="1"/>
        <pt x="288" y="256" on="1"/>
        <pt x="92" y="601" on="0"/>
        <pt x="75" y="624" on="0"/>
        <pt x="60" y="638" on="1"/>
        <pt x="33" y="665" on="0"/>
        <pt x="-25" y="665" on="1"/>
        <pt x="-32" y="670" on="0"/>
        <pt x="-32" y="701" on="0"/>
        <pt x="-30" y="703" on="1"/>
        <pt x="-12" y="703" on="0"/>
        <pt x="78" y="694" on="0"/>
        <pt x="140" y="694" on="0"/>
        <pt x="226" y="703" on="0"/>
        <pt x="245" y="703" on="1"/>
        <pt x="247" y="699" on="0"/>
        <pt x="247" y="672" on="0"/>
        <pt x="240" y="665" on="1"/>
        <pt x="178" y="665" on="0"/>
        <pt x="178" y="630" on="1"/>
        <pt x="178" y="608" on="0"/>
        <pt x="198" y="575" on="1"/>
        <pt x="335" y="348" on="1"/>
        <pt x="453" y="575" on="1"/>
        <pt x="478" y="623" on="0"/>
        <pt x="478" y="641" on="1"/>
        <pt x="478" y="665" on="0"/>
        <pt x="435" y="665" on="1"/>
        <pt x="428" y="672" on="0"/>
        <pt x="428" y="701" on="0"/>
        <pt x="430" y="703" on="1"/>
        <pt x="446" y="703" on="0"/>
        <pt x="517" y="694" on="0"/>
        <pt x="568" y="694" on="0"/>
        <pt x="631" y="703" on="0"/>
        <pt x="647" y="703" on="1"/>
        <pt x="649" y="699" on="0"/>
        <pt x="649" y="671" on="0"/>
        <pt x="643" y="665" on="1"/>
        <pt x="596" y="665" on="0"/>
        <pt x="546" y="621" on="0"/>
        <pt x="521" y="575" on="1"/>
        <pt x="362" y="275" on="1"/>
        <pt x="374" y="90" on="1"/>
        <pt x="376" y="63" on="0"/>
        <pt x="404" y="38" on="0"/>
        <pt x="440" y="38" on="1"/>
        <pt x="446" y="32" on="0"/>
        <pt x="446" y="3" on="0"/>
        <pt x="443" y="0" on="1"/>
      </contour>
    </TTGlyph>
    <TTGlyph name="Yacute" xMin="-32" yMin="0" xMax="649" yMax="956">
      <contour>
        <pt x="282" y="820" on="1"/>
        <pt x="282" y="825" on="1"/>
        <pt x="395" y="890" on="0"/>
        <pt x="445" y="956" on="1"/>
        <pt x="467" y="952" on="0"/>
        <pt x="487" y="896" on="0"/>
        <pt x="487" y="878" on="0"/>
        <pt x="486" y="875" on="1"/>
        <pt x="483" y="864" on="0"/>
        <pt x="303" y="785" on="0"/>
        <pt x="296" y="785" on="1"/>
        <pt x="282" y="791" on="0"/>
      </contour>
      <contour>
        <pt x="332" y="6" on="1"/>
        <pt x="213" y="0" on="1"/>
        <pt x="210" y="3" on="0"/>
        <pt x="210" y="32" on="0"/>
        <pt x="216" y="38" on="1"/>
        <pt x="252" y="38" on="0"/>
        <pt x="282" y="63" on="0"/>
        <pt x="283" y="90" on="1"/>
        <pt x="288" y="256" on="1"/>
        <pt x="92" y="601" on="0"/>
        <pt x="75" y="624" on="0"/>
        <pt x="60" y="638" on="1"/>
        <pt x="33" y="665" on="0"/>
        <pt x="-25" y="665" on="1"/>
        <pt x="-32" y="670" on="0"/>
        <pt x="-32" y="701" on="0"/>
        <pt x="-30" y="703" on="1"/>
        <pt x="-12" y="703" on="0"/>
        <pt x="78" y="694" on="0"/>
        <pt x="140" y="694" on="0"/>
        <pt x="226" y="703" on="0"/>
        <pt x="245" y="703" on="1"/>
        <pt x="247" y="699" on="0"/>
        <pt x="247" y="672" on="0"/>
        <pt x="240" y="665" on="1"/>
        <pt x="178" y="665" on="0"/>
        <pt x="178" y="630" on="1"/>
        <pt x="178" y="608" on="0"/>
        <pt x="198" y="575" on="1"/>
        <pt x="335" y="348" on="1"/>
        <pt x="453" y="575" on="1"/>
        <pt x="478" y="623" on="0"/>
        <pt x="478" y="641" on="1"/>
        <pt x="478" y="665" on="0"/>
        <pt x="435" y="665" on="1"/>
        <pt x="428" y="672" on="0"/>
        <pt x="428" y="701" on="0"/>
        <pt x="430" y="703" on="1"/>
        <pt x="446" y="703" on="0"/>
        <pt x="517" y="694" on="0"/>
        <pt x="568" y="694" on="0"/>
        <pt x="631" y="703" on="0"/>
        <pt x="647" y="703" on="1"/>
        <pt x="649" y="699" on="0"/>
        <pt x="649" y="671" on="0"/>
        <pt x="643" y="665" on="1"/>
        <pt x="596" y="665" on="0"/>
        <pt x="546" y="621" on="0"/>
        <pt x="521" y="575" on="1"/>
        <pt x="362" y="275" on="1"/>
        <pt x="374" y="90" on="1"/>
        <pt x="376" y="63" on="0"/>
        <pt x="404" y="38" on="0"/>
        <pt x="440" y="38" on="1"/>
        <pt x="446" y="32" on="0"/>
        <pt x="446" y="3" on="0"/>
        <pt x="443" y="0" on="1"/>
      </contour>
    </TTGlyph>
    <TTGlyph name="Ycircumflex" xMin="-32" yMin="0" xMax="649" yMax="984">
      <component glyphName="Y" x="0" y="0" flags="0x1004"/>
      <component glyphName="circumflex" x="151" y="214" flags="0x1004"/>
    </TTGlyph>
    <TTGlyph name="Ydieresis" xMin="-32" yMin="0" xMax="649" yMax="910">
      <component glyphName="Y" x="0" y="0" flags="0x1004"/>
      <component glyphName="dieresis" x="150" y="234" flags="0x1004"/>
    </TTGlyph>
    <TTGlyph name="Ygrave" xMin="-32" yMin="0" xMax="649" yMax="956">
      <contour>
        <pt x="151" y="875" on="1"/>
        <pt x="150" y="878" on="0"/>
        <pt x="150" y="896" on="0"/>
        <pt x="170" y="952" on="0"/>
        <pt x="192" y="956" on="1"/>
        <pt x="242" y="890" on="0"/>
        <pt x="355" y="825" on="1"/>
        <pt x="356" y="809" on="0"/>
        <pt x="346" y="787" on="0"/>
        <pt x="341" y="785" on="1"/>
        <pt x="334" y="785" on="0"/>
        <pt x="154" y="864" on="0"/>
      </contour>
      <contour>
        <pt x="332" y="6" on="1"/>
        <pt x="213" y="0" on="1"/>
        <pt x="210" y="3" on="0"/>
        <pt x="210" y="32" on="0"/>
        <pt x="216" y="38" on="1"/>
        <pt x="252" y="38" on="0"/>
        <pt x="282" y="63" on="0"/>
        <pt x="283" y="90" on="1"/>
        <pt x="288" y="256" on="1"/>
        <pt x="92" y="601" on="0"/>
        <pt x="75" y="624" on="0"/>
        <pt x="60" y="638" on="1"/>
        <pt x="33" y="665" on="0"/>
        <pt x="-25" y="665" on="1"/>
        <pt x="-32" y="670" on="0"/>
        <pt x="-32" y="701" on="0"/>
        <pt x="-30" y="703" on="1"/>
        <pt x="-12" y="703" on="0"/>
        <pt x="78" y="694" on="0"/>
        <pt x="140" y="694" on="0"/>
        <pt x="226" y="703" on="0"/>
        <pt x="245" y="703" on="1"/>
        <pt x="247" y="699" on="0"/>
        <pt x="247" y="672" on="0"/>
        <pt x="240" y="665" on="1"/>
        <pt x="178" y="665" on="0"/>
        <pt x="178" y="630" on="1"/>
        <pt x="178" y="608" on="0"/>
        <pt x="198" y="575" on="1"/>
        <pt x="335" y="348" on="1"/>
        <pt x="453" y="575" on="1"/>
        <pt x="478" y="623" on="0"/>
        <pt x="478" y="641" on="1"/>
        <pt x="478" y="665" on="0"/>
        <pt x="435" y="665" on="1"/>
        <pt x="428" y="672" on="0"/>
        <pt x="428" y="701" on="0"/>
        <pt x="430" y="703" on="1"/>
        <pt x="446" y="703" on="0"/>
        <pt x="517" y="694" on="0"/>
        <pt x="568" y="694" on="0"/>
        <pt x="631" y="703" on="0"/>
        <pt x="647" y="703" on="1"/>
        <pt x="649" y="699" on="0"/>
        <pt x="649" y="671" on="0"/>
        <pt x="643" y="665" on="1"/>
        <pt x="596" y="665" on="0"/>
        <pt x="546" y="621" on="0"/>
        <pt x="521" y="575" on="1"/>
        <pt x="362" y="275" on="1"/>
        <pt x="374" y="90" on="1"/>
        <pt x="376" y="63" on="0"/>
        <pt x="404" y="38" on="0"/>
        <pt x="440" y="38" on="1"/>
        <pt x="446" y="32" on="0"/>
        <pt x="446" y="3" on="0"/>
        <pt x="443" y="0" on="1"/>
      </contour>
    </TTGlyph>
    <TTGlyph name="Z" xMin="37" yMin="-10" xMax="537" yMax="713">
      <contour>
        <pt x="137" y="72" on="1"/>
        <pt x="130" y="62" on="0"/>
        <pt x="130" y="52" on="0"/>
        <pt x="133" y="51" on="1"/>
        <pt x="403" y="60" on="1"/>
        <pt x="450" y="61" on="0"/>
        <pt x="482" y="140" on="0"/>
        <pt x="484" y="224" on="1"/>
        <pt x="485" y="225" on="0"/>
        <pt x="500" y="225" on="0"/>
        <pt x="534" y="217" on="0"/>
        <pt x="537" y="214" on="1"/>
        <pt x="525" y="-10" on="1"/>
        <pt x="395" y="3" on="0"/>
        <pt x="126" y="3" on="0"/>
        <pt x="42" y="0" on="1"/>
        <pt x="37" y="1" on="0"/>
        <pt x="37" y="15" on="1"/>
        <pt x="45" y="67" on="1"/>
        <pt x="422" y="626" on="1"/>
        <pt x="426" y="633" on="0"/>
        <pt x="425" y="640" on="1"/>
        <pt x="424" y="645" on="0"/>
        <pt x="406" y="645" on="1"/>
        <pt x="212" y="634" on="1"/>
        <pt x="144" y="629" on="0"/>
        <pt x="108" y="589" on="0"/>
        <pt x="98" y="527" on="1"/>
        <pt x="94" y="523" on="0"/>
        <pt x="62" y="523" on="0"/>
        <pt x="59" y="527" on="1"/>
        <pt x="76" y="713" on="1"/>
        <pt x="206" y="700" on="0"/>
        <pt x="439" y="700" on="0"/>
        <pt x="523" y="703" on="1"/>
        <pt x="533" y="699" on="0"/>
        <pt x="533" y="673" on="1"/>
        <pt x="532" y="651" on="1"/>
      </contour>
    </TTGlyph>
    <TTGlyph name="Zcaron" xMin="37" yMin="-10" xMax="537" yMax="984">
      <component glyphName="Z" x="0" y="0" flags="0x1004"/>
      <component glyphName="caron" x="133" y="214" flags="0x1004"/>
    </TTGlyph>
    <TTGlyph name="a" xMin="39" yMin="-10" xMax="475" yMax="490">
      <contour>
        <pt x="115" y="-10" on="0"/>
        <pt x="39" y="61" on="0"/>
        <pt x="39" y="171" on="0"/>
        <pt x="132" y="244" on="0"/>
        <pt x="240" y="266" on="1"/>
        <pt x="309" y="280" on="1"/>
        <pt x="309" y="305" on="1"/>
        <pt x="309" y="375" on="0"/>
        <pt x="262" y="438" on="0"/>
        <pt x="207" y="438" on="1"/>
        <pt x="131" y="438" on="0"/>
        <pt x="131" y="407" on="1"/>
        <pt x="131" y="401" on="0"/>
        <pt x="155" y="374" on="0"/>
        <pt x="155" y="343" on="0"/>
        <pt x="128" y="324" on="0"/>
        <pt x="84" y="324" on="0"/>
        <pt x="57" y="350" on="0"/>
        <pt x="57" y="373" on="1"/>
        <pt x="57" y="424" on="0"/>
        <pt x="156" y="490" on="0"/>
        <pt x="214" y="490" on="1"/>
        <pt x="308" y="490" on="0"/>
        <pt x="388" y="411" on="0"/>
        <pt x="388" y="345" on="1"/>
        <pt x="388" y="343" on="0"/>
        <pt x="384" y="108" on="1"/>
        <pt x="383" y="44" on="0"/>
        <pt x="427" y="44" on="1"/>
        <pt x="445" y="44" on="0"/>
        <pt x="468" y="54" on="1"/>
        <pt x="475" y="42" on="0"/>
        <pt x="475" y="21" on="0"/>
        <pt x="473" y="19" on="1"/>
        <pt x="463" y="9" on="0"/>
        <pt x="413" y="-10" on="0"/>
        <pt x="385" y="-10" on="1"/>
        <pt x="342" y="-10" on="0"/>
        <pt x="313" y="44" on="1"/>
        <pt x="250" y="-10" on="0"/>
        <pt x="170" y="-10" on="1"/>
      </contour>
      <contour>
        <pt x="181" y="196" on="0"/>
        <pt x="130" y="157" on="0"/>
        <pt x="130" y="90" on="0"/>
        <pt x="166" y="48" on="0"/>
        <pt x="218" y="48" on="0"/>
        <pt x="287" y="71" on="0"/>
        <pt x="312" y="86" on="1"/>
        <pt x="310" y="228" on="1"/>
        <pt x="258" y="215" on="1"/>
      </contour>
    </TTGlyph>
    <TTGlyph name="aacute" xMin="39" yMin="-10" xMax="475" yMax="767">
      <contour>
        <pt x="115" y="-10" on="0"/>
        <pt x="39" y="61" on="0"/>
        <pt x="39" y="171" on="0"/>
        <pt x="132" y="244" on="0"/>
        <pt x="240" y="266" on="1"/>
        <pt x="309" y="280" on="1"/>
        <pt x="309" y="305" on="1"/>
        <pt x="309" y="375" on="0"/>
        <pt x="262" y="438" on="0"/>
        <pt x="207" y="438" on="1"/>
        <pt x="131" y="438" on="0"/>
        <pt x="131" y="407" on="1"/>
        <pt x="131" y="401" on="0"/>
        <pt x="155" y="374" on="0"/>
        <pt x="155" y="343" on="0"/>
        <pt x="128" y="324" on="0"/>
        <pt x="84" y="324" on="0"/>
        <pt x="57" y="350" on="0"/>
        <pt x="57" y="373" on="1"/>
        <pt x="57" y="424" on="0"/>
        <pt x="156" y="490" on="0"/>
        <pt x="214" y="490" on="1"/>
        <pt x="308" y="490" on="0"/>
        <pt x="388" y="411" on="0"/>
        <pt x="388" y="345" on="1"/>
        <pt x="388" y="343" on="0"/>
        <pt x="384" y="108" on="1"/>
        <pt x="383" y="44" on="0"/>
        <pt x="427" y="44" on="1"/>
        <pt x="445" y="44" on="0"/>
        <pt x="468" y="54" on="1"/>
        <pt x="475" y="42" on="0"/>
        <pt x="475" y="21" on="0"/>
        <pt x="473" y="19" on="1"/>
        <pt x="463" y="9" on="0"/>
        <pt x="413" y="-10" on="0"/>
        <pt x="385" y="-10" on="1"/>
        <pt x="342" y="-10" on="0"/>
        <pt x="313" y="44" on="1"/>
        <pt x="250" y="-10" on="0"/>
        <pt x="170" y="-10" on="1"/>
      </contour>
      <contour>
        <pt x="181" y="196" on="0"/>
        <pt x="130" y="157" on="0"/>
        <pt x="130" y="90" on="0"/>
        <pt x="166" y="48" on="0"/>
        <pt x="218" y="48" on="0"/>
        <pt x="287" y="71" on="0"/>
        <pt x="312" y="86" on="1"/>
        <pt x="310" y="228" on="1"/>
        <pt x="258" y="215" on="1"/>
      </contour>
      <contour>
        <pt x="337" y="694" on="1"/>
        <pt x="337" y="682" on="0"/>
        <pt x="172" y="573" on="0"/>
        <pt x="161" y="573" on="0"/>
        <pt x="156" y="580" on="1"/>
        <pt x="147" y="594" on="0"/>
        <pt x="145" y="609" on="1"/>
        <pt x="246" y="695" on="0"/>
        <pt x="283" y="767" on="1"/>
        <pt x="306" y="767" on="0"/>
        <pt x="337" y="708" on="0"/>
      </contour>
    </TTGlyph>
    <TTGlyph name="acircumflex" xMin="39" yMin="-10" xMax="475" yMax="755">
      <component glyphName="a" x="0" y="0" flags="0x1004"/>
      <component glyphName="circumflex" x="38" y="-15" flags="0x1004"/>
    </TTGlyph>
    <TTGlyph name="acute" xMin="34" yMin="583" xMax="226" yMax="777">
      <contour>
        <pt x="226" y="704" on="1"/>
        <pt x="226" y="692" on="0"/>
        <pt x="61" y="583" on="0"/>
        <pt x="50" y="583" on="0"/>
        <pt x="45" y="590" on="1"/>
        <pt x="36" y="604" on="0"/>
        <pt x="34" y="619" on="1"/>
        <pt x="135" y="705" on="0"/>
        <pt x="172" y="777" on="1"/>
        <pt x="195" y="777" on="0"/>
        <pt x="226" y="718" on="0"/>
      </contour>
    </TTGlyph>
    <TTGlyph name="adieresis" xMin="39" yMin="-10" xMax="475" yMax="694">
      <component glyphName="a" x="0" y="0" flags="0x1004"/>
      <component glyphName="dieresis" x="57" y="18" flags="0x1004"/>
    </TTGlyph>
    <TTGlyph name="ae" xMin="39" yMin="-10" xMax="677" yMax="490">
      <contour>
        <pt x="490" y="-10" on="1"/>
        <pt x="452" y="-10" on="0"/>
        <pt x="369" y="30" on="0"/>
        <pt x="346" y="70" on="1"/>
        <pt x="313" y="35" on="0"/>
        <pt x="219" y="-10" on="0"/>
        <pt x="115" y="-10" on="0"/>
        <pt x="39" y="61" on="0"/>
        <pt x="39" y="169" on="0"/>
        <pt x="134" y="244" on="0"/>
        <pt x="240" y="266" on="1"/>
        <pt x="309" y="280" on="1"/>
        <pt x="309" y="306" on="1"/>
        <pt x="309" y="378" on="0"/>
        <pt x="263" y="438" on="0"/>
        <pt x="207" y="438" on="1"/>
        <pt x="131" y="438" on="0"/>
        <pt x="131" y="407" on="1"/>
        <pt x="131" y="401" on="0"/>
        <pt x="155" y="374" on="0"/>
        <pt x="155" y="343" on="0"/>
        <pt x="128" y="324" on="0"/>
        <pt x="84" y="324" on="0"/>
        <pt x="57" y="350" on="0"/>
        <pt x="57" y="373" on="1"/>
        <pt x="57" y="424" on="0"/>
        <pt x="156" y="490" on="0"/>
        <pt x="214" y="490" on="1"/>
        <pt x="317" y="490" on="0"/>
        <pt x="365" y="432" on="1"/>
        <pt x="421" y="490" on="0"/>
        <pt x="594" y="490" on="0"/>
        <pt x="677" y="353" on="0"/>
        <pt x="677" y="245" on="1"/>
        <pt x="386" y="245" on="1"/>
        <pt x="386" y="167" on="0"/>
        <pt x="453" y="53" on="0"/>
        <pt x="503" y="53" on="1"/>
        <pt x="591" y="53" on="0"/>
        <pt x="654" y="97" on="1"/>
        <pt x="670" y="81" on="0"/>
        <pt x="670" y="63" on="0"/>
        <pt x="665" y="58" on="1"/>
        <pt x="597" y="-10" on="0"/>
      </contour>
      <contour>
        <pt x="142" y="164" on="0"/>
        <pt x="130" y="138" on="0"/>
        <pt x="130" y="90" on="0"/>
        <pt x="166" y="48" on="0"/>
        <pt x="218" y="48" on="0"/>
        <pt x="287" y="71" on="0"/>
        <pt x="312" y="86" on="1"/>
        <pt x="310" y="228" on="1"/>
        <pt x="192" y="204" on="0"/>
        <pt x="160" y="178" on="1"/>
      </contour>
      <contour>
        <pt x="589" y="302" on="1"/>
        <pt x="590" y="318" on="1"/>
        <pt x="590" y="365" on="0"/>
        <pt x="547" y="442" on="0"/>
        <pt x="455" y="442" on="0"/>
        <pt x="392" y="363" on="0"/>
        <pt x="387" y="297" on="1"/>
        <pt x="520" y="296" on="1"/>
        <pt x="581" y="296" on="0"/>
      </contour>
    </TTGlyph>
    <TTGlyph name="agrave" xMin="39" yMin="-10" xMax="475" yMax="767">
      <component glyphName="a" x="0" y="0" flags="0x1004"/>
      <component glyphName="grave" x="56" y="2" flags="0x1004"/>
    </TTGlyph>
    <TTGlyph name="ampersand" xMin="62" yMin="-10" xMax="768" yMax="713">
      <contour>
        <pt x="202" y="326" on="0"/>
        <pt x="146" y="236" on="0"/>
        <pt x="146" y="115" on="0"/>
        <pt x="229" y="42" on="0"/>
        <pt x="345" y="42" on="0"/>
        <pt x="426" y="104" on="0"/>
        <pt x="463" y="158" on="1"/>
        <pt x="258" y="367" on="1"/>
      </contour>
      <contour>
        <pt x="375" y="603" on="0"/>
        <pt x="326" y="661" on="0"/>
        <pt x="244" y="661" on="0"/>
        <pt x="198" y="608" on="0"/>
        <pt x="198" y="570" on="1"/>
        <pt x="198" y="513" on="0"/>
        <pt x="278" y="448" on="1"/>
        <pt x="375" y="514" on="0"/>
        <pt x="375" y="564" on="1"/>
      </contour>
      <contour>
        <pt x="633" y="419" on="1"/>
        <pt x="733" y="429" on="1"/>
        <pt x="735" y="427" on="0"/>
        <pt x="735" y="399" on="0"/>
        <pt x="727" y="391" on="1"/>
        <pt x="716" y="391" on="1"/>
        <pt x="661" y="391" on="0"/>
        <pt x="634" y="344" on="1"/>
        <pt x="530" y="168" on="1"/>
        <pt x="572" y="121" on="1"/>
        <pt x="619" y="69" on="0"/>
        <pt x="669" y="39" on="0"/>
        <pt x="737" y="39" on="0"/>
        <pt x="760" y="57" on="1"/>
        <pt x="768" y="48" on="0"/>
        <pt x="768" y="18" on="0"/>
        <pt x="721" y="-10" on="0"/>
        <pt x="693" y="-10" on="1"/>
        <pt x="631" y="-10" on="0"/>
        <pt x="555" y="64" on="1"/>
        <pt x="500" y="120" on="1"/>
        <pt x="453" y="55" on="0"/>
        <pt x="352" y="-10" on="0"/>
        <pt x="197" y="-10" on="0"/>
        <pt x="62" y="94" on="0"/>
        <pt x="62" y="174" on="1"/>
        <pt x="62" y="248" on="0"/>
        <pt x="114" y="310" on="1"/>
        <pt x="157" y="361" on="0"/>
        <pt x="213" y="407" on="1"/>
        <pt x="116" y="481" on="0"/>
        <pt x="116" y="563" on="1"/>
        <pt x="116" y="627" on="0"/>
        <pt x="216" y="713" on="0"/>
        <pt x="350" y="713" on="0"/>
        <pt x="435" y="638" on="0"/>
        <pt x="435" y="524" on="0"/>
        <pt x="379" y="448" on="0"/>
        <pt x="321" y="408" on="1"/>
        <pt x="493" y="210" on="1"/>
        <pt x="569" y="344" on="1"/>
        <pt x="576" y="357" on="0"/>
        <pt x="576" y="366" on="1"/>
        <pt x="576" y="391" on="0"/>
        <pt x="508" y="391" on="1"/>
        <pt x="501" y="396" on="0"/>
        <pt x="501" y="427" on="0"/>
        <pt x="503" y="429" on="1"/>
      </contour>
    </TTGlyph>
    <TTGlyph name="approxequal" xMin="72" yMin="141" xMax="513" yMax="388">
      <contour>
        <pt x="491" y="325" on="0"/>
        <pt x="415" y="293" on="0"/>
        <pt x="342" y="293" on="0"/>
        <pt x="234" y="330" on="0"/>
        <pt x="214" y="330" on="1"/>
        <pt x="159" y="330" on="0"/>
        <pt x="89" y="295" on="1"/>
        <pt x="72" y="304" on="0"/>
        <pt x="72" y="326" on="1"/>
        <pt x="73" y="334" on="1"/>
        <pt x="93" y="351" on="0"/>
        <pt x="189" y="388" on="0"/>
        <pt x="268" y="388" on="0"/>
        <pt x="380" y="351" on="0"/>
        <pt x="413" y="351" on="0"/>
        <pt x="434" y="354" on="0"/>
        <pt x="445" y="358" on="1"/>
        <pt x="481" y="371" on="0"/>
        <pt x="496" y="381" on="1"/>
        <pt x="513" y="371" on="0"/>
        <pt x="513" y="350" on="1"/>
        <pt x="512" y="342" on="1"/>
      </contour>
      <contour>
        <pt x="491" y="173" on="0"/>
        <pt x="415" y="141" on="0"/>
        <pt x="342" y="141" on="0"/>
        <pt x="234" y="178" on="0"/>
        <pt x="214" y="178" on="1"/>
        <pt x="159" y="178" on="0"/>
        <pt x="89" y="143" on="1"/>
        <pt x="72" y="152" on="0"/>
        <pt x="72" y="174" on="1"/>
        <pt x="73" y="182" on="1"/>
        <pt x="93" y="199" on="0"/>
        <pt x="189" y="236" on="0"/>
        <pt x="268" y="236" on="0"/>
        <pt x="380" y="199" on="0"/>
        <pt x="413" y="199" on="0"/>
        <pt x="434" y="202" on="0"/>
        <pt x="445" y="206" on="1"/>
        <pt x="481" y="219" on="0"/>
        <pt x="496" y="229" on="1"/>
        <pt x="513" y="219" on="0"/>
        <pt x="513" y="198" on="1"/>
        <pt x="512" y="190" on="1"/>
      </contour>
    </TTGlyph>
    <TTGlyph name="aring" xMin="39" yMin="-10" xMax="475" yMax="760">
      <component glyphName="a" x="0" y="0" flags="0x1004"/>
      <component glyphName="ring" x="103" y="-10" flags="0x1004"/>
    </TTGlyph>
    <TTGlyph name="asciicircum" xMin="22" yMin="355" xMax="434" yMax="707">
      <contour>
        <pt x="210" y="703" on="1"/>
        <pt x="214" y="707" on="0"/>
        <pt x="240" y="707" on="0"/>
        <pt x="246" y="703" on="1"/>
        <pt x="434" y="359" on="1"/>
        <pt x="429" y="355" on="0"/>
        <pt x="382" y="355" on="0"/>
        <pt x="378" y="359" on="1"/>
        <pt x="228" y="605" on="1"/>
        <pt x="78" y="359" on="1"/>
        <pt x="73" y="355" on="0"/>
        <pt x="26" y="355" on="0"/>
        <pt x="22" y="359" on="1"/>
      </contour>
    </TTGlyph>
    <TTGlyph name="asciitilde" xMin="65" yMin="216" xMax="506" yMax="311">
      <contour>
        <pt x="484" y="248" on="0"/>
        <pt x="408" y="216" on="0"/>
        <pt x="335" y="216" on="0"/>
        <pt x="227" y="253" on="0"/>
        <pt x="207" y="253" on="1"/>
        <pt x="152" y="253" on="0"/>
        <pt x="82" y="218" on="1"/>
        <pt x="65" y="226" on="0"/>
        <pt x="65" y="249" on="1"/>
        <pt x="66" y="257" on="1"/>
        <pt x="86" y="274" on="0"/>
        <pt x="182" y="311" on="0"/>
        <pt x="260" y="311" on="0"/>
        <pt x="372" y="274" on="0"/>
        <pt x="406" y="274" on="0"/>
        <pt x="427" y="277" on="0"/>
        <pt x="438" y="281" on="1"/>
        <pt x="474" y="294" on="0"/>
        <pt x="489" y="304" on="1"/>
        <pt x="506" y="294" on="0"/>
        <pt x="506" y="273" on="1"/>
        <pt x="505" y="265" on="1"/>
      </contour>
    </TTGlyph>
    <TTGlyph name="asterisk" xMin="50" yMin="372" xMax="381" yMax="770">
      <contour>
        <pt x="342" y="449" on="1"/>
        <pt x="319" y="449" on="0"/>
        <pt x="233" y="526" on="1"/>
        <pt x="232" y="510" on="0"/>
        <pt x="232" y="476" on="1"/>
        <pt x="232" y="402" on="0"/>
        <pt x="249" y="387" on="1"/>
        <pt x="240" y="372" on="0"/>
        <pt x="219" y="372" on="1"/>
        <pt x="170" y="372" on="0"/>
        <pt x="170" y="400" on="1"/>
        <pt x="170" y="437" on="0"/>
        <pt x="191" y="534" on="1"/>
        <pt x="96" y="483" on="0"/>
        <pt x="91" y="456" on="1"/>
        <pt x="77" y="456" on="0"/>
        <pt x="51" y="495" on="0"/>
        <pt x="51" y="524" on="0"/>
        <pt x="63" y="532" on="1"/>
        <pt x="96" y="553" on="0"/>
        <pt x="178" y="577" on="1"/>
        <pt x="105" y="623" on="0"/>
        <pt x="65" y="632" on="0"/>
        <pt x="55" y="630" on="1"/>
        <pt x="51" y="638" on="0"/>
        <pt x="51" y="654" on="0"/>
        <pt x="56" y="662" on="1"/>
        <pt x="77" y="698" on="0"/>
        <pt x="108" y="698" on="0"/>
        <pt x="198" y="618" on="1"/>
        <pt x="199" y="634" on="0"/>
        <pt x="199" y="669" on="1"/>
        <pt x="199" y="742" on="0"/>
        <pt x="183" y="757" on="1"/>
        <pt x="191" y="770" on="0"/>
        <pt x="238" y="770" on="0"/>
        <pt x="263" y="754" on="0"/>
        <pt x="263" y="744" on="1"/>
        <pt x="263" y="714" on="0"/>
        <pt x="240" y="610" on="1"/>
        <pt x="336" y="659" on="0"/>
        <pt x="341" y="688" on="1"/>
        <pt x="357" y="688" on="0"/>
        <pt x="380" y="655" on="0"/>
        <pt x="380" y="618" on="0"/>
        <pt x="370" y="613" on="1"/>
        <pt x="332" y="592" on="0"/>
        <pt x="253" y="566" on="1"/>
        <pt x="259" y="563" on="0"/>
        <pt x="285" y="546" on="0"/>
        <pt x="296" y="539" on="0"/>
        <pt x="322" y="525" on="0"/>
        <pt x="333" y="521" on="0"/>
        <pt x="358" y="512" on="0"/>
        <pt x="367" y="515" on="0"/>
        <pt x="378" y="515" on="1"/>
        <pt x="381" y="509" on="0"/>
        <pt x="381" y="482" on="0"/>
        <pt x="355" y="449" on="0"/>
      </contour>
    </TTGlyph>
    <TTGlyph name="at" xMin="51" yMin="-133" xMax="711" yMax="559">
      <contour>
        <pt x="305" y="162" on="0"/>
        <pt x="305" y="112" on="0"/>
        <pt x="333" y="81" on="0"/>
        <pt x="391" y="81" on="0"/>
        <pt x="443" y="108" on="1"/>
        <pt x="441" y="215" on="1"/>
        <pt x="344" y="190" on="0"/>
      </contour>
      <contour>
        <pt x="711" y="279" on="1"/>
        <pt x="711" y="183" on="0"/>
        <pt x="613" y="37" on="0"/>
        <pt x="527" y="37" on="1"/>
        <pt x="463" y="37" on="0"/>
        <pt x="443" y="78" on="1"/>
        <pt x="396" y="37" on="0"/>
        <pt x="335" y="37" on="1"/>
        <pt x="294" y="37" on="0"/>
        <pt x="237" y="91" on="0"/>
        <pt x="237" y="173" on="0"/>
        <pt x="307" y="229" on="0"/>
        <pt x="388" y="244" on="1"/>
        <pt x="440" y="254" on="1"/>
        <pt x="440" y="263" on="0"/>
        <pt x="440" y="271" on="1"/>
        <pt x="440" y="318" on="0"/>
        <pt x="410" y="373" on="0"/>
        <pt x="306" y="373" on="0"/>
        <pt x="306" y="350" on="1"/>
        <pt x="306" y="346" on="0"/>
        <pt x="325" y="325" on="0"/>
        <pt x="325" y="313" on="1"/>
        <pt x="325" y="288" on="0"/>
        <pt x="287" y="288" on="1"/>
        <pt x="271" y="288" on="0"/>
        <pt x="250" y="308" on="0"/>
        <pt x="250" y="324" on="1"/>
        <pt x="250" y="363" on="0"/>
        <pt x="324" y="412" on="0"/>
        <pt x="368" y="412" on="1"/>
        <pt x="439" y="412" on="0"/>
        <pt x="499" y="353" on="0"/>
        <pt x="499" y="304" on="1"/>
        <pt x="499" y="303" on="0"/>
        <pt x="495" y="144" on="1"/>
        <pt x="494" y="82" on="0"/>
        <pt x="550" y="82" on="1"/>
        <pt x="589" y="82" on="0"/>
        <pt x="641" y="185" on="0"/>
        <pt x="641" y="273" on="1"/>
        <pt x="641" y="391" on="0"/>
        <pt x="499" y="518" on="0"/>
        <pt x="382" y="518" on="1"/>
        <pt x="304" y="518" on="0"/>
        <pt x="181" y="422" on="0"/>
        <pt x="121" y="286" on="0"/>
        <pt x="121" y="215" on="1"/>
        <pt x="121" y="79" on="0"/>
        <pt x="292" y="-88" on="0"/>
        <pt x="428" y="-88" on="1"/>
        <pt x="500" y="-88" on="0"/>
        <pt x="583" y="-53" on="1"/>
        <pt x="592" y="-57" on="0"/>
        <pt x="592" y="-73" on="1"/>
        <pt x="591" y="-82" on="1"/>
        <pt x="510" y="-133" on="0"/>
        <pt x="398" y="-133" on="1"/>
        <pt x="251" y="-133" on="0"/>
        <pt x="51" y="66" on="0"/>
        <pt x="51" y="350" on="0"/>
        <pt x="248" y="559" on="0"/>
        <pt x="523" y="559" on="0"/>
        <pt x="711" y="408" on="0"/>
      </contour>
    </TTGlyph>
    <TTGlyph name="atilde" xMin="39" yMin="-10" xMax="475" yMax="685">
      <contour>
        <pt x="115" y="-10" on="0"/>
        <pt x="39" y="61" on="0"/>
        <pt x="39" y="171" on="0"/>
        <pt x="132" y="244" on="0"/>
        <pt x="240" y="266" on="1"/>
        <pt x="309" y="280" on="1"/>
        <pt x="309" y="305" on="1"/>
        <pt x="309" y="375" on="0"/>
        <pt x="262" y="438" on="0"/>
        <pt x="207" y="438" on="1"/>
        <pt x="131" y="438" on="0"/>
        <pt x="131" y="407" on="1"/>
        <pt x="131" y="401" on="0"/>
        <pt x="155" y="374" on="0"/>
        <pt x="155" y="343" on="0"/>
        <pt x="128" y="324" on="0"/>
        <pt x="84" y="324" on="0"/>
        <pt x="57" y="350" on="0"/>
        <pt x="57" y="373" on="1"/>
        <pt x="57" y="424" on="0"/>
        <pt x="156" y="490" on="0"/>
        <pt x="214" y="490" on="1"/>
        <pt x="308" y="490" on="0"/>
        <pt x="388" y="411" on="0"/>
        <pt x="388" y="345" on="1"/>
        <pt x="388" y="343" on="0"/>
        <pt x="384" y="108" on="1"/>
        <pt x="383" y="44" on="0"/>
        <pt x="427" y="44" on="1"/>
        <pt x="445" y="44" on="0"/>
        <pt x="468" y="54" on="1"/>
        <pt x="475" y="42" on="0"/>
        <pt x="475" y="21" on="0"/>
        <pt x="473" y="19" on="1"/>
        <pt x="463" y="9" on="0"/>
        <pt x="413" y="-10" on="0"/>
        <pt x="385" y="-10" on="1"/>
        <pt x="342" y="-10" on="0"/>
        <pt x="313" y="44" on="1"/>
        <pt x="250" y="-10" on="0"/>
        <pt x="170" y="-10" on="1"/>
      </contour>
      <contour>
        <pt x="181" y="196" on="0"/>
        <pt x="130" y="157" on="0"/>
        <pt x="130" y="90" on="0"/>
        <pt x="166" y="48" on="0"/>
        <pt x="218" y="48" on="0"/>
        <pt x="287" y="71" on="0"/>
        <pt x="312" y="86" on="1"/>
        <pt x="310" y="228" on="1"/>
        <pt x="258" y="215" on="1"/>
      </contour>
      <contour>
        <pt x="359" y="621" on="0"/>
        <pt x="295" y="585" on="0"/>
        <pt x="239" y="585" on="0"/>
        <pt x="154" y="629" on="0"/>
        <pt x="137" y="629" on="1"/>
        <pt x="106" y="629" on="0"/>
        <pt x="70" y="593" on="1"/>
        <pt x="55" y="596" on="0"/>
        <pt x="55" y="626" on="1"/>
        <pt x="56" y="632" on="1"/>
        <pt x="71" y="649" on="0"/>
        <pt x="138" y="685" on="0"/>
        <pt x="196" y="685" on="0"/>
        <pt x="276" y="642" on="0"/>
        <pt x="294" y="642" on="1"/>
        <pt x="325" y="642" on="0"/>
        <pt x="361" y="678" on="1"/>
        <pt x="376" y="675" on="0"/>
        <pt x="376" y="646" on="1"/>
        <pt x="375" y="639" on="1"/>
      </contour>
    </TTGlyph>
    <TTGlyph name="b" xMin="-7" yMin="-10" xMax="502" yMax="764">
      <contour>
        <pt x="415" y="235" on="1"/>
        <pt x="415" y="442" on="0"/>
        <pt x="278" y="442" on="1"/>
        <pt x="236" y="442" on="0"/>
        <pt x="154" y="374" on="0"/>
        <pt x="155" y="334" on="1"/>
        <pt x="161" y="123" on="1"/>
        <pt x="179" y="90" on="0"/>
        <pt x="245" y="43" on="0"/>
        <pt x="277" y="43" on="1"/>
        <pt x="344" y="43" on="0"/>
        <pt x="415" y="156" on="0"/>
      </contour>
      <contour>
        <pt x="110" y="-6" on="1"/>
        <pt x="106" y="-10" on="0"/>
        <pt x="77" y="-10" on="0"/>
        <pt x="74" y="-6" on="1"/>
        <pt x="79" y="637" on="1"/>
        <pt x="79" y="688" on="0"/>
        <pt x="-4" y="688" on="1"/>
        <pt x="-7" y="691" on="0"/>
        <pt x="-7" y="718" on="0"/>
        <pt x="-1" y="724" on="1"/>
        <pt x="37" y="727" on="0"/>
        <pt x="86" y="740" on="0"/>
        <pt x="106" y="760" on="1"/>
        <pt x="110" y="764" on="0"/>
        <pt x="136" y="764" on="0"/>
        <pt x="142" y="760" on="1"/>
        <pt x="152" y="431" on="1"/>
        <pt x="211" y="490" on="0"/>
        <pt x="389" y="490" on="0"/>
        <pt x="502" y="341" on="0"/>
        <pt x="502" y="128" on="0"/>
        <pt x="395" y="-10" on="0"/>
        <pt x="299" y="-10" on="1"/>
        <pt x="255" y="-10" on="0"/>
        <pt x="172" y="36" on="0"/>
        <pt x="145" y="71" on="1"/>
      </contour>
    </TTGlyph>
    <TTGlyph name="backslash" xMin="34" yMin="-15" xMax="360" yMax="786">
      <contour>
        <pt x="34" y="763" on="1"/>
        <pt x="39" y="773" on="0"/>
        <pt x="72" y="785" on="0"/>
        <pt x="100" y="786" on="1"/>
        <pt x="130" y="680" on="0"/>
        <pt x="320" y="108" on="0"/>
        <pt x="360" y="3" on="1"/>
        <pt x="346" y="-15" on="0"/>
        <pt x="293" y="-15" on="1"/>
        <pt x="264" y="90" on="0"/>
        <pt x="75" y="656" on="0"/>
      </contour>
    </TTGlyph>
    <TTGlyph name="bar" xMin="72" yMin="-290" xMax="161" yMax="770">
      <contour>
        <pt x="146" y="327" on="1"/>
        <pt x="151" y="-226" on="1"/>
        <pt x="151" y="-277" on="1"/>
        <pt x="138" y="-290" on="0"/>
        <pt x="82" y="-290" on="0"/>
        <pt x="72" y="-275" on="1"/>
        <pt x="86" y="-143" on="0"/>
        <pt x="86" y="139" on="1"/>
        <pt x="81" y="676" on="1"/>
        <pt x="81" y="734" on="0"/>
        <pt x="82" y="757" on="1"/>
        <pt x="95" y="770" on="0"/>
        <pt x="151" y="770" on="0"/>
        <pt x="161" y="755" on="1"/>
        <pt x="146" y="620" on="0"/>
      </contour>
    </TTGlyph>
    <TTGlyph name="braceleft" xMin="20" yMin="-290" xMax="309" yMax="770">
      <contour>
        <pt x="307" y="-248" on="1"/>
        <pt x="309" y="-252" on="0"/>
        <pt x="309" y="-283" on="0"/>
        <pt x="302" y="-290" on="1"/>
        <pt x="185" y="-290" on="0"/>
        <pt x="106" y="-195" on="0"/>
        <pt x="106" y="-71" on="1"/>
        <pt x="106" y="71" on="0"/>
        <pt x="93" y="172" on="0"/>
        <pt x="83" y="188" on="1"/>
        <pt x="65" y="219" on="0"/>
        <pt x="24" y="219" on="1"/>
        <pt x="20" y="222" on="0"/>
        <pt x="20" y="257" on="0"/>
        <pt x="24" y="261" on="1"/>
        <pt x="65" y="261" on="0"/>
        <pt x="83" y="292" on="1"/>
        <pt x="100" y="319" on="0"/>
        <pt x="106" y="473" on="0"/>
        <pt x="106" y="551" on="1"/>
        <pt x="106" y="675" on="0"/>
        <pt x="185" y="770" on="0"/>
        <pt x="302" y="770" on="1"/>
        <pt x="309" y="761" on="0"/>
        <pt x="309" y="730" on="0"/>
        <pt x="307" y="728" on="1"/>
        <pt x="285" y="730" on="0"/>
        <pt x="276" y="730" on="1"/>
        <pt x="213" y="730" on="0"/>
        <pt x="175" y="651" on="0"/>
        <pt x="175" y="567" on="1"/>
        <pt x="180" y="376" on="0"/>
        <pt x="180" y="373" on="1"/>
        <pt x="180" y="315" on="0"/>
        <pt x="113" y="244" on="0"/>
        <pt x="82" y="240" on="1"/>
        <pt x="113" y="236" on="0"/>
        <pt x="180" y="164" on="0"/>
        <pt x="180" y="107" on="1"/>
        <pt x="180" y="104" on="0"/>
        <pt x="175" y="-87" on="1"/>
        <pt x="175" y="-172" on="0"/>
        <pt x="213" y="-250" on="0"/>
        <pt x="276" y="-250" on="1"/>
        <pt x="285" y="-250" on="0"/>
      </contour>
    </TTGlyph>
    <TTGlyph name="braceright" xMin="11" yMin="-290" xMax="300" yMax="770">
      <contour>
        <pt x="13" y="-248" on="1"/>
        <pt x="35" y="-250" on="0"/>
        <pt x="77" y="-250" on="0"/>
        <pt x="98" y="-239" on="1"/>
        <pt x="145" y="-215" on="0"/>
        <pt x="145" y="-106" on="1"/>
        <pt x="145" y="-96" on="0"/>
        <pt x="140" y="103" on="0"/>
        <pt x="140" y="107" on="1"/>
        <pt x="140" y="164" on="0"/>
        <pt x="207" y="236" on="0"/>
        <pt x="238" y="240" on="1"/>
        <pt x="207" y="244" on="0"/>
        <pt x="140" y="315" on="0"/>
        <pt x="140" y="373" on="1"/>
        <pt x="140" y="376" on="0"/>
        <pt x="146" y="580" on="0"/>
        <pt x="146" y="629" on="0"/>
        <pt x="135" y="686" on="0"/>
        <pt x="88" y="730" on="0"/>
        <pt x="44" y="730" on="1"/>
        <pt x="35" y="730" on="0"/>
        <pt x="13" y="728" on="1"/>
        <pt x="11" y="730" on="0"/>
        <pt x="11" y="761" on="0"/>
        <pt x="18" y="770" on="1"/>
        <pt x="135" y="770" on="0"/>
        <pt x="214" y="675" on="0"/>
        <pt x="214" y="551" on="1"/>
        <pt x="214" y="409" on="0"/>
        <pt x="227" y="308" on="0"/>
        <pt x="237" y="292" on="1"/>
        <pt x="255" y="261" on="0"/>
        <pt x="296" y="261" on="1"/>
        <pt x="300" y="257" on="0"/>
        <pt x="300" y="222" on="0"/>
        <pt x="296" y="219" on="1"/>
        <pt x="255" y="219" on="0"/>
        <pt x="237" y="188" on="1"/>
        <pt x="220" y="161" on="0"/>
        <pt x="214" y="7" on="0"/>
        <pt x="214" y="-71" on="1"/>
        <pt x="214" y="-195" on="0"/>
        <pt x="135" y="-290" on="0"/>
        <pt x="18" y="-290" on="1"/>
        <pt x="11" y="-283" on="0"/>
        <pt x="11" y="-252" on="0"/>
      </contour>
    </TTGlyph>
    <TTGlyph name="bracketleft" xMin="78" yMin="-290" xMax="369" yMax="770">
      <contour>
        <pt x="361" y="770" on="1"/>
        <pt x="367" y="761" on="0"/>
        <pt x="367" y="734" on="0"/>
        <pt x="358" y="707" on="1"/>
        <pt x="314" y="711" on="0"/>
        <pt x="179" y="711" on="1"/>
        <pt x="145" y="711" on="1"/>
        <pt x="150" y="-229" on="1"/>
        <pt x="335" y="-229" on="0"/>
        <pt x="360" y="-227" on="1"/>
        <pt x="369" y="-249" on="0"/>
        <pt x="369" y="-282" on="0"/>
        <pt x="363" y="-290" on="1"/>
        <pt x="256" y="-280" on="0"/>
        <pt x="106" y="-280" on="0"/>
        <pt x="78" y="-281" on="1"/>
        <pt x="88" y="760" on="1"/>
        <pt x="113" y="759" on="0"/>
        <pt x="252" y="759" on="0"/>
      </contour>
    </TTGlyph>
    <TTGlyph name="bracketright" xMin="7" yMin="-290" xMax="298" yMax="770">
      <contour>
        <pt x="13" y="-290" on="1"/>
        <pt x="7" y="-284" on="0"/>
        <pt x="7" y="-249" on="0"/>
        <pt x="16" y="-227" on="1"/>
        <pt x="41" y="-229" on="0"/>
        <pt x="226" y="-229" on="1"/>
        <pt x="231" y="711" on="1"/>
        <pt x="197" y="711" on="1"/>
        <pt x="62" y="711" on="0"/>
        <pt x="18" y="707" on="1"/>
        <pt x="9" y="729" on="0"/>
        <pt x="9" y="763" on="0"/>
        <pt x="15" y="770" on="1"/>
        <pt x="124" y="759" on="0"/>
        <pt x="263" y="759" on="0"/>
        <pt x="288" y="760" on="1"/>
        <pt x="298" y="-281" on="1"/>
        <pt x="270" y="-280" on="0"/>
        <pt x="120" y="-280" on="0"/>
      </contour>
    </TTGlyph>
    <TTGlyph name="brokenbar" xMin="72" yMin="-289" xMax="161" yMax="771">
      <contour>
        <pt x="85" y="356" on="1"/>
        <pt x="81" y="716" on="1"/>
        <pt x="81" y="756" on="0"/>
        <pt x="82" y="758" on="1"/>
        <pt x="95" y="771" on="0"/>
        <pt x="151" y="771" on="0"/>
        <pt x="161" y="756" on="1"/>
        <pt x="148" y="714" on="0"/>
        <pt x="146" y="294" on="1"/>
        <pt x="112" y="289" on="0"/>
        <pt x="86" y="289" on="0"/>
        <pt x="86" y="291" on="1"/>
        <pt x="85" y="327" on="0"/>
      </contour>
      <contour>
        <pt x="151" y="-276" on="1"/>
        <pt x="138" y="-289" on="0"/>
        <pt x="82" y="-289" on="0"/>
        <pt x="72" y="-274" on="1"/>
        <pt x="85" y="-243" on="0"/>
        <pt x="85" y="-43" on="1"/>
        <pt x="85" y="71" on="1"/>
        <pt x="85" y="151" on="0"/>
        <pt x="86" y="186" on="1"/>
        <pt x="117" y="191" on="0"/>
        <pt x="143" y="191" on="0"/>
        <pt x="146" y="188" on="1"/>
        <pt x="147" y="119" on="0"/>
        <pt x="149" y="14" on="0"/>
        <pt x="150" y="-44" on="1"/>
        <pt x="152" y="-158" on="0"/>
        <pt x="152" y="-204" on="1"/>
        <pt x="152" y="-258" on="1"/>
        <pt x="152" y="-266" on="0"/>
      </contour>
    </TTGlyph>
    <TTGlyph name="bullet" xMin="92" yMin="178" xMax="241" yMax="329">
      <contour>
        <pt x="241" y="217" on="0"/>
        <pt x="200" y="178" on="0"/>
        <pt x="131" y="178" on="0"/>
        <pt x="92" y="219" on="0"/>
        <pt x="92" y="286" on="0"/>
        <pt x="131" y="329" on="0"/>
        <pt x="195" y="329" on="0"/>
        <pt x="241" y="284" on="0"/>
      </contour>
    </TTGlyph>
    <TTGlyph name="c" xMin="44" yMin="-10" xMax="417" yMax="490">
      <contour>
        <pt x="412" y="59" on="1"/>
        <pt x="348" y="-10" on="0"/>
        <pt x="147" y="-10" on="0"/>
        <pt x="44" y="128" on="0"/>
        <pt x="44" y="346" on="0"/>
        <pt x="162" y="490" on="0"/>
        <pt x="265" y="490" on="1"/>
        <pt x="330" y="490" on="0"/>
        <pt x="412" y="424" on="0"/>
        <pt x="412" y="375" on="1"/>
        <pt x="412" y="352" on="0"/>
        <pt x="386" y="326" on="0"/>
        <pt x="341" y="326" on="0"/>
        <pt x="314" y="345" on="0"/>
        <pt x="314" y="376" on="0"/>
        <pt x="338" y="403" on="0"/>
        <pt x="338" y="409" on="1"/>
        <pt x="338" y="422" on="0"/>
        <pt x="288" y="442" on="0"/>
        <pt x="264" y="442" on="1"/>
        <pt x="205" y="442" on="0"/>
        <pt x="131" y="346" on="0"/>
        <pt x="131" y="262" on="1"/>
        <pt x="131" y="53" on="0"/>
        <pt x="259" y="53" on="1"/>
        <pt x="296" y="53" on="0"/>
        <pt x="376" y="78" on="0"/>
        <pt x="401" y="98" on="1"/>
        <pt x="405" y="95" on="0"/>
        <pt x="417" y="73" on="0"/>
        <pt x="417" y="64" on="0"/>
      </contour>
    </TTGlyph>
    <TTGlyph name="caron" xMin="20" yMin="572" xMax="336" yMax="770">
      <contour>
        <pt x="86" y="672" on="0"/>
        <pt x="30" y="726" on="0"/>
        <pt x="21" y="735" on="0"/>
        <pt x="21" y="743" on="0"/>
        <pt x="29" y="757" on="0"/>
        <pt x="32" y="761" on="1"/>
        <pt x="40" y="770" on="0"/>
        <pt x="45" y="770" on="0"/>
        <pt x="68" y="754" on="1"/>
        <pt x="125" y="711" on="0"/>
        <pt x="178" y="663" on="1"/>
        <pt x="231" y="711" on="0"/>
        <pt x="311" y="770" on="0"/>
        <pt x="314" y="770" on="0"/>
        <pt x="317" y="768" on="1"/>
        <pt x="324" y="762" on="0"/>
        <pt x="335" y="743" on="0"/>
        <pt x="335" y="735" on="0"/>
        <pt x="326" y="726" on="0"/>
        <pt x="270" y="672" on="0"/>
        <pt x="257" y="658" on="1"/>
        <pt x="218" y="618" on="0"/>
        <pt x="196" y="576" on="1"/>
        <pt x="192" y="572" on="0"/>
        <pt x="164" y="572" on="0"/>
        <pt x="160" y="576" on="1"/>
        <pt x="138" y="618" on="0"/>
        <pt x="99" y="658" on="1"/>
      </contour>
    </TTGlyph>
    <TTGlyph name="ccedilla" xMin="44" yMin="-235" xMax="417" yMax="490">
      <component glyphName="c" x="0" y="0" flags="0x1004"/>
      <component glyphName="cedilla" x="119" y="0" flags="0x1004"/>
    </TTGlyph>
    <TTGlyph name="cedilla" xMin="27" yMin="-235" xMax="196" yMax="29">
      <contour>
        <pt x="123" y="-206" on="0"/>
        <pt x="150" y="-168" on="0"/>
        <pt x="150" y="-137" on="0"/>
        <pt x="147" y="-124" on="0"/>
        <pt x="144" y="-114" on="0"/>
        <pt x="139" y="-108" on="1"/>
        <pt x="129" y="-96" on="0"/>
        <pt x="113" y="-83" on="0"/>
        <pt x="107" y="-78" on="0"/>
        <pt x="86" y="-63" on="0"/>
        <pt x="77" y="-57" on="0"/>
        <pt x="77" y="-45" on="0"/>
        <pt x="82" y="-35" on="1"/>
        <pt x="113" y="29" on="1"/>
        <pt x="148" y="29" on="1"/>
        <pt x="116" y="-35" on="0"/>
        <pt x="116" y="-42" on="0"/>
        <pt x="121" y="-46" on="1"/>
        <pt x="196" y="-96" on="0"/>
        <pt x="196" y="-149" on="1"/>
        <pt x="196" y="-185" on="0"/>
        <pt x="144" y="-235" on="0"/>
        <pt x="76" y="-235" on="0"/>
        <pt x="27" y="-202" on="0"/>
        <pt x="27" y="-171" on="1"/>
        <pt x="27" y="-159" on="0"/>
        <pt x="40" y="-144" on="0"/>
        <pt x="51" y="-144" on="1"/>
        <pt x="78" y="-144" on="0"/>
        <pt x="78" y="-165" on="1"/>
        <pt x="78" y="-173" on="0"/>
        <pt x="67" y="-187" on="0"/>
        <pt x="67" y="-188" on="1"/>
        <pt x="67" y="-196" on="0"/>
        <pt x="88" y="-206" on="0"/>
      </contour>
    </TTGlyph>
    <TTGlyph name="cent" xMin="47" yMin="-122" xMax="420" yMax="614">
      <contour>
        <pt x="262" y="-116" on="1"/>
        <pt x="253" y="-122" on="0"/>
        <pt x="215" y="-122" on="0"/>
        <pt x="208" y="-112" on="1"/>
        <pt x="211" y="-78" on="0"/>
        <pt x="215" y="-8" on="1"/>
        <pt x="133" y="3" on="0"/>
        <pt x="47" y="137" on="0"/>
        <pt x="47" y="336" on="0"/>
        <pt x="144" y="474" on="0"/>
        <pt x="231" y="487" on="1"/>
        <pt x="232" y="548" on="0"/>
        <pt x="236" y="608" on="1"/>
        <pt x="244" y="614" on="0"/>
        <pt x="283" y="614" on="0"/>
        <pt x="290" y="604" on="1"/>
        <pt x="285" y="544" on="0"/>
        <pt x="282" y="489" on="1"/>
        <pt x="341" y="485" on="0"/>
        <pt x="415" y="421" on="0"/>
        <pt x="415" y="375" on="1"/>
        <pt x="415" y="352" on="0"/>
        <pt x="388" y="326" on="0"/>
        <pt x="344" y="326" on="0"/>
        <pt x="317" y="345" on="0"/>
        <pt x="317" y="376" on="0"/>
        <pt x="341" y="403" on="0"/>
        <pt x="341" y="409" on="1"/>
        <pt x="341" y="420" on="0"/>
        <pt x="302" y="439" on="0"/>
        <pt x="279" y="441" on="1"/>
        <pt x="274" y="347" on="0"/>
        <pt x="267" y="53" on="1"/>
        <pt x="351" y="55" on="0"/>
        <pt x="404" y="98" on="1"/>
        <pt x="420" y="82" on="0"/>
        <pt x="420" y="64" on="0"/>
        <pt x="415" y="59" on="1"/>
        <pt x="347" y="-9" on="0"/>
        <pt x="266" y="-9" on="1"/>
      </contour>
      <contour>
        <pt x="134" y="262" on="1"/>
        <pt x="134" y="94" on="0"/>
        <pt x="218" y="61" on="1"/>
        <pt x="221" y="139" on="0"/>
        <pt x="229" y="436" on="1"/>
        <pt x="185" y="422" on="0"/>
        <pt x="134" y="332" on="0"/>
      </contour>
    </TTGlyph>
    <TTGlyph name="circumflex" xMin="20" yMin="572" xMax="336" yMax="770">
      <contour>
        <pt x="160" y="766" on="1"/>
        <pt x="164" y="770" on="0"/>
        <pt x="190" y="770" on="0"/>
        <pt x="196" y="766" on="1"/>
        <pt x="218" y="724" on="0"/>
        <pt x="257" y="684" on="1"/>
        <pt x="270" y="670" on="0"/>
        <pt x="298" y="643" on="1"/>
        <pt x="335" y="607" on="0"/>
        <pt x="335" y="599" on="0"/>
        <pt x="327" y="585" on="0"/>
        <pt x="324" y="581" on="1"/>
        <pt x="316" y="572" on="0"/>
        <pt x="311" y="572" on="0"/>
        <pt x="288" y="588" on="1"/>
        <pt x="225" y="635" on="0"/>
        <pt x="178" y="678" on="1"/>
        <pt x="140" y="641" on="0"/>
        <pt x="45" y="572" on="0"/>
        <pt x="42" y="572" on="0"/>
        <pt x="39" y="574" on="1"/>
        <pt x="32" y="580" on="0"/>
        <pt x="21" y="599" on="0"/>
        <pt x="21" y="607" on="0"/>
        <pt x="22" y="608" on="1"/>
        <pt x="123" y="694" on="0"/>
      </contour>
    </TTGlyph>
    <TTGlyph name="colon" xMin="68" yMin="0" xMax="181" yMax="480">
      <contour>
        <pt x="181" y="395" on="0"/>
        <pt x="149" y="366" on="0"/>
        <pt x="98" y="366" on="0"/>
        <pt x="68" y="398" on="0"/>
        <pt x="68" y="447" on="0"/>
        <pt x="98" y="480" on="0"/>
        <pt x="146" y="480" on="0"/>
        <pt x="181" y="446" on="0"/>
      </contour>
      <contour>
        <pt x="181" y="29" on="0"/>
        <pt x="149" y="0" on="0"/>
        <pt x="98" y="0" on="0"/>
        <pt x="68" y="32" on="0"/>
        <pt x="68" y="81" on="0"/>
        <pt x="98" y="114" on="0"/>
        <pt x="146" y="114" on="0"/>
        <pt x="181" y="80" on="0"/>
      </contour>
    </TTGlyph>
    <TTGlyph name="comma" xMin="52" yMin="-138" xMax="173" yMax="114">
      <contour>
        <pt x="135" y="114" on="0"/>
        <pt x="173" y="74" on="0"/>
        <pt x="173" y="-11" on="0"/>
        <pt x="155" y="-52" on="1"/>
        <pt x="118" y="-137" on="0"/>
        <pt x="82" y="-137" on="1"/>
        <pt x="79" y="-137" on="0"/>
        <pt x="70" y="-129" on="1"/>
        <pt x="45" y="-107" on="0"/>
        <pt x="55" y="-97" on="1"/>
        <pt x="111" y="-49" on="0"/>
        <pt x="116" y="-31" on="1"/>
        <pt x="118" y="-24" on="0"/>
        <pt x="118" y="-6" on="0"/>
        <pt x="85" y="7" on="0"/>
        <pt x="52" y="32" on="0"/>
        <pt x="52" y="81" on="0"/>
        <pt x="83" y="114" on="0"/>
      </contour>
    </TTGlyph>
    <TTGlyph name="copyright" xMin="61" yMin="191" xMax="567" yMax="713">
      <contour>
        <pt x="418" y="713" on="0"/>
        <pt x="567" y="558" on="0"/>
        <pt x="567" y="345" on="0"/>
        <pt x="418" y="191" on="0"/>
        <pt x="208" y="191" on="0"/>
        <pt x="61" y="344" on="0"/>
        <pt x="61" y="558" on="0"/>
        <pt x="208" y="713" on="0"/>
      </contour>
      <contour>
        <pt x="405" y="227" on="0"/>
        <pt x="531" y="357" on="0"/>
        <pt x="531" y="544" on="0"/>
        <pt x="404" y="677" on="0"/>
        <pt x="220" y="677" on="0"/>
        <pt x="97" y="544" on="0"/>
        <pt x="97" y="356" on="0"/>
        <pt x="220" y="227" on="0"/>
      </contour>
      <contour>
        <pt x="417" y="350" on="1"/>
        <pt x="429" y="335" on="0"/>
        <pt x="429" y="326" on="0"/>
        <pt x="426" y="323" on="1"/>
        <pt x="378" y="275" on="0"/>
        <pt x="241" y="275" on="0"/>
        <pt x="170" y="371" on="0"/>
        <pt x="170" y="521" on="0"/>
        <pt x="252" y="621" on="0"/>
        <pt x="323" y="621" on="1"/>
        <pt x="368" y="621" on="0"/>
        <pt x="425" y="575" on="0"/>
        <pt x="425" y="507" on="0"/>
        <pt x="357" y="507" on="0"/>
        <pt x="357" y="531" on="1"/>
        <pt x="357" y="542" on="0"/>
        <pt x="374" y="560" on="0"/>
        <pt x="374" y="565" on="1"/>
        <pt x="374" y="574" on="0"/>
        <pt x="339" y="588" on="0"/>
        <pt x="322" y="588" on="1"/>
        <pt x="281" y="588" on="0"/>
        <pt x="230" y="521" on="0"/>
        <pt x="230" y="463" on="1"/>
        <pt x="230" y="319" on="0"/>
        <pt x="319" y="319" on="1"/>
        <pt x="381" y="319" on="0"/>
      </contour>
    </TTGlyph>
    <TTGlyph name="currency" xMin="52" yMin="54" xMax="497" yMax="528">
      <contour>
        <pt x="425" y="416" on="1"/>
        <pt x="467" y="361" on="0"/>
        <pt x="467" y="223" on="0"/>
        <pt x="425" y="170" on="1"/>
        <pt x="482" y="108" on="0"/>
        <pt x="497" y="96" on="1"/>
        <pt x="492" y="83" on="0"/>
        <pt x="463" y="54" on="0"/>
        <pt x="451" y="54" on="1"/>
        <pt x="432" y="74" on="0"/>
        <pt x="382" y="129" on="1"/>
        <pt x="332" y="97" on="0"/>
        <pt x="216" y="97" on="0"/>
        <pt x="168" y="131" on="1"/>
        <pt x="98" y="54" on="1"/>
        <pt x="86" y="54" on="0"/>
        <pt x="63" y="75" on="0"/>
        <pt x="52" y="96" on="1"/>
        <pt x="69" y="111" on="0"/>
        <pt x="125" y="172" on="1"/>
        <pt x="86" y="223" on="0"/>
        <pt x="86" y="360" on="0"/>
        <pt x="125" y="413" on="1"/>
        <pt x="91" y="450" on="0"/>
        <pt x="55" y="486" on="1"/>
        <pt x="60" y="499" on="0"/>
        <pt x="89" y="528" on="0"/>
        <pt x="101" y="528" on="1"/>
        <pt x="168" y="455" on="1"/>
        <pt x="216" y="490" on="0"/>
        <pt x="333" y="490" on="0"/>
        <pt x="382" y="457" on="1"/>
        <pt x="447" y="528" on="1"/>
        <pt x="459" y="528" on="0"/>
        <pt x="482" y="507" on="0"/>
        <pt x="493" y="486" on="1"/>
      </contour>
      <contour>
        <pt x="333" y="137" on="0"/>
        <pt x="400" y="229" on="0"/>
        <pt x="400" y="361" on="0"/>
        <pt x="336" y="448" on="0"/>
        <pt x="215" y="448" on="0"/>
        <pt x="153" y="361" on="0"/>
        <pt x="153" y="230" on="0"/>
        <pt x="220" y="137" on="0"/>
      </contour>
    </TTGlyph>
    <TTGlyph name="d" xMin="44" yMin="-10" xMax="562" yMax="764">
      <contour>
        <pt x="131" y="225" on="1"/>
        <pt x="131" y="147" on="0"/>
        <pt x="201" y="43" on="0"/>
        <pt x="269" y="43" on="1"/>
        <pt x="301" y="43" on="0"/>
        <pt x="368" y="91" on="0"/>
        <pt x="386" y="123" on="1"/>
        <pt x="388" y="334" on="1"/>
        <pt x="388" y="374" on="0"/>
        <pt x="308" y="442" on="0"/>
        <pt x="268" y="442" on="1"/>
        <pt x="131" y="442" on="0"/>
      </contour>
      <contour>
        <pt x="562" y="16" on="0"/>
        <pt x="512" y="-10" on="0"/>
        <pt x="445" y="-10" on="0"/>
        <pt x="405" y="30" on="0"/>
        <pt x="400" y="50" on="1"/>
        <pt x="396" y="71" on="1"/>
        <pt x="332" y="-10" on="0"/>
        <pt x="151" y="-10" on="0"/>
        <pt x="44" y="119" on="0"/>
        <pt x="44" y="332" on="0"/>
        <pt x="158" y="490" on="0"/>
        <pt x="253" y="490" on="1"/>
        <pt x="330" y="490" on="0"/>
        <pt x="389" y="431" on="1"/>
        <pt x="391" y="637" on="1"/>
        <pt x="391" y="688" on="0"/>
        <pt x="293" y="688" on="1"/>
        <pt x="290" y="691" on="0"/>
        <pt x="290" y="718" on="0"/>
        <pt x="296" y="724" on="1"/>
        <pt x="365" y="728" on="0"/>
        <pt x="418" y="760" on="1"/>
        <pt x="422" y="764" on="0"/>
        <pt x="448" y="764" on="0"/>
        <pt x="454" y="760" on="1"/>
        <pt x="473" y="115" on="1"/>
        <pt x="475" y="45" on="0"/>
        <pt x="518" y="45" on="1"/>
        <pt x="534" y="45" on="0"/>
        <pt x="555" y="54" on="1"/>
        <pt x="562" y="45" on="0"/>
        <pt x="562" y="27" on="1"/>
      </contour>
    </TTGlyph>
    <TTGlyph name="dagger" xMin="28" yMin="-203" xMax="426" yMax="771">
      <contour>
        <pt x="258" y="371" on="1"/>
        <pt x="263" y="-144" on="1"/>
        <pt x="263" y="-190" on="1"/>
        <pt x="250" y="-203" on="0"/>
        <pt x="194" y="-203" on="0"/>
        <pt x="184" y="-188" on="1"/>
        <pt x="198" y="-68" on="0"/>
        <pt x="198" y="189" on="1"/>
        <pt x="198" y="198" on="0"/>
        <pt x="195" y="450" on="1"/>
        <pt x="73" y="450" on="0"/>
        <pt x="37" y="448" on="1"/>
        <pt x="28" y="470" on="0"/>
        <pt x="28" y="504" on="0"/>
        <pt x="34" y="511" on="1"/>
        <pt x="52" y="509" on="0"/>
        <pt x="194" y="509" on="1"/>
        <pt x="193" y="573" on="0"/>
        <pt x="193" y="736" on="0"/>
        <pt x="194" y="758" on="1"/>
        <pt x="207" y="771" on="0"/>
        <pt x="263" y="771" on="0"/>
        <pt x="273" y="756" on="1"/>
        <pt x="262" y="668" on="0"/>
        <pt x="259" y="509" on="1"/>
        <pt x="402" y="509" on="0"/>
        <pt x="421" y="511" on="1"/>
        <pt x="426" y="493" on="0"/>
        <pt x="426" y="456" on="0"/>
        <pt x="418" y="448" on="1"/>
        <pt x="380" y="450" on="0"/>
        <pt x="258" y="450" on="1"/>
      </contour>
    </TTGlyph>
    <TTGlyph name="daggerdbl" xMin="34" yMin="-203" xMax="432" yMax="771">
      <contour>
        <pt x="269" y="-144" on="1"/>
        <pt x="269" y="-190" on="1"/>
        <pt x="256" y="-203" on="0"/>
        <pt x="200" y="-203" on="0"/>
        <pt x="190" y="-188" on="1"/>
        <pt x="204" y="-68" on="0"/>
        <pt x="204" y="189" on="1"/>
        <pt x="204" y="210" on="1"/>
        <pt x="79" y="210" on="0"/>
        <pt x="43" y="208" on="1"/>
        <pt x="34" y="230" on="0"/>
        <pt x="34" y="264" on="0"/>
        <pt x="40" y="271" on="1"/>
        <pt x="58" y="269" on="0"/>
        <pt x="204" y="269" on="1"/>
        <pt x="201" y="450" on="1"/>
        <pt x="79" y="450" on="0"/>
        <pt x="43" y="448" on="1"/>
        <pt x="34" y="470" on="0"/>
        <pt x="34" y="504" on="0"/>
        <pt x="40" y="511" on="1"/>
        <pt x="58" y="509" on="0"/>
        <pt x="200" y="509" on="1"/>
        <pt x="199" y="573" on="0"/>
        <pt x="199" y="736" on="0"/>
        <pt x="200" y="758" on="1"/>
        <pt x="213" y="771" on="0"/>
        <pt x="269" y="771" on="0"/>
        <pt x="279" y="756" on="1"/>
        <pt x="268" y="668" on="0"/>
        <pt x="265" y="509" on="1"/>
        <pt x="408" y="509" on="0"/>
        <pt x="427" y="511" on="1"/>
        <pt x="432" y="493" on="0"/>
        <pt x="432" y="456" on="0"/>
        <pt x="424" y="448" on="1"/>
        <pt x="386" y="450" on="0"/>
        <pt x="264" y="450" on="1"/>
        <pt x="264" y="269" on="1"/>
        <pt x="408" y="269" on="0"/>
        <pt x="427" y="271" on="1"/>
        <pt x="432" y="253" on="0"/>
        <pt x="432" y="216" on="0"/>
        <pt x="424" y="208" on="1"/>
        <pt x="386" y="210" on="0"/>
        <pt x="264" y="210" on="1"/>
        <pt x="269" y="-130" on="0"/>
      </contour>
    </TTGlyph>
    <TTGlyph name="degree" xMin="41" yMin="446" xMax="300" yMax="713">
      <contour>
        <pt x="224" y="713" on="0"/>
        <pt x="300" y="633" on="0"/>
        <pt x="300" y="523" on="0"/>
        <pt x="225" y="446" on="0"/>
        <pt x="115" y="446" on="0"/>
        <pt x="41" y="523" on="0"/>
        <pt x="41" y="633" on="0"/>
        <pt x="116" y="713" on="0"/>
      </contour>
      <contour>
        <pt x="204" y="496" on="0"/>
        <pt x="251" y="544" on="0"/>
        <pt x="251" y="616" on="0"/>
        <pt x="206" y="663" on="0"/>
        <pt x="134" y="663" on="0"/>
        <pt x="90" y="616" on="0"/>
        <pt x="90" y="544" on="0"/>
        <pt x="136" y="496" on="0"/>
      </contour>
    </TTGlyph>
    <TTGlyph name="dieresis" xMin="32" yMin="571" xMax="314" yMax="676">
      <contour>
        <pt x="32" y="599" on="0"/>
        <pt x="32" y="645" on="0"/>
        <pt x="58" y="676" on="0"/>
        <pt x="102" y="676" on="0"/>
        <pt x="135" y="645" on="0"/>
        <pt x="135" y="624" on="1"/>
        <pt x="135" y="573" on="0"/>
        <pt x="83" y="571" on="1"/>
        <pt x="60" y="571" on="0"/>
      </contour>
      <contour>
        <pt x="211" y="599" on="0"/>
        <pt x="211" y="645" on="0"/>
        <pt x="237" y="676" on="0"/>
        <pt x="281" y="676" on="0"/>
        <pt x="314" y="645" on="0"/>
        <pt x="314" y="624" on="1"/>
        <pt x="314" y="573" on="0"/>
        <pt x="262" y="571" on="1"/>
        <pt x="239" y="571" on="0"/>
      </contour>
    </TTGlyph>
    <TTGlyph name="divide" xMin="58" yMin="45" xMax="456" yMax="444">
      <contour>
        <pt x="305" y="371" on="0"/>
        <pt x="278" y="346" on="0"/>
        <pt x="233" y="346" on="0"/>
        <pt x="208" y="373" on="0"/>
        <pt x="208" y="416" on="0"/>
        <pt x="233" y="444" on="0"/>
        <pt x="275" y="444" on="0"/>
        <pt x="305" y="415" on="0"/>
      </contour>
      <contour>
        <pt x="305" y="70" on="0"/>
        <pt x="278" y="45" on="0"/>
        <pt x="233" y="45" on="0"/>
        <pt x="208" y="72" on="0"/>
        <pt x="208" y="115" on="0"/>
        <pt x="233" y="143" on="0"/>
        <pt x="275" y="143" on="0"/>
        <pt x="305" y="114" on="0"/>
      </contour>
      <contour>
        <pt x="448" y="219" on="1"/>
        <pt x="404" y="221" on="0"/>
        <pt x="109" y="221" on="0"/>
        <pt x="67" y="219" on="1"/>
        <pt x="58" y="241" on="0"/>
        <pt x="58" y="275" on="0"/>
        <pt x="64" y="282" on="1"/>
        <pt x="85" y="280" on="0"/>
        <pt x="429" y="280" on="0"/>
        <pt x="451" y="282" on="1"/>
        <pt x="456" y="264" on="0"/>
        <pt x="456" y="227" on="0"/>
      </contour>
    </TTGlyph>
    <TTGlyph name="dollar" xMin="51" yMin="-90" xMax="488" yMax="770">
      <contour>
        <pt x="51" y="199" on="1"/>
        <pt x="55" y="203" on="0"/>
        <pt x="83" y="203" on="0"/>
        <pt x="89" y="199" on="1"/>
        <pt x="97" y="140" on="0"/>
        <pt x="178" y="63" on="0"/>
        <pt x="237" y="52" on="1"/>
        <pt x="242" y="128" on="0"/>
        <pt x="248" y="300" on="1"/>
        <pt x="116" y="369" on="0"/>
        <pt x="86" y="442" on="1"/>
        <pt x="71" y="477" on="0"/>
        <pt x="71" y="518" on="1"/>
        <pt x="71" y="607" on="0"/>
        <pt x="185" y="714" on="0"/>
        <pt x="261" y="714" on="1"/>
        <pt x="264" y="764" on="1"/>
        <pt x="272" y="770" on="0"/>
        <pt x="311" y="770" on="0"/>
        <pt x="318" y="760" on="1"/>
        <pt x="314" y="729" on="0"/>
        <pt x="313" y="709" on="1"/>
        <pt x="340" y="704" on="0"/>
        <pt x="384" y="678" on="0"/>
        <pt x="392" y="678" on="0"/>
        <pt x="393" y="687" on="1"/>
        <pt x="396" y="709" on="1"/>
        <pt x="400" y="713" on="0"/>
        <pt x="428" y="713" on="0"/>
        <pt x="434" y="709" on="1"/>
        <pt x="448" y="504" on="1"/>
        <pt x="444" y="500" on="0"/>
        <pt x="413" y="500" on="0"/>
        <pt x="410" y="504" on="1"/>
        <pt x="405" y="547" on="0"/>
        <pt x="389" y="600" on="0"/>
        <pt x="345" y="646" on="0"/>
        <pt x="309" y="652" on="1"/>
        <pt x="300" y="511" on="0"/>
        <pt x="296" y="394" on="1"/>
        <pt x="413" y="331" on="0"/>
        <pt x="448" y="286" on="1"/>
        <pt x="488" y="234" on="0"/>
        <pt x="488" y="117" on="0"/>
        <pt x="454" y="75" on="1"/>
        <pt x="395" y="0" on="0"/>
        <pt x="284" y="-9" on="1"/>
        <pt x="281" y="-84" on="1"/>
        <pt x="272" y="-90" on="0"/>
        <pt x="234" y="-90" on="0"/>
        <pt x="227" y="-80" on="1"/>
        <pt x="233" y="-9" on="1"/>
        <pt x="169" y="-4" on="0"/>
        <pt x="118" y="23" on="1"/>
        <pt x="114" y="25" on="0"/>
        <pt x="107" y="25" on="0"/>
        <pt x="106" y="16" on="1"/>
        <pt x="103" y="-6" on="1"/>
        <pt x="99" y="-10" on="0"/>
        <pt x="68" y="-10" on="0"/>
        <pt x="65" y="-6" on="1"/>
      </contour>
      <contour>
        <pt x="399" y="164" on="1"/>
        <pt x="399" y="198" on="0"/>
        <pt x="345" y="248" on="0"/>
        <pt x="293" y="276" on="1"/>
        <pt x="292" y="245" on="0"/>
        <pt x="286" y="49" on="1"/>
        <pt x="331" y="52" on="0"/>
        <pt x="399" y="113" on="0"/>
      </contour>
      <contour>
        <pt x="213" y="646" on="0"/>
        <pt x="158" y="579" on="0"/>
        <pt x="158" y="503" on="0"/>
        <pt x="206" y="448" on="0"/>
        <pt x="251" y="420" on="1"/>
        <pt x="258" y="652" on="1"/>
      </contour>
    </TTGlyph>
    <TTGlyph name="dotaccent" xMin="31" yMin="569" xMax="144" yMax="683">
      <contour>
        <pt x="144" y="598" on="0"/>
        <pt x="112" y="569" on="0"/>
        <pt x="61" y="569" on="0"/>
        <pt x="31" y="601" on="0"/>
        <pt x="31" y="650" on="0"/>
        <pt x="61" y="683" on="0"/>
        <pt x="109" y="683" on="0"/>
        <pt x="144" y="649" on="0"/>
      </contour>
    </TTGlyph>
    <TTGlyph name="dotaccentcmb" xMin="31" yMin="569" xMax="144" yMax="683">
      <contour>
        <pt x="144" y="598" on="0"/>
        <pt x="112" y="569" on="0"/>
        <pt x="61" y="569" on="0"/>
        <pt x="31" y="601" on="0"/>
        <pt x="31" y="650" on="0"/>
        <pt x="61" y="683" on="0"/>
        <pt x="109" y="683" on="0"/>
        <pt x="144" y="649" on="0"/>
      </contour>
    </TTGlyph>
    <TTGlyph name="dotlessi" xMin="32" yMin="0" xMax="286" yMax="484">
      <contour>
        <pt x="164" y="6" on="1"/>
        <pt x="37" y="0" on="1"/>
        <pt x="34" y="3" on="0"/>
        <pt x="34" y="30" on="0"/>
        <pt x="40" y="36" on="1"/>
        <pt x="80" y="36" on="0"/>
        <pt x="117" y="59" on="0"/>
        <pt x="117" y="87" on="1"/>
        <pt x="118" y="358" on="1"/>
        <pt x="118" y="409" on="0"/>
        <pt x="35" y="409" on="1"/>
        <pt x="32" y="412" on="0"/>
        <pt x="32" y="439" on="0"/>
        <pt x="38" y="445" on="1"/>
        <pt x="69" y="445" on="0"/>
        <pt x="125" y="460" on="0"/>
        <pt x="144" y="471" on="0"/>
        <pt x="157" y="484" on="0"/>
        <pt x="183" y="484" on="0"/>
        <pt x="189" y="480" on="1"/>
        <pt x="205" y="87" on="1"/>
        <pt x="206" y="59" on="0"/>
        <pt x="241" y="36" on="0"/>
        <pt x="281" y="36" on="1"/>
        <pt x="286" y="31" on="0"/>
        <pt x="286" y="2" on="0"/>
        <pt x="284" y="0" on="1"/>
      </contour>
    </TTGlyph>
    <TTGlyph name="e" xMin="44" yMin="-10" xMax="443" yMax="490">
      <contour>
        <pt x="432" y="59" on="1"/>
        <pt x="363" y="-10" on="0"/>
        <pt x="156" y="-10" on="0"/>
        <pt x="44" y="131" on="0"/>
        <pt x="44" y="348" on="0"/>
        <pt x="155" y="490" on="0"/>
        <pt x="350" y="490" on="0"/>
        <pt x="443" y="353" on="0"/>
        <pt x="443" y="245" on="1"/>
        <pt x="132" y="245" on="1"/>
        <pt x="132" y="164" on="0"/>
        <pt x="203" y="53" on="0"/>
        <pt x="269" y="53" on="1"/>
        <pt x="359" y="53" on="0"/>
        <pt x="421" y="98" on="1"/>
        <pt x="425" y="95" on="0"/>
        <pt x="437" y="73" on="0"/>
        <pt x="437" y="64" on="0"/>
      </contour>
      <contour>
        <pt x="133" y="297" on="1"/>
        <pt x="274" y="296" on="1"/>
        <pt x="350" y="296" on="0"/>
        <pt x="355" y="302" on="1"/>
        <pt x="356" y="307" on="0"/>
        <pt x="356" y="319" on="1"/>
        <pt x="356" y="366" on="0"/>
        <pt x="302" y="442" on="0"/>
        <pt x="201" y="442" on="0"/>
        <pt x="138" y="363" on="0"/>
      </contour>
    </TTGlyph>
    <TTGlyph name="eacute" xMin="44" yMin="-10" xMax="443" yMax="767">
      <component glyphName="e" x="0" y="0" flags="0x1004"/>
      <component glyphName="acute" x="127" y="-10" flags="0x1004"/>
    </TTGlyph>
    <TTGlyph name="ecircumflex" xMin="44" yMin="-10" xMax="443" yMax="755">
      <contour>
        <pt x="432" y="59" on="1"/>
        <pt x="363" y="-10" on="0"/>
        <pt x="156" y="-10" on="0"/>
        <pt x="44" y="131" on="0"/>
        <pt x="44" y="348" on="0"/>
        <pt x="155" y="490" on="0"/>
        <pt x="350" y="490" on="0"/>
        <pt x="443" y="353" on="0"/>
        <pt x="443" y="245" on="1"/>
        <pt x="132" y="245" on="1"/>
        <pt x="132" y="164" on="0"/>
        <pt x="203" y="53" on="0"/>
        <pt x="269" y="53" on="1"/>
        <pt x="359" y="53" on="0"/>
        <pt x="421" y="98" on="1"/>
        <pt x="425" y="95" on="0"/>
        <pt x="437" y="73" on="0"/>
        <pt x="437" y="64" on="0"/>
      </contour>
      <contour>
        <pt x="133" y="297" on="1"/>
        <pt x="274" y="296" on="1"/>
        <pt x="350" y="296" on="0"/>
        <pt x="355" y="302" on="1"/>
        <pt x="356" y="307" on="0"/>
        <pt x="356" y="319" on="1"/>
        <pt x="356" y="366" on="0"/>
        <pt x="302" y="442" on="0"/>
        <pt x="201" y="442" on="0"/>
        <pt x="138" y="363" on="0"/>
      </contour>
      <contour>
        <pt x="233" y="751" on="1"/>
        <pt x="237" y="755" on="0"/>
        <pt x="263" y="755" on="0"/>
        <pt x="269" y="751" on="1"/>
        <pt x="291" y="709" on="0"/>
        <pt x="330" y="668" on="1"/>
        <pt x="343" y="655" on="0"/>
        <pt x="371" y="628" on="1"/>
        <pt x="408" y="592" on="0"/>
        <pt x="408" y="584" on="0"/>
        <pt x="400" y="570" on="0"/>
        <pt x="396" y="566" on="1"/>
        <pt x="389" y="557" on="0"/>
        <pt x="384" y="557" on="0"/>
        <pt x="362" y="574" on="1"/>
        <pt x="298" y="620" on="0"/>
        <pt x="251" y="663" on="1"/>
        <pt x="213" y="626" on="0"/>
        <pt x="118" y="557" on="0"/>
        <pt x="115" y="557" on="0"/>
        <pt x="112" y="560" on="1"/>
        <pt x="105" y="565" on="0"/>
        <pt x="94" y="584" on="0"/>
        <pt x="94" y="592" on="0"/>
        <pt x="95" y="593" on="1"/>
        <pt x="196" y="679" on="0"/>
      </contour>
    </TTGlyph>
    <TTGlyph name="edieresis" xMin="44" yMin="-10" xMax="443" yMax="694">
      <component glyphName="e" x="0" y="0" flags="0x1004"/>
      <component glyphName="dieresis" x="80" y="18" flags="0x1004"/>
    </TTGlyph>
    <TTGlyph name="egrave" xMin="44" yMin="-10" xMax="443" yMax="767">
      <contour>
        <pt x="432" y="59" on="1"/>
        <pt x="363" y="-10" on="0"/>
        <pt x="156" y="-10" on="0"/>
        <pt x="44" y="131" on="0"/>
        <pt x="44" y="348" on="0"/>
        <pt x="155" y="490" on="0"/>
        <pt x="350" y="490" on="0"/>
        <pt x="443" y="353" on="0"/>
        <pt x="443" y="245" on="1"/>
        <pt x="132" y="245" on="1"/>
        <pt x="132" y="164" on="0"/>
        <pt x="203" y="53" on="0"/>
        <pt x="269" y="53" on="1"/>
        <pt x="359" y="53" on="0"/>
        <pt x="421" y="98" on="1"/>
        <pt x="425" y="95" on="0"/>
        <pt x="437" y="73" on="0"/>
        <pt x="437" y="64" on="0"/>
      </contour>
      <contour>
        <pt x="133" y="297" on="1"/>
        <pt x="274" y="296" on="1"/>
        <pt x="350" y="296" on="0"/>
        <pt x="355" y="302" on="1"/>
        <pt x="356" y="307" on="0"/>
        <pt x="356" y="319" on="1"/>
        <pt x="356" y="366" on="0"/>
        <pt x="302" y="442" on="0"/>
        <pt x="201" y="442" on="0"/>
        <pt x="138" y="363" on="0"/>
      </contour>
      <contour>
        <pt x="96" y="694" on="1"/>
        <pt x="96" y="708" on="0"/>
        <pt x="127" y="767" on="0"/>
        <pt x="150" y="767" on="1"/>
        <pt x="187" y="695" on="0"/>
        <pt x="288" y="609" on="1"/>
        <pt x="286" y="594" on="0"/>
        <pt x="272" y="573" on="0"/>
        <pt x="261" y="573" on="0"/>
        <pt x="96" y="682" on="0"/>
      </contour>
    </TTGlyph>
    <TTGlyph name="eight" xMin="51" yMin="-10" xMax="490" yMax="713">
      <contour>
        <pt x="184" y="713" on="0"/>
        <pt x="350" y="713" on="0"/>
        <pt x="452" y="625" on="0"/>
        <pt x="452" y="546" on="1"/>
        <pt x="452" y="457" on="0"/>
        <pt x="332" y="385" on="1"/>
        <pt x="394" y="356" on="0"/>
        <pt x="490" y="253" on="0"/>
        <pt x="490" y="101" on="0"/>
        <pt x="357" y="-10" on="0"/>
        <pt x="186" y="-10" on="0"/>
        <pt x="51" y="94" on="0"/>
        <pt x="51" y="242" on="0"/>
        <pt x="137" y="350" on="0"/>
        <pt x="193" y="376" on="1"/>
        <pt x="153" y="400" on="0"/>
        <pt x="81" y="491" on="0"/>
        <pt x="81" y="544" on="1"/>
        <pt x="81" y="623" on="0"/>
      </contour>
      <contour>
        <pt x="333" y="42" on="0"/>
        <pt x="406" y="114" on="0"/>
        <pt x="406" y="235" on="0"/>
        <pt x="331" y="312" on="0"/>
        <pt x="243" y="342" on="1"/>
        <pt x="187" y="314" on="0"/>
        <pt x="135" y="236" on="0"/>
        <pt x="135" y="115" on="0"/>
        <pt x="218" y="42" on="0"/>
      </contour>
      <contour>
        <pt x="221" y="661" on="0"/>
        <pt x="165" y="611" on="0"/>
        <pt x="165" y="517" on="0"/>
        <pt x="225" y="431" on="0"/>
        <pt x="280" y="414" on="1"/>
        <pt x="368" y="464" on="0"/>
        <pt x="368" y="570" on="1"/>
        <pt x="368" y="611" on="0"/>
        <pt x="307" y="661" on="0"/>
      </contour>
    </TTGlyph>
    <TTGlyph name="ellipsis" xMin="52" yMin="0" xMax="585" yMax="114">
      <contour>
        <pt x="165" y="29" on="0"/>
        <pt x="133" y="0" on="0"/>
        <pt x="82" y="0" on="0"/>
        <pt x="52" y="32" on="0"/>
        <pt x="52" y="81" on="0"/>
        <pt x="82" y="114" on="0"/>
        <pt x="130" y="114" on="0"/>
        <pt x="165" y="80" on="0"/>
      </contour>
      <contour>
        <pt x="375" y="29" on="0"/>
        <pt x="343" y="0" on="0"/>
        <pt x="292" y="0" on="0"/>
        <pt x="262" y="32" on="0"/>
        <pt x="262" y="81" on="0"/>
        <pt x="292" y="114" on="0"/>
        <pt x="340" y="114" on="0"/>
        <pt x="375" y="80" on="0"/>
      </contour>
      <contour>
        <pt x="585" y="29" on="0"/>
        <pt x="553" y="0" on="0"/>
        <pt x="502" y="0" on="0"/>
        <pt x="472" y="32" on="0"/>
        <pt x="472" y="81" on="0"/>
        <pt x="502" y="114" on="0"/>
        <pt x="550" y="114" on="0"/>
        <pt x="585" y="80" on="0"/>
      </contour>
    </TTGlyph>
    <TTGlyph name="emdash" xMin="72" yMin="219" xMax="910" yMax="282">
      <contour>
        <pt x="802" y="223" on="0"/>
        <pt x="180" y="223" on="0"/>
        <pt x="81" y="219" on="1"/>
        <pt x="72" y="241" on="0"/>
        <pt x="72" y="275" on="0"/>
        <pt x="78" y="282" on="1"/>
        <pt x="201" y="277" on="0"/>
        <pt x="780" y="277" on="0"/>
        <pt x="905" y="282" on="1"/>
        <pt x="910" y="264" on="0"/>
        <pt x="910" y="227" on="0"/>
        <pt x="902" y="219" on="1"/>
      </contour>
    </TTGlyph>
    <TTGlyph name="endash" xMin="72" yMin="219" xMax="580" yMax="282">
      <contour>
        <pt x="572" y="219" on="1"/>
        <pt x="482" y="221" on="0"/>
        <pt x="169" y="221" on="0"/>
        <pt x="81" y="219" on="1"/>
        <pt x="72" y="241" on="0"/>
        <pt x="72" y="275" on="0"/>
        <pt x="78" y="282" on="1"/>
        <pt x="122" y="280" on="0"/>
        <pt x="530" y="280" on="0"/>
        <pt x="575" y="282" on="1"/>
        <pt x="580" y="264" on="0"/>
        <pt x="580" y="227" on="0"/>
      </contour>
    </TTGlyph>
    <TTGlyph name="equal" xMin="85" yMin="155" xMax="483" yMax="346">
      <contour>
        <pt x="475" y="283" on="1"/>
        <pt x="431" y="285" on="0"/>
        <pt x="136" y="285" on="0"/>
        <pt x="94" y="283" on="1"/>
        <pt x="85" y="305" on="0"/>
        <pt x="85" y="339" on="0"/>
        <pt x="91" y="346" on="1"/>
        <pt x="112" y="344" on="0"/>
        <pt x="456" y="344" on="0"/>
        <pt x="478" y="346" on="1"/>
        <pt x="483" y="328" on="0"/>
        <pt x="483" y="291" on="0"/>
      </contour>
      <contour>
        <pt x="475" y="155" on="1"/>
        <pt x="431" y="157" on="0"/>
        <pt x="136" y="157" on="0"/>
        <pt x="94" y="155" on="1"/>
        <pt x="85" y="177" on="0"/>
        <pt x="85" y="211" on="0"/>
        <pt x="91" y="218" on="1"/>
        <pt x="112" y="216" on="0"/>
        <pt x="456" y="216" on="0"/>
        <pt x="478" y="218" on="1"/>
        <pt x="483" y="200" on="0"/>
        <pt x="483" y="163" on="0"/>
      </contour>
    </TTGlyph>
    <TTGlyph name="eth" xMin="44" yMin="-10" xMax="569" yMax="764">
      <contour>
        <pt x="518" y="45" on="1"/>
        <pt x="534" y="45" on="0"/>
        <pt x="555" y="54" on="1"/>
        <pt x="562" y="45" on="0"/>
        <pt x="562" y="27" on="1"/>
        <pt x="562" y="16" on="0"/>
        <pt x="512" y="-10" on="0"/>
        <pt x="445" y="-10" on="0"/>
        <pt x="405" y="30" on="0"/>
        <pt x="400" y="50" on="1"/>
        <pt x="396" y="71" on="1"/>
        <pt x="332" y="-10" on="0"/>
        <pt x="151" y="-10" on="0"/>
        <pt x="44" y="119" on="0"/>
        <pt x="44" y="332" on="0"/>
        <pt x="158" y="490" on="0"/>
        <pt x="253" y="490" on="1"/>
        <pt x="330" y="490" on="0"/>
        <pt x="389" y="431" on="1"/>
        <pt x="390" y="552" on="1"/>
        <pt x="248" y="552" on="1"/>
        <pt x="239" y="572" on="0"/>
        <pt x="239" y="604" on="0"/>
        <pt x="245" y="610" on="1"/>
        <pt x="261" y="608" on="0"/>
        <pt x="390" y="608" on="1"/>
        <pt x="391" y="637" on="1"/>
        <pt x="393" y="688" on="0"/>
        <pt x="293" y="688" on="1"/>
        <pt x="290" y="691" on="0"/>
        <pt x="290" y="718" on="0"/>
        <pt x="296" y="724" on="1"/>
        <pt x="365" y="728" on="0"/>
        <pt x="418" y="760" on="1"/>
        <pt x="422" y="764" on="0"/>
        <pt x="448" y="764" on="0"/>
        <pt x="454" y="760" on="1"/>
        <pt x="458" y="608" on="1"/>
        <pt x="538" y="608" on="0"/>
        <pt x="564" y="610" on="1"/>
        <pt x="569" y="594" on="0"/>
        <pt x="569" y="560" on="0"/>
        <pt x="561" y="552" on="1"/>
        <pt x="460" y="552" on="1"/>
        <pt x="473" y="115" on="1"/>
        <pt x="475" y="45" on="0"/>
      </contour>
      <contour>
        <pt x="131" y="225" on="1"/>
        <pt x="131" y="147" on="0"/>
        <pt x="201" y="43" on="0"/>
        <pt x="269" y="43" on="1"/>
        <pt x="301" y="43" on="0"/>
        <pt x="368" y="91" on="0"/>
        <pt x="386" y="123" on="1"/>
        <pt x="388" y="334" on="1"/>
        <pt x="388" y="374" on="0"/>
        <pt x="308" y="442" on="0"/>
        <pt x="268" y="442" on="1"/>
        <pt x="131" y="442" on="0"/>
      </contour>
    </TTGlyph>
    <TTGlyph name="exclam" xMin="72" yMin="0" xMax="185" yMax="770">
      <contour>
        <pt x="81" y="757" on="1"/>
        <pt x="97" y="770" on="0"/>
        <pt x="161" y="770" on="0"/>
        <pt x="172" y="755" on="1"/>
        <pt x="157" y="727" on="0"/>
        <pt x="153" y="603" on="1"/>
        <pt x="150" y="473" on="0"/>
        <pt x="148" y="192" on="1"/>
        <pt x="127" y="187" on="0"/>
        <pt x="106" y="187" on="0"/>
        <pt x="105" y="191" on="0"/>
        <pt x="98" y="274" on="1"/>
        <pt x="78" y="511" on="0"/>
        <pt x="78" y="754" on="0"/>
      </contour>
      <contour>
        <pt x="185" y="29" on="0"/>
        <pt x="153" y="0" on="0"/>
        <pt x="102" y="0" on="0"/>
        <pt x="72" y="32" on="0"/>
        <pt x="72" y="81" on="0"/>
        <pt x="102" y="114" on="0"/>
        <pt x="150" y="114" on="0"/>
        <pt x="185" y="80" on="0"/>
      </contour>
    </TTGlyph>
    <TTGlyph name="exclamdown" xMin="67" yMin="-122" xMax="180" yMax="649">
      <contour>
        <pt x="67" y="617" on="0"/>
        <pt x="97" y="649" on="0"/>
        <pt x="148" y="649" on="0"/>
        <pt x="180" y="620" on="0"/>
        <pt x="180" y="569" on="0"/>
        <pt x="145" y="535" on="0"/>
        <pt x="97" y="535" on="0"/>
        <pt x="67" y="568" on="0"/>
      </contour>
      <contour>
        <pt x="82" y="-109" on="1"/>
        <pt x="79" y="-106" on="0"/>
        <pt x="79" y="66" on="0"/>
        <pt x="92" y="291" on="0"/>
        <pt x="106" y="457" on="0"/>
        <pt x="107" y="461" on="0"/>
        <pt x="116" y="461" on="1"/>
        <pt x="149" y="456" on="1"/>
        <pt x="152" y="24" on="0"/>
        <pt x="165" y="-92" on="0"/>
        <pt x="173" y="-107" on="1"/>
        <pt x="162" y="-122" on="0"/>
        <pt x="98" y="-122" on="0"/>
      </contour>
    </TTGlyph>
    <TTGlyph name="f" xMin="34" yMin="0" xMax="386" yMax="770">
      <contour>
        <pt x="164" y="6" on="1"/>
        <pt x="37" y="0" on="1"/>
        <pt x="34" y="3" on="0"/>
        <pt x="34" y="30" on="0"/>
        <pt x="40" y="36" on="1"/>
        <pt x="80" y="36" on="0"/>
        <pt x="116" y="59" on="0"/>
        <pt x="117" y="87" on="1"/>
        <pt x="121" y="398" on="1"/>
        <pt x="43" y="398" on="1"/>
        <pt x="34" y="414" on="0"/>
        <pt x="34" y="443" on="0"/>
        <pt x="40" y="450" on="1"/>
        <pt x="121" y="450" on="1"/>
        <pt x="123" y="556" on="1"/>
        <pt x="125" y="647" on="0"/>
        <pt x="204" y="770" on="0"/>
        <pt x="282" y="770" on="1"/>
        <pt x="325" y="770" on="0"/>
        <pt x="386" y="733" on="0"/>
        <pt x="386" y="678" on="0"/>
        <pt x="358" y="650" on="0"/>
        <pt x="335" y="650" on="1"/>
        <pt x="289" y="650" on="0"/>
        <pt x="289" y="684" on="1"/>
        <pt x="289" y="694" on="0"/>
        <pt x="297" y="708" on="0"/>
        <pt x="297" y="711" on="1"/>
        <pt x="297" y="723" on="0"/>
        <pt x="243" y="723" on="0"/>
        <pt x="192" y="656" on="0"/>
        <pt x="192" y="587" on="1"/>
        <pt x="192" y="584" on="0"/>
        <pt x="195" y="450" on="1"/>
        <pt x="309" y="450" on="1"/>
        <pt x="314" y="436" on="0"/>
        <pt x="314" y="406" on="0"/>
        <pt x="306" y="398" on="1"/>
        <pt x="197" y="398" on="1"/>
        <pt x="205" y="87" on="1"/>
        <pt x="206" y="59" on="0"/>
        <pt x="241" y="36" on="0"/>
        <pt x="281" y="36" on="1"/>
        <pt x="286" y="31" on="0"/>
        <pt x="286" y="2" on="0"/>
        <pt x="284" y="0" on="1"/>
      </contour>
    </TTGlyph>
</ttFont>
